<svg width="42" height="42" viewBox="0 0 42 42" fill="none" xmlns="http://www.w3.org/2000/svg">
<path d="M14.4857 19.0816C14.2204 19.3389 14.2217 19.765 14.4886 20.0207C14.7427 20.2641 15.144 20.2621 15.3957 20.0161L20.3266 15.1956V28.5632C20.3266 28.9336 20.6269 29.2339 20.9973 29.2339C21.3677 29.2339 21.668 28.9336 21.668 28.5632V15.1956L26.599 20.0162C26.8508 20.2623 27.2523 20.2649 27.5072 20.0221C27.7761 19.7659 27.778 19.3375 27.5113 19.079L20.9973 12.7661L14.4857 19.0816Z" fill="white"/>
<path fill-rule="evenodd" clip-rule="evenodd" d="M21 41C32.0457 41 41 32.0457 41 21C41 9.9543 32.0457 1 21 1C9.9543 1 1 9.9543 1 21C1 32.0457 9.9543 41 21 41Z" stroke="white"/>
</svg>
