<svg width="128" height="128" viewBox="0 0 128 128" fill="none" xmlns="http://www.w3.org/2000/svg">
<g id="SkillItemImg" clip-path="url(#clip0_362_553)">
<g id="rxjs-1 1">
<path id="Vector" d="M8.52348 79.9258C5.99076 72.0752 5.26016 63.7885 6.72135 55.2595C7.35453 51.7219 8.32866 48.3297 9.40019 44.889C9.40019 44.889 16.1217 22.9365 38.8675 12.9052C38.8675 12.9052 46.7092 8.78606 58.4961 8.4953C58.4961 8.4953 56.8888 6.94457 55.8659 6.26613C50.3134 2.58315 42.0334 1.37164 37.0166 6.55689C35.5067 8.10762 34.2404 9.80373 32.8279 11.3545C31.2206 13.099 29.2723 14.5528 27.0318 15.3767C25.0836 16.1036 23.1354 15.9582 21.1384 16.2974C19.0927 16.6366 16.9984 17.3635 15.3424 18.672C13.5402 20.1258 12.8096 22.0642 12.6148 24.2934C12.42 26.0379 12.4687 27.831 12.3713 29.5755C12.1277 34.7123 10.4717 36.1661 6.77006 39.0253C5.21146 40.1883 3.89639 41.7391 2.92226 43.3867C-0.000110807 48.5235 4.67569 53.8541 4.91922 59.0394C4.96793 60.1055 4.87051 61.1716 4.48086 62.1893C4.09121 63.3039 3.31191 64.0308 2.67873 64.9515C1.80202 66.163 1.21755 67.6168 1.46108 69.1191C1.70461 70.6214 2.48391 72.0267 3.2145 73.3352C4.62698 75.6613 6.38041 77.745 8.23124 79.7319C8.32866 79.7319 8.42607 79.8288 8.52348 79.9258Z" fill="#E32286"/>
<path id="Vector_2" d="M101.455 98.5344C112.658 93.6884 117.431 85.3048 117.431 85.3048C127.903 71.1059 124.347 56.1317 124.347 56.1317C117.674 70.5729 111.586 74.5466 111.586 74.5466C128 49.6865 111.683 34.6638 111.683 34.6638C118.356 48.8142 109.492 66.0661 109.492 66.0661C102.04 81.6703 91.4703 87.2432 91.4703 87.2432C103.257 89.4239 111.927 81.5249 111.927 81.5249C95.0259 99.6975 76.7124 98.8252 76.7124 98.8252C84.4079 107.403 95.9513 106.676 95.9513 106.676C80.8524 110.213 66.6789 105.222 55.0381 95.5784C52.8463 93.7853 50.7519 91.8469 48.8037 89.7631C48.8037 89.7631 47.0503 87.9216 46.7093 87.437L46.6606 87.3886C46.4171 96.3537 55.8174 104.689 55.8174 104.689C44.0305 99.8429 38.6241 89.327 38.6241 89.327C38.6241 89.327 30.685 75.855 36.4323 60.4931C42.1796 45.1312 59.5678 41.8359 59.5678 41.8359C73.9361 48.7657 86.1127 50.9465 86.1127 50.9465C111.781 55.211 110.32 42.7082 110.32 42.7082C110.563 31.95 94.2466 20.5134 94.2466 20.5134C65.169 -0.954483 38.8676 12.9052 38.8676 12.9052C16.1218 22.9364 9.40033 44.8889 9.40033 44.8889C8.32879 48.3296 7.35467 51.7218 6.72149 55.2594C4.23747 69.6521 7.98785 83.2695 16.1218 95.3845C28.7854 114.187 49.3394 120.681 49.3394 120.681C79.7808 130.954 100.578 115.835 100.578 115.835C119.72 102.75 123.568 87.6309 123.568 87.6309C108.128 99.649 101.455 98.5344 101.455 98.5344ZM77.6865 27.8309C79.1477 27.8309 80.3166 28.994 80.3166 30.4478C80.3166 31.9016 79.1477 33.0646 77.6865 33.0646C76.2253 33.0646 75.0563 31.9016 75.0563 30.4478C75.0563 28.994 76.2253 27.8309 77.6865 27.8309Z" fill="url(#paint0_linear_362_553)"/>
<path id="Vector_3" d="M110.271 42.6598C110.514 31.9016 94.1979 20.465 94.1979 20.465C65.1202 -0.954468 38.8189 12.9052 38.8189 12.9052C16.0731 22.9365 9.35159 44.889 9.35159 44.889C8.03652 48.6204 6.86757 54.3387 6.86757 54.3387C5.45509 61.5108 6.08827 68.1499 6.08827 68.1499C6.67275 74.4982 8.08523 78.7627 8.08523 78.7627C9.54642 83.318 10.2283 84.7233 10.2283 84.7233C10.1796 84.5779 9.93607 83.5118 9.93607 83.5118C9.93607 83.5118 7.89041 73.7228 9.78995 64.3215C9.78995 64.3215 11.446 54.5326 18.1674 46.9728C18.1674 46.9728 29.0776 31.5139 49.3881 37.5715C49.3881 37.5715 53.7717 39.1222 55.2816 39.8975C56.7915 40.6245 59.4216 41.739 59.4216 41.739C73.79 48.6689 85.9665 50.8496 85.9665 50.8496C111.732 55.1625 110.271 42.6598 110.271 42.6598ZM77.6864 33.1131C76.2253 33.1131 75.0563 31.9501 75.0563 30.4963C75.0563 29.0424 76.2253 27.8794 77.6864 27.8794C79.1476 27.8794 80.3166 29.0424 80.3166 30.4963C80.3166 31.9501 79.1476 33.1131 77.6864 33.1131Z" fill="url(#paint1_radial_362_553)"/>
<path id="Vector_4" d="M61.0289 23.1788L44.4201 18.042C44.3227 18.042 43.8356 17.7997 42.9589 18.042C42.9589 18.042 33.1689 20.5135 34.8736 25.8441C34.8736 25.8441 35.8965 29.1879 38.6727 32.4347L56.9376 31.5624L61.0289 23.1788Z" fill="url(#paint2_linear_362_553)"/>
</g>
</g>
<defs>
<linearGradient id="paint0_linear_362_553" x1="20.1625" y1="115.011" x2="80.4448" y2="50.556" gradientUnits="userSpaceOnUse">
<stop stop-color="#E01D84"/>
<stop offset="0.401" stop-color="#DF1D85"/>
<stop offset="0.77" stop-color="#932C87"/>
<stop offset="1" stop-color="#5D2F88"/>
</linearGradient>
<radialGradient id="paint1_radial_362_553" cx="0" cy="0" r="1" gradientUnits="userSpaceOnUse" gradientTransform="translate(86.8703 33.8417) rotate(0.136245) scale(59.2182 49.2682)">
<stop stop-color="#E01D84"/>
<stop offset="0.139" stop-color="#DE1E85"/>
<stop offset="0.285" stop-color="#D62085"/>
<stop offset="0.434" stop-color="#C92386"/>
<stop offset="0.586" stop-color="#B72786"/>
<stop offset="0.739" stop-color="#9D2B87"/>
<stop offset="0.891" stop-color="#7C2E88"/>
<stop offset="1" stop-color="#5D2F88"/>
</radialGradient>
<linearGradient id="paint2_linear_362_553" x1="34.636" y1="25.1831" x2="61.0148" y2="25.1831" gradientUnits="userSpaceOnUse">
<stop stop-color="#E01D84"/>
<stop offset="0.238" stop-color="#DA1E85"/>
<stop offset="0.658" stop-color="#C72085"/>
<stop offset="0.999" stop-color="#B52284"/>
</linearGradient>
<clipPath id="clip0_362_553">
<rect width="128" height="128" fill="white"/>
</clipPath>
</defs>
</svg>
