<svg width="150" height="129" viewBox="0 0 150 129" fill="none" xmlns="http://www.w3.org/2000/svg">
<path d="M115.149 0C118.916 0 122 3.0349 122 6.7413V99H0V6.7413C0 3.0349 3.08431 0 6.85106 0H115.149Z" fill="#272727"/>
<g opacity="0.2">
<path d="M6.60519 0.204346C2.97362 0.204346 0 3.2092 0 6.87892V12.7846H26.6229L33.7795 0.204346H6.60519Z" fill="white"/>
</g>
<path d="M9.93823 8.81325C10.9665 8.81325 11.8001 7.99821 11.8001 6.99281C11.8001 5.9874 10.9665 5.17236 9.93823 5.17236C8.90998 5.17236 8.07642 5.9874 8.07642 6.99281C8.07642 7.99821 8.90998 8.81325 9.93823 8.81325Z" fill="#999999"/>
<path d="M15.52 8.81325C16.5483 8.81325 17.3818 7.99821 17.3818 6.99281C17.3818 5.9874 16.5483 5.17236 15.52 5.17236C14.4918 5.17236 13.6582 5.9874 13.6582 6.99281C13.6582 7.99821 14.4918 8.81325 15.52 8.81325Z" fill="#999999"/>
<path d="M21.1018 8.81325C22.1301 8.81325 22.9636 7.99821 22.9636 6.99281C22.9636 5.9874 22.1301 5.17236 21.1018 5.17236C20.0736 5.17236 19.24 5.9874 19.24 6.99281C19.24 7.99821 20.0736 8.81325 21.1018 8.81325Z" fill="#999999"/>
<path d="M112.687 6L111.895 6.70825L113.874 8.49497H109V9.50101H113.874L111.895 11.2877L112.687 12L116 8.99799L112.687 6Z" fill="white"/>
<rect x="36" y="11" width="68" height="1" fill="#D03AFF"/>
<path d="M101 6L98.9979 8L97 6H101Z" fill="#999999"/>
<path fill-rule="evenodd" clip-rule="evenodd" d="M4 96H119V17H4V96ZM118.05 95.0707H4.95041V17.9293H118.05V95.0707Z" fill="black"/>
<path fill-rule="evenodd" clip-rule="evenodd" d="M3 96H118V17H3V96ZM117.242 95.2585H3.75781V17.7415H117.242V95.2585Z" fill="#666666"/>
<path d="M37.5264 8.99469L36 4H36.8745L37.6695 6.88523L37.9662 7.95855C37.9768 7.90542 38.0669 7.56004 38.2259 6.92774L39.0156 4H39.8848L40.6321 6.89586L40.8812 7.85228L41.1674 6.88523L42.0206 4H42.8421L41.2839 8.99469H40.4042L39.6145 6.00319L39.4184 5.15303L38.4114 9H37.5264V8.99469Z" fill="white"/>
<path d="M45.2054 8.99469L43.5264 4H44.4883L45.3628 6.88523L45.6892 7.95855C45.7009 7.90542 45.8 7.56004 45.9749 6.92774L46.8435 4H47.7996L48.6216 6.89586L48.8956 7.85228L49.2105 6.88523L50.1491 4H51.0527L49.3387 8.99469H48.371L47.5023 6.00319L47.2866 5.15303L46.1789 9H45.2054V8.99469Z" fill="white"/>
<path d="M53.9474 8.99469L52.421 4H53.2955L54.0905 6.88523L54.3873 7.95855C54.3979 7.90542 54.488 7.56004 54.647 6.92774L55.4366 4H56.3058L57.0531 6.89586L57.3022 7.85228L57.5884 6.88523L58.4416 4H59.2631L57.705 8.99469H56.8252L56.0355 6.00319L55.8394 5.15303L54.8325 9H53.9474V8.99469Z" fill="white"/>
<path d="M60.6316 9.0001V7.57153H62V9.0001H60.6316Z" fill="white"/>
<rect x="38" y="24" width="13" height="4" rx="2" fill="white"/>
<rect x="54" y="24" width="13" height="4" rx="2" fill="white"/>
<rect x="86" y="24" width="13" height="4" rx="2" fill="white"/>
<rect x="22" y="24" width="13" height="4" rx="2" fill="#D03AFF"/>
<rect x="70" y="24" width="13" height="4" rx="2" fill="white"/>
<path d="M143.149 30C146.916 30 150 33.0349 150 36.7413V129H28V36.7413C28 33.0349 31.0843 30 34.8511 30H143.149Z" fill="#272727"/>
<g opacity="0.2">
<path d="M34.6052 30.2043C30.9736 30.2043 28 33.2092 28 36.8789V42.7846H54.6229L61.7795 30.2043H34.6052Z" fill="white"/>
</g>
<path d="M37.9382 38.8133C38.9665 38.8133 39.8001 37.9982 39.8001 36.9928C39.8001 35.9874 38.9665 35.1724 37.9382 35.1724C36.91 35.1724 36.0764 35.9874 36.0764 36.9928C36.0764 37.9982 36.91 38.8133 37.9382 38.8133Z" fill="#999999"/>
<path d="M43.52 38.8133C44.5483 38.8133 45.3818 37.9982 45.3818 36.9928C45.3818 35.9874 44.5483 35.1724 43.52 35.1724C42.4918 35.1724 41.6582 35.9874 41.6582 36.9928C41.6582 37.9982 42.4918 38.8133 43.52 38.8133Z" fill="#999999"/>
<path d="M49.1018 38.8133C50.1301 38.8133 50.9636 37.9982 50.9636 36.9928C50.9636 35.9874 50.1301 35.1724 49.1018 35.1724C48.0736 35.1724 47.24 35.9874 47.24 36.9928C47.24 37.9982 48.0736 38.8133 49.1018 38.8133Z" fill="#999999"/>
<path d="M140.687 36L139.895 36.7082L141.874 38.495H137V39.501H141.874L139.895 41.2877L140.687 42L144 38.998L140.687 36Z" fill="white"/>
<rect x="64" y="41" width="68" height="1" fill="#D03AFF"/>
<path d="M129 36L126.998 38L125 36H129Z" fill="#999999"/>
<path fill-rule="evenodd" clip-rule="evenodd" d="M32 126H147V47H32V126ZM146.05 125.071H32.9504V47.9293H146.05V125.071Z" fill="black"/>
<path fill-rule="evenodd" clip-rule="evenodd" d="M31 126H146V47H31V126ZM145.242 125.258H31.7578V47.7415H145.242V125.258Z" fill="#666666"/>
<path d="M65.5264 38.9947L64 34H64.8745L65.6695 36.8852L65.9662 37.9586C65.9768 37.9054 66.0669 37.56 66.2259 36.9277L67.0156 34H67.8848L68.6321 36.8959L68.8812 37.8523L69.1674 36.8852L70.0206 34H70.8421L69.2839 38.9947H68.4042L67.6145 36.0032L67.4184 35.153L66.4114 39H65.5264V38.9947Z" fill="white"/>
<path d="M73.2054 38.9947L71.5264 34H72.4883L73.3628 36.8852L73.6892 37.9586C73.7009 37.9054 73.8 37.56 73.9749 36.9277L74.8435 34H75.7996L76.6216 36.8959L76.8956 37.8523L77.2105 36.8852L78.1491 34H79.0527L77.3387 38.9947H76.371L75.5023 36.0032L75.2866 35.153L74.1789 39H73.2054V38.9947Z" fill="white"/>
<path d="M81.9474 38.9947L80.421 34H81.2955L82.0905 36.8852L82.3873 37.9586C82.3979 37.9054 82.488 37.56 82.647 36.9277L83.4366 34H84.3058L85.0531 36.8959L85.3022 37.8523L85.5884 36.8852L86.4416 34H87.2631L85.705 38.9947H84.8252L84.0355 36.0032L83.8394 35.153L82.8325 39H81.9474V38.9947Z" fill="white"/>
<path d="M88.6316 39.0001V37.5715H90V39.0001H88.6316Z" fill="white"/>
<rect x="50" y="68" width="35" height="37" rx="2" fill="#D03AFF"/>
<rect x="50" y="112" width="77" height="2" rx="1" fill="#CCCCCC"/>
<rect x="50" y="120" width="77" height="2" rx="1" fill="#CCCCCC"/>
<rect x="92" y="68" width="35" height="15" rx="2" fill="white"/>
<rect x="50" y="56" width="13" height="4" rx="2" fill="white"/>
<rect x="82" y="56" width="13" height="4" rx="2" fill="white"/>
<rect x="114" y="56" width="13" height="4" rx="2" fill="white"/>
<rect x="66" y="56" width="13" height="4" rx="2" fill="#D03AFF"/>
<rect x="98" y="56" width="13" height="4" rx="2" fill="white"/>
<rect x="92" y="90" width="35" height="15" rx="2" fill="white"/>
</svg>
