<svg width="128" height="128" viewBox="0 0 128 128" fill="none" xmlns="http://www.w3.org/2000/svg">
<g id="SkillItemImg" clip-path="url(#clip0_364_646)">
<g id="docker-icon 1" clip-path="url(#clip1_364_646)">
<g id="Group">
<path id="Vector" d="M68.6886 46.8H81.5074V59.9041H87.9896C91.02 59.8895 94.0282 59.3851 96.8977 58.4103C98.2943 57.9367 99.8549 57.2808 101.227 56.455C99.4177 54.0929 98.4947 51.1113 98.1911 48.1662C97.8207 44.1676 98.6283 38.9606 101.337 35.8303L102.685 34.2727L104.294 35.5631C108.338 38.8118 111.738 43.3509 112.34 48.5276C117.207 47.0945 122.924 47.4345 127.217 49.912L128.978 50.9292L128.052 52.7387C124.448 59.813 116.857 62.0082 109.44 61.6195C98.3399 89.2639 74.175 102.353 44.876 102.353C29.7376 102.353 15.8502 96.6934 7.94398 83.2644C7.47944 82.4295 7.08474 81.5581 6.66271 80.7019C3.99088 74.7904 3.10128 68.3143 3.70245 61.8776L3.88462 59.9405H14.8148V46.8091H27.6335V33.9904H53.274V21.1716H68.6583V46.8121" fill="#394D54"/>
<g id="Clip path group">
<mask id="mask0_364_646" style="mask-type:luminance" maskUnits="userSpaceOnUse" x="5" y="22" width="122" height="79">
<g id="A">
<path id="Vector_2" d="M28.6099 22.2812V48.0715H16.2755V60.9666H5.94819L5.8327 62.0879C5.18794 69.1129 6.41354 75.593 9.23196 81.1334L10.1783 82.8322C10.739 83.8509 11.4118 84.8074 12.1059 85.7408C12.8 86.6743 13.0511 87.189 13.4907 87.8085C20.9401 96.1758 32.0467 100.213 44.8689 100.213C73.2651 100.213 97.3649 87.6325 108.03 59.372C115.597 60.148 122.856 58.2081 126.164 51.751C120.894 48.71 114.122 49.685 110.221 51.6462L120.558 22.2812L80.1903 48.0715H67.2952V22.2812H28.6099Z" fill="white"/>
</g>
</mask>
<g mask="url(#mask0_364_646)">
<g id="Group_2">
<g id="B">
<g id="C">
<path id="Vector_3" d="M55.4429 23.2961H66.554V34.4072H55.4429V23.2961Z" fill="#20C2EF"/>
<g id="D">
<path d="M56.8064 33.4815V24.2212ZM58.4727 33.481V24.2212ZM60.1558 33.481V24.2212ZM61.8394 33.481V24.2212ZM63.5231 33.481V24.2212ZM65.1882 33.481V24.2212Z" fill="black"/>
<path d="M56.8064 33.4815V24.2212M58.4727 33.481V24.2212M60.1558 33.481V24.2212M61.8394 33.481V24.2212M63.5231 33.481V24.2212M65.1882 33.481V24.2212" stroke="#394D54" stroke-width="0.39144"/>
</g>
</g>
<g id="C_2">
<path id="Vector_4" d="M68.2629 34.4131H79.374V23.3026H68.2629V34.4131Z" fill="#00ACD3"/>
<g id="D_2">
<path d="M69.6265 24.2221V33.4824ZM71.2927 24.2226V33.4824ZM72.9758 24.2226V33.4824ZM74.6595 24.2226V33.4824ZM76.3431 24.2226V33.4824ZM78.0083 24.2226V33.4824Z" fill="black"/>
<path d="M69.6265 24.2221V33.4824M71.2927 24.2226V33.4824M72.9758 24.2226V33.4824M74.6595 24.2226V33.4824M76.3431 24.2226V33.4824M78.0083 24.2226V33.4824" stroke="#394D54" stroke-width="0.39144"/>
</g>
</g>
</g>
<g id="B_2">
<g id="C_3">
<path id="Vector_5" d="M4.16309 36.1104H15.2742V47.2209H4.16309V36.1104Z" fill="#00ACD3"/>
<path id="Vector_6" d="M4.16309 48.936H15.2742V60.0471H4.16309V48.936Z" fill="#20C2EF"/>
<g id="D_3">
<path d="M5.52661 46.3014V37.041ZM7.19289 46.3008V37.041ZM8.87598 46.3008V37.041ZM10.5596 46.3008V37.041ZM12.2433 46.3008V37.041ZM13.9084 46.3008V37.041Z" fill="black"/>
<path d="M5.52661 46.3014V37.041M7.19289 46.3008V37.041M8.87598 46.3008V37.041M10.5596 46.3008V37.041M12.2433 46.3008V37.041M13.9084 46.3008V37.041" stroke="#394D54" stroke-width="0.39144"/>
</g>
<g id="D_4">
<path d="M5.52661 59.1214V49.8611ZM7.19289 59.1209V49.8611ZM8.87598 59.1209V49.8611ZM10.5596 59.1209V49.8611ZM12.2433 59.1209V49.8611ZM13.9084 59.1209V49.8611Z" fill="black"/>
<path d="M5.52661 59.1214V49.8611M7.19289 59.1209V49.8611M8.87598 59.1209V49.8611M10.5596 59.1209V49.8611M12.2433 59.1209V49.8611M13.9084 59.1209V49.8611" stroke="#394D54" stroke-width="0.39144"/>
</g>
</g>
<g id="C_4">
<path id="Vector_7" d="M16.9832 60.053H28.0942V48.9425H16.9832V60.053Z" fill="#00ACD3"/>
<path id="Vector_8" d="M16.9832 47.2273H28.0942V36.1162H16.9832V47.2273Z" fill="#20C2EF"/>
<g id="D_5">
<path d="M18.3467 49.862V59.1223ZM20.013 49.8625V59.1223ZM21.696 49.8625V59.1223ZM23.3797 49.8625V59.1223ZM25.0633 49.8625V59.1223ZM26.7285 49.8625V59.1223Z" fill="black"/>
<path d="M18.3467 49.862V59.1223M20.013 49.8625V59.1223M21.696 49.8625V59.1223M23.3797 49.8625V59.1223M25.0633 49.8625V59.1223M26.7285 49.8625V59.1223" stroke="#394D54" stroke-width="0.39144"/>
</g>
<g id="D_6">
<path d="M18.3467 37.0419V46.3022ZM20.013 37.0425V46.3022ZM21.696 37.0425V46.3022ZM23.3797 37.0425V46.3022ZM25.0633 37.0425V46.3022ZM26.7285 37.0425V46.3022Z" fill="black"/>
<path d="M18.3467 37.0419V46.3022M20.013 37.0425V46.3022M21.696 37.0425V46.3022M23.3797 37.0425V46.3022M25.0633 37.0425V46.3022M26.7285 37.0425V46.3022" stroke="#394D54" stroke-width="0.39144"/>
</g>
</g>
</g>
<g id="B_3">
<g id="C_5">
<path id="Vector_9" d="M29.803 36.1104H40.9141V47.2209H29.803V36.1104Z" fill="#00ACD3"/>
<path id="Vector_10" d="M29.803 48.936H40.9141V60.0471H29.803V48.936Z" fill="#20C2EF"/>
<g id="D_7">
<path d="M31.1665 46.3014V37.041ZM32.8328 46.3008V37.041ZM34.5159 46.3008V37.041ZM36.1995 46.3008V37.041ZM37.8832 46.3008V37.041ZM39.5483 46.3008V37.041Z" fill="black"/>
<path d="M31.1665 46.3014V37.041M32.8328 46.3008V37.041M34.5159 46.3008V37.041M36.1995 46.3008V37.041M37.8832 46.3008V37.041M39.5483 46.3008V37.041" stroke="#394D54" stroke-width="0.39144"/>
</g>
<g id="D_8">
<path d="M31.1665 59.1214V49.8611ZM32.8328 59.1209V49.8611ZM34.5159 59.1209V49.8611ZM36.1995 59.1209V49.8611ZM37.8832 59.1209V49.8611ZM39.5483 59.1209V49.8611Z" fill="black"/>
<path d="M31.1665 59.1214V49.8611M32.8328 59.1209V49.8611M34.5159 59.1209V49.8611M36.1995 59.1209V49.8611M37.8832 59.1209V49.8611M39.5483 59.1209V49.8611" stroke="#394D54" stroke-width="0.39144"/>
</g>
</g>
<g id="C_6">
<path id="Vector_11" d="M42.623 60.053H53.7341V48.9425H42.623V60.053Z" fill="#00ACD3"/>
<path id="Vector_12" d="M42.623 47.2273H53.7341V36.1162H42.623V47.2273Z" fill="#20C2EF"/>
<g id="D_9">
<path d="M43.9866 49.862V59.1223ZM45.6528 49.8625V59.1223ZM47.3359 49.8625V59.1223ZM49.0196 49.8625V59.1223ZM50.7032 49.8625V59.1223ZM52.3684 49.8625V59.1223Z" fill="black"/>
<path d="M43.9866 49.862V59.1223M45.6528 49.8625V59.1223M47.3359 49.8625V59.1223M49.0196 49.8625V59.1223M50.7032 49.8625V59.1223M52.3684 49.8625V59.1223" stroke="#394D54" stroke-width="0.39144"/>
</g>
<g id="D_10">
<path d="M43.9866 37.0419V46.3022ZM45.6528 37.0425V46.3022ZM47.3359 37.0425V46.3022ZM49.0196 37.0425V46.3022ZM50.7032 37.0425V46.3022ZM52.3684 37.0425V46.3022Z" fill="black"/>
<path d="M43.9866 37.0419V46.3022M45.6528 37.0425V46.3022M47.3359 37.0425V46.3022M49.0196 37.0425V46.3022M50.7032 37.0425V46.3022M52.3684 37.0425V46.3022" stroke="#394D54" stroke-width="0.39144"/>
</g>
</g>
</g>
<g id="B_4">
<g id="C_7">
<path id="Vector_13" d="M55.4429 36.1104H66.554V47.2209H55.4429V36.1104Z" fill="#00ACD3"/>
<path id="Vector_14" d="M55.4429 48.936H66.554V60.0471H55.4429V48.936Z" fill="#20C2EF"/>
<g id="D_11">
<path d="M56.8064 46.3014V37.041ZM58.4727 46.3008V37.041ZM60.1558 46.3008V37.041ZM61.8394 46.3008V37.041ZM63.5231 46.3008V37.041ZM65.1882 46.3008V37.041Z" fill="black"/>
<path d="M56.8064 46.3014V37.041M58.4727 46.3008V37.041M60.1558 46.3008V37.041M61.8394 46.3008V37.041M63.5231 46.3008V37.041M65.1882 46.3008V37.041" stroke="#394D54" stroke-width="0.39144"/>
</g>
<g id="D_12">
<path d="M56.8064 59.1214V49.8611ZM58.4727 59.1209V49.8611ZM60.1558 59.1209V49.8611ZM61.8394 59.1209V49.8611ZM63.5231 59.1209V49.8611ZM65.1882 59.1209V49.8611Z" fill="black"/>
<path d="M56.8064 59.1214V49.8611M58.4727 59.1209V49.8611M60.1558 59.1209V49.8611M61.8394 59.1209V49.8611M63.5231 59.1209V49.8611M65.1882 59.1209V49.8611" stroke="#394D54" stroke-width="0.39144"/>
</g>
</g>
<g id="C_8">
<path id="Vector_15" d="M68.2629 60.053H79.374V48.9425H68.2629V60.053Z" fill="#00ACD3"/>
<path id="Vector_16" d="M68.2629 47.2273H79.374V36.1162H68.2629V47.2273Z" fill="#20C2EF"/>
<g id="D_13">
<path d="M69.6265 49.862V59.1223ZM71.2927 49.8625V59.1223ZM72.9758 49.8625V59.1223ZM74.6595 49.8625V59.1223ZM76.3431 49.8625V59.1223ZM78.0083 49.8625V59.1223Z" fill="black"/>
<path d="M69.6265 49.862V59.1223M71.2927 49.8625V59.1223M72.9758 49.8625V59.1223M74.6595 49.8625V59.1223M76.3431 49.8625V59.1223M78.0083 49.8625V59.1223" stroke="#394D54" stroke-width="0.39144"/>
</g>
<g id="D_14">
<path d="M69.6265 37.0419V46.3022ZM71.2927 37.0425V46.3022ZM72.9758 37.0425V46.3022ZM74.6595 37.0425V46.3022ZM76.3431 37.0425V46.3022ZM78.0083 37.0425V46.3022Z" fill="black"/>
<path d="M69.6265 37.0419V46.3022M71.2927 37.0425V46.3022M72.9758 37.0425V46.3022M74.6595 37.0425V46.3022M76.3431 37.0425V46.3022M78.0083 37.0425V46.3022" stroke="#394D54" stroke-width="0.39144"/>
</g>
</g>
</g>
<path id="Vector_17" d="M110.225 51.6485C111.084 44.9682 106.085 39.7205 102.984 37.2295C99.4112 41.3604 98.8561 52.1867 104.462 56.7443C101.333 59.5229 94.7415 62.0413 87.9917 62.0413H5.06229C4.40633 69.0871 5.06229 103.016 5.06229 103.016H126.725L126.171 51.7583C120.901 48.7173 114.126 49.6878 110.225 51.6485Z" fill="#17B5EB"/>
<path id="Vector_18" d="M5.06226 71.0583V103.016H126.725V71.0583" fill="black" fill-opacity="0.17"/>
<path id="Vector_19" d="M48.3657 100.156C40.7744 96.5541 36.6076 91.6568 34.2893 86.3115L11.2295 87.3173L23.0033 103.016L48.3657 100.156Z" fill="#D4EDF1"/>
<path id="Vector_20" d="M110.746 51.4007V51.4176C99.0507 66.4992 82.2741 79.6634 64.2642 86.5819C48.1986 92.7536 34.1917 92.7828 24.5277 87.8266C23.4871 87.239 22.4667 86.5864 21.4441 85.9697C14.3591 81.018 10.3689 72.8279 10.7041 62.0369H5.06226V103.016H126.725V49.1929H112.708L110.746 51.4007Z" fill="black" fill-opacity="0.085"/>
</g>
</g>
</g>
<path id="Vector_21" d="M11.5813 86.7742C19.5239 87.2084 27.9979 87.2903 35.391 84.9707" stroke="#394D54" stroke-width="0.853355" stroke-linecap="round"/>
<path id="Vector_22" d="M43.2821 81.1268C43.2813 81.9391 42.9583 82.7178 42.384 83.2922C41.8096 83.8665 41.0309 84.1895 40.2186 84.1903C39.4059 84.1903 38.6263 83.8677 38.0513 83.2932C37.4763 82.7188 37.1529 81.9396 37.1521 81.1268C37.1521 80.3135 37.4752 79.5336 38.0503 78.9585C38.6254 78.3834 39.4053 78.0603 40.2186 78.0603C41.0314 78.0611 41.8106 78.3845 42.385 78.9595C42.9595 79.5345 43.2821 80.3141 43.2821 81.1268Z" fill="#D4EDF1"/>
<path id="Vector_23" d="M41.0445 79.0836C40.7774 79.2354 40.5952 79.5269 40.5952 79.8609C40.5952 80.3557 40.996 80.7565 41.4909 80.7565C41.8309 80.7565 42.0981 80.5683 42.2803 80.289C42.3901 80.5558 42.4469 80.8414 42.4472 81.13C42.4472 82.3444 41.4635 83.3251 40.2521 83.3251C39.0407 83.3251 38.0569 82.3414 38.0569 81.13C38.0569 79.9185 39.0407 78.9348 40.2521 78.9348C40.5242 78.9345 40.7909 78.9849 41.0445 79.0836ZM-14.0012 71.7057H128.589C125.483 70.9163 118.767 69.884 119.876 65.7852C114.228 72.319 100.614 70.3394 97.1803 67.1454C93.3547 72.6955 71.0783 70.5853 69.5268 66.2345C64.7297 71.8636 49.8676 71.8636 45.0705 66.2345C43.516 70.558 21.2426 72.6712 17.4414 67.1454C13.974 70.3394 0.359862 72.322 -5.28741 65.7852C-4.17921 69.8536 -10.8983 70.9467 -14.0012 71.7057Z" fill="#394D54"/>
</g>
</g>
</g>
<defs>
<clipPath id="clip0_364_646">
<rect width="128" height="128" fill="white"/>
</clipPath>
<clipPath id="clip1_364_646">
<rect width="143" height="143" fill="white" transform="translate(-14 -4)"/>
</clipPath>
</defs>
</svg>
