<svg width="128" height="128" viewBox="0 0 128 128" fill="none" xmlns="http://www.w3.org/2000/svg">
<g id="SkillItemImg" clip-path="url(#clip0_364_1223)">
<rect width="128" height="128" fill="#464646"/>
<g id="Unofficial_JavaScript_logo_2 1" clip-path="url(#clip1_364_1223)">
<path id="Vector" d="M128 0H0V128H128V0Z" fill="#F7DF1E"/>
<path id="Vector_2" d="M85.9835 100.001C88.5618 104.21 91.9162 107.305 97.8489 107.305C102.833 107.305 106.017 104.814 106.017 101.372C106.017 97.2476 102.745 95.7868 97.2597 93.3873L94.2527 92.0971C85.5731 88.3993 79.807 83.767 79.807 73.9739C79.807 64.953 86.6804 58.0857 97.4223 58.0857C105.07 58.0857 110.568 60.7473 114.53 67.7162L105.163 73.7301C103.101 70.0324 100.876 68.5756 97.4223 68.5756C93.8992 68.5756 91.6663 70.8105 91.6663 73.7301C91.6663 77.3385 93.9012 78.7993 99.0619 81.0343L102.069 82.3224C112.289 86.7049 118.059 91.1727 118.059 101.218C118.059 112.047 109.552 117.98 98.1273 117.98C86.9567 117.98 79.74 112.656 76.2088 105.679L85.9835 100.001ZM43.4936 101.043C45.3831 104.395 47.102 107.23 51.2346 107.23C55.1863 107.23 57.6793 105.683 57.6793 99.6715V58.7724H69.7072V99.834C69.7072 112.289 62.4051 117.957 51.7466 117.957C42.1161 117.957 36.539 112.973 33.7026 106.971L43.4936 101.043Z" fill="black"/>
</g>
</g>
<defs>
<clipPath id="clip0_364_1223">
<rect width="128" height="128" fill="white"/>
</clipPath>
<clipPath id="clip1_364_1223">
<rect width="128" height="128" fill="white"/>
</clipPath>
</defs>
</svg>
