<svg width="128" height="128" viewBox="0 0 128 128" fill="none" xmlns="http://www.w3.org/2000/svg">
<g id="SkillItemImg">
<g id="Webysther_20160423_-_Elephpant 1">
<g id="g4577">
<g id="g14">
<g id="Clip path group">
<mask id="mask0_364_718" style="mask-type:luminance" maskUnits="userSpaceOnUse" x="17" y="23" width="32" height="38">
<g id="clipPath20">
<path id="path18" d="M17.8115 34.117C17.8115 34.117 24.0156 27.8312 28.3125 25.2261C29.6815 24.3968 39.8637 19.4925 46.4022 36.3717C49.9793 45.6135 50.0391 52.4978 41.9082 55.4337C37.0392 57.1923 38.7794 60.4844 38.7794 60.4844" fill="white"/>
</g>
</mask>
<g mask="url(#mask0_364_718)">
<g id="g16">
<path id="path28" d="M17.8115 34.117C17.8115 34.117 24.0156 27.8312 28.3125 25.2261C29.6815 24.3968 39.8637 19.4925 46.4022 36.3717C49.9793 45.6135 50.0391 52.4978 41.9082 55.4337C37.0392 57.1923 38.7794 60.4844 38.7794 60.4844" fill="url(#paint0_linear_364_718)"/>
</g>
</g>
</g>
</g>
<path id="path30" d="M27.7181 24.4604C23.3594 27.1029 17.2743 33.2473 17.0176 33.507C16.6371 33.8934 16.6817 34.4808 17.1199 34.8169C17.5569 35.1526 18.221 35.1139 18.602 34.7271C18.6639 34.6644 24.7706 28.4982 28.9078 25.9909C29.0317 25.9144 32.0499 24.1269 35.7257 25.2025C39.5913 26.3341 42.94 30.3007 45.4072 36.6719C49.3347 46.8163 48.1699 52.1719 41.5112 54.5743C39.5902 55.2697 38.3255 56.2746 37.7534 57.5672C36.9984 59.2719 37.7936 60.8117 37.828 60.8775C38.0708 61.3395 38.6879 61.5355 39.212 61.3239C39.7374 61.1145 39.9706 60.5662 39.7365 60.1007C39.7325 60.0918 39.2833 59.1785 39.7211 58.2217C40.0811 57.432 40.9507 56.7815 42.3065 56.2933C52.3518 52.6646 50.3024 43.5802 47.3951 36.0703C44.6683 29.0304 40.9653 24.7823 36.388 23.4413C31.8123 22.1016 28.1226 24.2163 27.7181 24.4604Z" fill="#363254"/>
<g id="g32">
<g id="Clip path group_2">
<mask id="mask1_364_718" style="mask-type:luminance" maskUnits="userSpaceOnUse" x="101" y="37" width="16" height="4">
<g id="clipPath38">
<path id="path36" d="M101.241 37.7568H114.271C115.364 37.7568 116.25 38.4207 116.25 39.237C116.25 40.0538 115.364 40.7163 114.271 40.7163H104.044L101.241 37.7568Z" fill="white"/>
</g>
</mask>
<g mask="url(#mask1_364_718)">
<g id="g34">
<path id="path46" d="M101.241 37.7568H114.271C115.364 37.7568 116.25 38.4207 116.25 39.237C116.25 40.0538 115.364 40.7163 114.271 40.7163H104.044L101.241 37.7568Z" fill="url(#paint1_linear_364_718)"/>
</g>
</g>
</g>
</g>
<path id="path48" d="M114.271 38.6844C114.818 38.6844 115.198 38.9761 115.198 39.2371C115.198 39.4976 114.818 39.7893 114.271 39.7893C114.271 39.7893 105.426 39.7893 104.535 39.7893C104.325 39.5696 104.012 39.2357 103.489 38.6844C106.569 38.6844 114.271 38.6844 114.271 38.6844ZM98.9932 36.8293L103.552 41.6448H114.271C115.942 41.6448 117.3 40.5647 117.3 39.2371C117.3 37.9089 115.942 36.8293 114.271 36.8293H98.9932Z" fill="#363254"/>
<path id="path50" d="M118.303 34.3162C120.095 33.5349 122.188 33.7261 122.985 34.7426C123.777 35.7617 122.968 37.217 121.177 38.0013C119.389 38.7817 114.701 39.7256 113.907 38.7052C113.111 37.6887 116.515 35.097 118.303 34.3162Z" fill="#8B9DD7"/>
<path id="path52" d="M118.767 35.1477C120.157 34.5421 121.683 34.7128 122.118 35.27C122.239 35.426 122.267 35.6052 122.204 35.8195C122.092 36.2064 121.64 36.7639 120.709 37.1708C118.982 37.924 115.915 38.366 114.967 38.1525C115.317 37.4336 117.235 35.8173 118.767 35.1477ZM117.838 33.4852C116.34 34.1375 113.293 36.217 112.811 37.8609L113.042 39.2317C114.482 41.0823 120.288 39.4242 121.642 38.8324C122.991 38.2433 123.937 37.3149 124.239 36.2851C124.455 35.551 124.317 34.8169 123.849 34.2171C122.752 32.8138 120.113 32.4928 117.838 33.4852Z" fill="#363254"/>
<path id="path54" d="M121.486 40.3215C123.407 40.9084 124.476 42.2677 123.884 43.3588C123.286 44.4513 121.248 44.8568 119.329 44.2681C117.412 43.6825 113.558 41.4745 114.153 40.3846C114.75 39.29 119.57 39.7346 121.486 40.3215Z" fill="#8B9DD7"/>
<path id="path56" d="M121.141 41.1975H121.143C122.174 41.5145 122.739 42.0414 122.922 42.43C123.062 42.727 122.968 42.9013 122.935 42.9582C122.62 43.5372 121.155 43.8457 119.673 43.3918C117.979 42.8746 115.702 41.4176 115.273 40.7471C116.068 40.5034 119.288 40.6297 121.141 41.1975ZM113.207 39.9823L113.208 41.3282C113.947 42.9013 117.361 44.6492 118.985 45.1458C121.428 45.8951 123.996 45.2872 124.829 43.7644C125.007 43.4358 125.095 43.0832 125.095 42.7257C125.095 42.3887 125.017 42.0481 124.861 41.7146C124.39 40.7164 123.286 39.8907 121.829 39.4461C120.376 39.0001 114.304 37.9694 113.207 39.9823Z" fill="#363254"/>
<path id="path58" d="M121.767 36.9587C124.617 36.9418 126.938 37.8818 126.949 39.0605C126.963 40.2388 124.666 41.2072 121.814 41.2241C118.969 41.2419 112.52 40.3291 112.507 39.1517C112.493 37.9716 118.921 36.9783 121.767 36.9587Z" fill="#8B9DD7"/>
<path id="path60" d="M125.898 39.0694C125.898 39.1143 125.852 39.2019 125.724 39.3166C125.21 39.7803 123.762 40.2846 121.808 40.2961C119.364 40.3112 115.498 39.7043 114.011 39.1409C115.488 38.5567 119.334 37.9018 121.775 37.8866H121.774C124.473 37.8702 125.895 38.7577 125.898 39.0694ZM121.76 36.0303H121.759C119.688 36.044 113.54 36.7115 111.963 38.1263L111.456 39.161C111.485 41.8884 121.718 42.1525 121.822 42.1525C124.115 42.1378 126.185 41.5504 127.224 40.618C127.739 40.1561 128.007 39.6154 128 39.0511C127.984 37.281 125.359 36.0098 121.76 36.0303Z" fill="#363254"/>
<g id="g62">
<g id="Clip path group_3">
<mask id="mask2_364_718" style="mask-type:luminance" maskUnits="userSpaceOnUse" x="27" y="66" width="29" height="33">
<g id="clipPath68">
<path id="path66" d="M55.8682 67.1921V91.0166C55.8682 96.8912 49.4999 98.9966 41.6459 98.9966C33.7907 98.9966 27.4255 96.8912 27.4255 91.0166V66.9111" fill="white"/>
</g>
</mask>
<g mask="url(#mask2_364_718)">
<g id="g64">
<path id="path76" d="M55.8682 67.1921V91.0166C55.8682 96.8912 49.4999 98.9966 41.6459 98.9966C33.7907 98.9966 27.4255 96.8912 27.4255 91.0166V66.9111" fill="url(#paint2_linear_364_718)"/>
</g>
</g>
</g>
</g>
<path id="path78" d="M26.3748 66.9112V91.0167C26.3748 96.7618 31.7967 99.9246 41.6458 99.9246C51.4948 99.9246 56.9187 96.7618 56.9187 91.0167V67.1922C56.9187 66.6795 56.448 66.2638 55.868 66.2638C55.2876 66.2638 54.8173 66.6795 54.8173 67.1922V91.0167C54.8173 96.8459 47.6558 98.0686 41.6458 98.0686C35.6381 98.0686 28.4764 96.8459 28.4764 91.0167V66.9112C28.4764 66.3994 28.0054 65.9836 27.4254 65.9836C26.8455 65.9836 26.3748 66.3994 26.3748 66.9112Z" fill="#363254"/>
<path id="path80" d="M33.658 90.9884C33.658 93.365 32.153 95.2969 30.2955 95.2969C28.4379 95.2969 26.9324 93.365 26.9324 90.9884C26.9324 88.6073 28.4379 83.2317 30.2955 83.2317C32.153 83.2317 33.658 88.6073 33.658 90.9884Z" fill="#8B9DD7"/>
<path id="path82" d="M27.2831 90.9882C27.2831 88.3991 28.8781 83.5405 30.2956 83.5405C31.7124 83.5405 33.308 88.3991 33.308 90.9882C33.308 93.1945 31.9574 94.9881 30.2956 94.9881C28.6348 94.9881 27.2831 93.1945 27.2831 90.9882ZM26.5818 90.9882C26.5818 93.5346 28.2472 95.6071 30.2956 95.6071C32.3431 95.6071 34.0078 93.5346 34.0078 90.9882C34.0078 88.6623 32.5289 82.9211 30.2956 82.9211C28.0628 82.9211 26.5818 88.6623 26.5818 90.9882Z" fill="#363254"/>
<path id="path84" d="M27.8384 91.4178C27.8384 89.1284 29.6585 85.0066 30.9871 85.0066C31.1144 85.0066 31.2391 85.0649 31.3592 85.1534C31.0271 84.4277 30.6466 83.9475 30.2436 83.9475C28.914 83.9475 27.8384 89.1293 27.8384 91.4178Z" fill="#A6BDE6"/>
<path id="path86" d="M35.2441 93.2773C35.2441 95.1137 34.0476 96.6028 32.5704 96.6028C31.0918 96.6028 29.8936 95.1137 29.8936 93.2773C29.8936 91.4356 31.0918 87.2881 32.5704 87.2881C34.0476 87.2881 35.2441 91.4356 35.2441 93.2773Z" fill="#8B9DD7"/>
<path id="path88" d="M30.2435 93.2772C30.2435 91.3524 31.5003 87.5979 32.5703 87.5979C33.6404 87.5979 34.8934 91.3524 34.8934 93.2772C34.8934 94.9397 33.8507 96.2932 32.5703 96.2932C31.2866 96.2932 30.2435 94.9397 30.2435 93.2772ZM29.5432 93.2772C29.5432 95.2808 30.9012 96.9121 32.5703 96.9121C34.2368 96.9121 35.5943 95.2808 35.5943 93.2772C35.5943 91.7094 34.5213 86.9785 32.5703 86.9785C30.6162 86.9785 29.5432 91.7094 29.5432 93.2772Z" fill="#363254"/>
<path id="path90" d="M31.0185 92.1834C30.8839 90.8748 32.138 88.7028 33.115 88.544C33.2065 88.5329 33.3006 88.5529 33.3941 88.5889C33.1078 88.2128 32.7837 87.9131 32.5061 88.0305C31.539 88.4533 30.8839 90.8792 31.0185 92.1834Z" fill="#A6BDE6"/>
<g id="g92">
<g id="Clip path group_4">
<mask id="mask3_364_718" style="mask-type:luminance" maskUnits="userSpaceOnUse" x="70" y="67" width="30" height="33">
<g id="clipPath98">
<path id="path96" d="M99.377 67.483V91.3071C99.377 97.1825 93.0091 99.2869 85.1549 99.2869C77.3002 99.2869 70.9324 97.1825 70.9324 91.3071V67.202" fill="white"/>
</g>
</mask>
<g mask="url(#mask3_364_718)">
<g id="g94">
<path id="path106" d="M99.377 67.483V91.3071C99.377 97.1825 93.0091 99.2869 85.1549 99.2869C77.3002 99.2869 70.9324 97.1825 70.9324 91.3071V67.202" fill="url(#paint3_linear_364_718)"/>
</g>
</g>
</g>
</g>
<path id="path108" d="M69.8813 67.2021V91.3072C69.8813 97.051 75.3058 100.215 85.1551 100.215C89.5881 100.215 93.1429 99.5742 95.7218 98.3115C98.8 96.8033 100.428 94.3818 100.428 91.3072V67.4831C100.428 66.9709 99.9571 66.5556 99.3771 66.5556C98.7971 66.5556 98.3274 66.9709 98.3274 67.4831V91.3072C98.3274 93.7344 97.1407 95.4943 94.7012 96.6899C92.4696 97.7815 89.1694 98.3591 85.1551 98.3591C79.1462 98.3591 71.9842 97.1346 71.9842 91.3072V67.2021C71.9842 66.689 71.5125 66.2737 70.9325 66.2737C70.3525 66.2737 69.8813 66.689 69.8813 67.2021Z" fill="#363254"/>
<path id="path110" d="M77.1667 91.2782C77.1667 93.6548 75.6623 95.5899 73.8053 95.5899C71.9448 95.5899 70.4409 93.6548 70.4409 91.2782C70.4409 88.8986 71.9448 83.5225 73.8053 83.5225C75.6623 83.5225 77.1667 88.8986 77.1667 91.2782Z" fill="#7483CA"/>
<path id="path112" d="M70.7901 91.2782C70.7901 90.063 71.1889 88.1408 71.7587 86.6051C72.3926 84.8945 73.1771 83.8314 73.8052 83.8314C75.2212 83.8314 76.8169 88.6895 76.8169 91.2782C76.8169 93.4854 75.466 95.2799 73.8052 95.2799C72.1424 95.2799 70.7901 93.4854 70.7901 91.2782ZM71.0927 86.4125C70.502 88.003 70.0896 90.0048 70.0896 91.2782C70.0896 93.8255 71.7562 95.8988 73.8052 95.8988C75.8522 95.8988 77.5168 93.8255 77.5168 91.2782C77.5168 88.9523 76.0377 83.2134 73.8052 83.2134C72.5432 83.2134 71.6338 84.9519 71.0927 86.4125Z" fill="#363254"/>
<path id="path114" d="M71.3486 91.7108C71.3486 89.4205 73.1673 85.296 74.4959 85.296C74.6236 85.296 74.748 85.356 74.8684 85.4432C74.5352 84.7189 74.1558 84.2378 73.7531 84.2378C72.4226 84.2378 71.3486 89.4205 71.3486 91.7108Z" fill="#839AD6"/>
<path id="path116" d="M78.7537 93.5667C78.7537 95.4057 77.5578 96.8913 76.0791 96.8913C74.6019 96.8913 73.4041 95.4057 73.4041 93.5667C73.4041 91.7255 74.6019 87.5784 76.0791 87.5784C77.5578 87.5784 78.7537 91.7255 78.7537 93.5667Z" fill="#7483CA"/>
<path id="path118" d="M73.7547 93.5667C73.7547 91.6418 75.0089 87.8882 76.079 87.8882C77.1477 87.8882 78.4029 91.6418 78.4029 93.5667C78.4029 95.2296 77.36 96.5835 76.079 96.5835C74.7966 96.5835 73.7547 95.2296 73.7547 93.5667ZM73.0542 93.5667C73.0542 95.5724 74.4109 97.2016 76.079 97.2016C77.7471 97.2016 79.1038 95.5724 79.1038 93.5667C79.1038 91.9993 78.0303 87.2693 76.079 87.2693C74.1263 87.2693 73.0542 91.9993 73.0542 93.5667Z" fill="#363254"/>
<path id="path120" d="M74.5285 92.4738C74.392 91.1666 75.6467 88.995 76.624 88.8353C76.7163 88.8238 76.8106 88.8429 76.9029 88.8794C76.6167 88.5032 76.2927 88.2031 76.0149 88.3209C75.0473 88.7437 74.392 91.1692 74.5285 92.4738Z" fill="#839AD6"/>
<g id="g122">
<g id="Clip path group_5">
<mask id="mask4_364_718" style="mask-type:luminance" maskUnits="userSpaceOnUse" x="38" y="34" width="10" height="25">
<g id="clipPath128">
<path id="path126" d="M43.903 34.6537C49.4421 42.8973 48.8519 49.8612 41.4715 53.5116C37.0528 55.6984 39.4854 58.5823 39.4854 58.5823" fill="white"/>
</g>
</mask>
<g mask="url(#mask4_364_718)">
<g id="g124">
<path id="path136" d="M43.903 34.6537C49.4421 42.8973 48.8519 49.8612 41.4715 53.5116C37.0528 55.6984 39.4854 58.5823 39.4854 58.5823" fill="url(#paint4_linear_364_718)"/>
</g>
</g>
</g>
</g>
<path id="path138" d="M43.3673 33.8552C42.8673 34.1171 42.7017 34.6867 42.999 35.1273C46.0824 39.7138 47.1858 43.8675 46.1917 47.137C45.4849 49.4611 43.7221 51.3334 40.9588 52.7025C39.212 53.566 38.1701 54.6553 37.8602 55.9385C37.4386 57.6824 38.594 59.0781 38.6435 59.1364C38.9881 59.545 39.6384 59.6277 40.1045 59.3276C40.5697 59.027 40.6713 58.4476 40.3342 58.0341C40.3291 58.0261 39.6886 57.2235 39.9196 56.3085C40.1045 55.5766 40.7998 54.9083 41.985 54.3214C45.2635 52.6985 47.3625 50.4446 48.2221 47.6176C49.3658 43.8538 48.1864 39.2069 44.8064 34.1798C44.5107 33.7387 43.8647 33.5942 43.3673 33.8552Z" fill="#080604"/>
<g id="g140">
<g id="Clip path group_6">
<mask id="mask5_364_718" style="mask-type:luminance" maskUnits="userSpaceOnUse" x="1" y="28" width="110" height="73">
<g id="clipPath146">
<path id="path144" d="M76.2598 28.8095C76.2598 28.8095 67.0634 28.7104 33.4623 29.7295C-0.136807 30.7481 1.10321 41.7764 1.05103 57.6144V95.7091C1.05103 98.9312 4.10125 100.231 7.86492 100.231C11.628 100.231 14.6828 98.9312 14.6828 95.7091C14.6828 95.7091 15.5506 84.8239 16.2997 78.2024C17.9756 54.1471 49.6994 82.1579 72.7608 80.8506C93.717 79.6617 110.22 73.0406 110.22 57.3054C110.22 41.5666 99.4047 28.8095 76.2598 28.8095Z" fill="white"/>
</g>
</mask>
<g mask="url(#mask5_364_718)">
<g id="g142">
<path id="path154" d="M76.2598 28.8095C76.2598 28.8095 67.0634 28.7104 33.4623 29.7295C-0.136807 30.7481 1.10321 41.7764 1.05103 57.6144V95.7091C1.05103 98.9312 4.10125 100.231 7.86492 100.231C11.628 100.231 14.6828 98.9312 14.6828 95.7091C14.6828 95.7091 15.5506 84.8239 16.2997 78.2024C17.9756 54.1471 49.6994 82.1579 72.7608 80.8506C93.717 79.6617 110.22 73.0406 110.22 57.3054C110.22 41.5666 99.4047 28.8095 76.2598 28.8095Z" fill="url(#paint5_linear_364_718)"/>
</g>
</g>
</g>
</g>
<path id="path156" d="M2.10166 95.7089V57.6142C2.10166 57.6178 2.10432 55.9357 2.10432 55.9357C2.11001 41.2858 2.11457 31.6075 33.4976 30.6559C66.6631 29.6511 76.1543 29.7355 76.2471 29.736H76.2598C86.8265 29.736 95.437 32.5238 101.16 37.7972C106.4 42.6233 109.169 49.3689 109.169 57.3052C109.169 74.2894 89.3335 78.9803 72.6938 79.9247C63.9361 80.4201 53.6059 76.4566 44.4917 72.9586C34.2752 69.0387 25.4523 65.6537 20.0201 68.5923C17.1509 70.1441 15.5914 73.269 15.2517 78.1453C14.5134 84.6681 13.6428 95.5333 13.6347 95.644C13.6322 98.8356 10.0188 99.3033 7.86493 99.3033C5.71316 99.3033 2.10166 98.8356 2.10166 95.7089ZM33.4269 28.8027C0.0132806 29.8151 0.00758998 40.771 0.00265649 55.9344L0 57.6116V95.7089C0 99.1211 2.94055 101.161 7.86492 101.161C12.7937 101.161 15.7338 99.1211 15.7338 95.7089C15.7399 95.664 16.6063 84.8251 17.3458 78.2938C17.6435 74.0311 18.8768 71.3877 21.1176 70.1743C25.619 67.7408 34.3769 71.1018 43.654 74.6611C52.9866 78.2422 63.5635 82.3018 72.8284 81.7762C97.6186 80.3689 111.271 71.6785 111.271 57.3052C111.271 48.882 108.299 41.6927 102.678 36.5127C96.5489 30.8662 87.4133 27.881 76.2598 27.881H76.2724C76.1806 27.88 66.666 27.7925 33.4269 28.8027Z" fill="#363254"/>
<g id="g158">
<g id="Clip path group_7">
<mask id="mask6_364_718" style="mask-type:luminance" maskUnits="userSpaceOnUse" x="1" y="58" width="4" height="38">
<g id="clipPath164">
<path id="path162" d="M1.96779 58.6588C2.00365 62.2363 1.45395 93.4845 3.61007 95.3608C2.93266 93.9771 4.41461 63.7041 4.39563 61.8015L4.37571 60.6881C4.37571 60.1581 4.37571 59.6356 4.37571 59.1154C3.54461 58.8344 2.73798 58.4889 1.95925 58.0936L1.96779 58.6588Z" fill="white"/>
</g>
</mask>
<g mask="url(#mask6_364_718)">
<g id="g160">
<path id="path172" d="M1.96779 58.6588C2.00365 62.2363 1.45395 93.4845 3.61007 95.3608C2.93266 93.9771 4.41461 63.7041 4.39563 61.8015L4.37571 60.6881C4.37571 60.1581 4.37571 59.6356 4.37571 59.1154C3.54461 58.8344 2.73798 58.4889 1.95925 58.0936L1.96779 58.6588Z" fill="url(#paint6_linear_364_718)"/>
</g>
</g>
</g>
</g>
<g id="g174">
<g id="Clip path group_8">
<mask id="mask7_364_718" style="mask-type:luminance" maskUnits="userSpaceOnUse" x="2" y="29" width="104" height="31">
<g id="clipPath180">
<path id="path178" d="M76.2472 29.8575C76.2472 29.8575 67.2505 29.7605 34.3746 30.7574C1.50005 31.7543 2.0046 42.8417 2.0046 57.7477L2.01143 58.2991C2.77233 58.6944 3.56093 59.0398 4.3702 59.3213C4.3778 45.2143 5.03318 34.8636 36.7415 33.9023C69.6161 32.9054 78.6158 33.0024 78.6158 33.0024C91.1882 33.0024 99.8434 36.8876 105.232 42.9493C100.271 35.1051 90.8773 29.8575 76.2472 29.8575Z" fill="white"/>
</g>
</mask>
<g mask="url(#mask7_364_718)">
<g id="g176">
<path id="path188" d="M76.2472 29.8575C76.2472 29.8575 67.2505 29.7605 34.3746 30.7574C1.50005 31.7543 2.0046 42.8417 2.0046 57.7477L2.01143 58.2991C2.77233 58.6944 3.56093 59.0398 4.3702 59.3213C4.3778 45.2143 5.03318 34.8636 36.7415 33.9023C69.6161 32.9054 78.6158 33.0024 78.6158 33.0024C91.1882 33.0024 99.8434 36.8876 105.232 42.9493C100.271 35.1051 90.8773 29.8575 76.2472 29.8575Z" fill="url(#paint7_linear_364_718)"/>
</g>
</g>
</g>
</g>
<g id="g190">
<g id="Clip path group_9">
<mask id="mask8_364_718" style="mask-type:luminance" maskUnits="userSpaceOnUse" x="36" y="69" width="29" height="35">
<g id="clipPath196">
<path id="path194" d="M64.7969 78.1222V95.0886C64.7969 100.963 58.4271 103.073 50.5729 103.073C42.7184 103.073 36.3521 100.963 36.3521 95.0886V69.2646" fill="white"/>
</g>
</mask>
<g mask="url(#mask8_364_718)">
<g id="g192">
<path id="path204" d="M64.7969 78.1222V95.0886C64.7969 100.963 58.4271 103.073 50.5729 103.073C42.7184 103.073 36.3521 100.963 36.3521 95.0886V69.2646" fill="url(#paint8_linear_364_718)"/>
</g>
</g>
</g>
</g>
<path id="path206" d="M35.3013 69.2647V95.0887C35.3013 100.836 40.7262 104 50.5729 104C60.4226 104 65.8481 100.836 65.8481 95.0887V78.1223C65.8481 77.61 65.3764 77.1943 64.7969 77.1943C64.2174 77.1943 63.7462 77.61 63.7462 78.1223V95.0887C63.7462 100.921 56.5832 102.145 50.5729 102.145C44.5656 102.145 37.4029 100.921 37.4029 95.0887V69.2647C37.4029 68.7524 36.9322 68.3372 36.3521 68.3372C35.7718 68.3372 35.3013 68.7524 35.3013 69.2647Z" fill="#363254"/>
<path id="path208" d="M45.2984 96.7343C45.2984 98.9441 43.2903 100.736 40.8106 100.736C38.3312 100.736 36.3223 98.9441 36.3223 96.7343C36.3223 94.5217 38.3312 89.5276 40.8106 89.5276C43.2903 89.5276 45.2984 94.5217 45.2984 96.7343Z" fill="#8B9DD7"/>
<path id="path210" d="M36.6728 96.7342C36.6728 94.58 38.6736 89.8357 40.8107 89.8357C42.948 89.8357 44.9487 94.58 44.9487 96.7342C44.9487 98.7715 43.0938 100.427 40.8107 100.427C38.5305 100.427 36.6728 98.7715 36.6728 96.7342ZM35.9717 96.7342C35.9717 99.1112 38.1424 101.046 40.8107 101.046C43.4793 101.046 45.6497 99.1112 45.6497 96.7342C45.6497 94.4928 43.6076 89.2163 40.8107 89.2163C38.0162 89.2163 35.9717 94.4928 35.9717 96.7342Z" fill="#363254"/>
<path id="path212" d="M37.0886 96.9989C37.0886 95.0199 39.6015 91.4645 41.44 91.4645C41.6151 91.4645 41.7851 91.5152 41.9549 91.5926C41.4917 90.9674 40.969 90.5513 40.4138 90.5513C38.5745 90.5513 37.0886 95.0225 37.0886 96.9989Z" fill="#A6BDE6"/>
<path id="path214" d="M48.9549 97.0473C48.9549 99.962 46.8748 102.334 44.3087 102.334C41.7387 102.334 39.6587 99.962 39.6587 97.0473C39.6587 94.1287 41.7387 87.5378 44.3087 87.5378C46.8748 87.5378 48.9549 94.1287 48.9549 97.0473Z" fill="#8B9DD7"/>
<path id="path216" d="M40.0085 97.0473C40.0085 94.1727 42.0885 87.8464 44.3086 87.8464C46.5281 87.8464 48.605 94.1727 48.605 97.0473C48.605 99.7907 46.678 102.024 44.3086 102.024C41.9384 102.024 40.0085 99.7907 40.0085 97.0473ZM39.3081 97.0473C39.3081 100.132 41.5517 102.643 44.3086 102.643C47.0643 102.643 49.3055 100.132 49.3055 97.0473C49.3055 94.1175 47.1952 87.2292 44.3086 87.2292C41.4208 87.2292 39.3081 94.1175 39.3081 97.0473Z" fill="#363254"/>
<path id="path218" d="M40.9116 97.5759C40.9116 94.7653 43.4269 89.7143 45.2633 89.7143C45.4383 89.7143 45.6108 89.7872 45.7779 89.8948C45.318 89.0028 44.792 88.415 44.2372 88.415C42.3977 88.415 40.9116 94.7693 40.9116 97.5759Z" fill="#A6BDE6"/>
<path id="path220" d="M51.3939 98.6169C51.3939 100.68 49.8968 102.353 48.0492 102.353C46.2024 102.353 44.7051 100.68 44.7051 98.6169C44.7051 96.5435 46.2024 91.8801 48.0492 91.8801C49.8968 91.8801 51.3939 96.5435 51.3939 98.6169Z" fill="#8B9DD7"/>
<path id="path222" d="M45.0552 98.6171C45.0552 96.3823 46.6432 92.1893 48.0491 92.1893C49.4585 92.1893 51.0435 96.3823 51.0435 98.6171C51.0435 100.508 49.7013 102.043 48.0491 102.043C46.3987 102.043 45.0552 100.508 45.0552 98.6171ZM44.3545 98.6171C44.3545 100.848 46.0133 102.662 48.0491 102.662C50.0885 102.662 51.7435 100.848 51.7435 98.6171C51.7435 96.5855 50.2716 91.5713 48.0491 91.5713C45.8275 91.5713 44.3545 96.5855 44.3545 98.6171Z" fill="#363254"/>
<path id="path224" d="M46.1116 97.3849C45.9421 95.9114 47.5096 93.4686 48.7308 93.292C48.8459 93.2751 48.963 93.3 49.081 93.3405C48.7225 92.9159 48.3174 92.5793 47.9703 92.7131C46.7601 93.1889 45.9421 95.9163 46.1116 97.3849Z" fill="#A6BDE6"/>
<g id="g226">
<g id="Clip path group_10">
<mask id="mask9_364_718" style="mask-type:luminance" maskUnits="userSpaceOnUse" x="79" y="66" width="30" height="37">
<g id="clipPath232">
<path id="path230" d="M108.32 66.4631V94.4254C108.32 100.3 101.951 102.408 94.0968 102.408C86.2416 102.408 79.8762 100.3 79.8762 94.4254V78.3594" fill="white"/>
</g>
</mask>
<g mask="url(#mask9_364_718)">
<g id="g228">
<path id="path240" d="M108.32 66.4631V94.4254C108.32 100.3 101.951 102.408 94.0968 102.408C86.2416 102.408 79.8762 100.3 79.8762 94.4254V78.3594" fill="url(#paint9_linear_364_718)"/>
</g>
</g>
</g>
</g>
<path id="path242" d="M107.268 66.463V94.4252C107.268 100.257 100.105 101.48 94.0967 101.48C88.0898 101.48 80.9273 100.257 80.9273 94.4252V78.3592C80.9273 77.847 80.4566 77.4308 79.8761 77.4308C79.2961 77.4308 78.8254 77.847 78.8254 78.3592V94.4252C78.8254 100.171 84.2489 103.337 94.0967 103.337C103.945 103.337 109.37 100.171 109.37 94.4252V66.463C109.37 65.9503 108.9 65.5359 108.32 65.5359C107.739 65.5359 107.268 65.9503 107.268 66.463Z" fill="#363254"/>
<path id="path244" d="M88.823 96.0704C88.823 98.2789 86.8139 100.071 84.3346 100.071C81.8553 100.071 79.8467 98.2789 79.8467 96.0704C79.8467 93.8578 81.8553 88.8628 84.3346 88.8628C86.8139 88.8628 88.823 93.8578 88.823 96.0704Z" fill="#8B9DD7"/>
<path id="path246" d="M80.1973 96.0705C80.1973 93.9154 82.1972 89.1733 84.3345 89.1733C86.4728 89.1733 88.4732 93.9154 88.4732 96.0705C88.4732 98.1061 86.6161 99.7632 84.3345 99.7632C82.0534 99.7632 80.1973 98.1061 80.1973 96.0705ZM79.4963 96.0705C79.4963 98.4475 81.6662 100.382 84.3345 100.382C87.0028 100.382 89.1731 98.4475 89.1731 96.0705C89.1731 93.8287 87.1305 88.554 84.3345 88.554C81.5394 88.554 79.4963 93.8287 79.4963 96.0705Z" fill="#363254"/>
<path id="path248" d="M80.6125 96.3337C80.6125 94.3555 83.1249 90.8006 84.964 90.8006C85.1393 90.8006 85.3089 90.8509 85.4789 90.9274C85.0164 90.3022 84.4938 89.8865 83.9381 89.8865C82.099 89.8865 80.6125 94.3582 80.6125 96.3337Z" fill="#A6BDE6"/>
<path id="path250" d="M92.4798 96.3822C92.4798 99.2985 90.4003 101.67 87.8321 101.67C85.2619 101.67 83.1824 99.2985 83.1824 96.3822C83.1824 93.4636 85.2619 86.8745 87.8321 86.8745C90.4003 86.8745 92.4798 93.4636 92.4798 96.3822Z" fill="#8B9DD7"/>
<path id="path252" d="M83.5325 96.3822C83.5325 93.5076 85.6111 87.1831 87.8319 87.1831C90.0523 87.1831 92.129 93.5076 92.129 96.3822C92.129 99.1264 90.201 101.36 87.8319 101.36C85.4605 101.36 83.5325 99.1264 83.5325 96.3822ZM82.832 96.3822C82.832 99.4679 85.0748 101.978 87.8319 101.978C90.5877 101.978 92.8294 99.4679 92.8294 96.3822C92.8294 93.4538 90.7198 86.5637 87.8319 86.5637C84.9427 86.5637 82.832 93.4538 82.832 96.3822Z" fill="#363254"/>
<path id="path254" d="M84.436 96.9121C84.436 94.102 86.9513 89.051 88.787 89.051C88.9628 89.051 89.1348 89.1235 89.3024 89.2306C88.8428 88.3387 88.3172 87.7522 87.7611 87.7522C85.922 87.7522 84.436 94.1043 84.436 96.9121Z" fill="#A6BDE6"/>
<path id="path256" d="M94.9172 97.9522C94.9172 100.017 93.4206 101.689 91.5737 101.689C89.7268 101.689 88.2292 100.017 88.2292 97.9522C88.2292 95.8798 89.7268 91.2151 91.5737 91.2151C93.4206 91.2151 94.9172 95.8798 94.9172 97.9522Z" fill="#8B9DD7"/>
<path id="path258" d="M88.5791 97.9522C88.5791 95.7179 90.1656 91.5259 91.5738 91.5259C92.9816 91.5259 94.568 95.7179 94.568 97.9522C94.568 99.8424 93.2235 101.38 91.5738 101.38C89.9232 101.38 88.5791 99.8424 88.5791 97.9522ZM87.8787 97.9522C87.8787 100.184 89.5356 101.997 91.5738 101.997C93.6111 101.997 95.2675 100.184 95.2675 97.9522C95.2675 95.9216 93.7957 90.9065 91.5738 90.9065C89.351 90.9065 87.8787 95.9216 87.8787 97.9522Z" fill="#363254"/>
<path id="path260" d="M89.6361 96.721C89.4671 95.2471 91.0341 92.8051 92.2553 92.6282C92.37 92.6117 92.4875 92.6348 92.6056 92.6766C92.2461 92.2511 91.842 91.9167 91.4946 92.0479C90.2841 92.5237 89.4671 95.252 89.6361 96.721Z" fill="#A6BDE6"/>
<path id="path262" d="M9.96124 42.0786C9.59012 42.5401 9.72103 43.1746 10.256 43.4974C10.7888 43.8198 11.5233 43.7046 11.894 43.2444C14.0073 40.6162 18.7603 39.8919 21.0201 40.6384C21.4703 40.7878 22.0394 40.7229 22.2881 40.4903C22.5367 40.2609 22.3741 39.9523 21.9229 39.8034C18.8288 38.7798 12.7591 38.5944 9.96124 42.0786Z" fill="#363254"/>
<path id="path264" d="M19.1202 53.6317C17.1686 54.0083 15.448 53.0088 15.2787 51.4001C15.11 49.7887 16.5567 48.1787 18.5088 47.7985C20.4625 47.4206 22.1826 48.4175 22.3532 50.0297C22.5207 51.6406 21.0745 53.2502 19.1202 53.6317ZM23.1558 49.815C22.9602 47.9377 20.9282 46.7825 18.6124 47.2285C16.2996 47.6767 14.5814 49.5566 14.7757 51.4312C14.9704 53.3049 17.0032 54.4632 19.3162 54.019C21.6317 53.5695 23.3505 51.69 23.1558 49.815Z" fill="#363254"/>
<path id="path266" d="M22.2297 50.1596C22.3779 51.5758 21.1124 52.9941 19.4035 53.325C17.6876 53.6593 16.1831 52.778 16.0302 51.3619C15.8831 49.9457 17.1487 48.5287 18.8584 48.1974C20.5726 47.8639 22.0813 48.7421 22.2297 50.1596Z" fill="#FCFCFC"/>
<path id="path268" d="M21.9793 50.1738C21.5165 49.0947 20.2875 48.4691 19.2452 48.7697C18.6866 48.9279 18.3039 49.3232 18.1255 49.8172L19.5824 50.4771L18.2439 51.3614C18.7399 52.3792 19.9131 52.9635 20.9256 52.6731C21.9721 52.369 22.4417 51.2525 21.9793 50.1738Z" fill="#363254"/>
<path id="path270" d="M20.9067 49.7113C21.1661 49.677 21.4714 49.9643 21.5824 50.3631C21.6943 50.7571 21.5739 51.1074 21.3088 51.1448C21.0466 51.1808 20.7418 50.8913 20.6295 50.4938C20.5206 50.1003 20.6435 49.7508 20.9067 49.7113Z" fill="white"/>
<path id="path272" d="M16.6685 48.0849C14.8417 49.3752 14.2643 51.2493 15.4985 52.3116C15.3915 52.2698 15.6244 52.5428 15.5258 52.4921C13.5825 51.5059 13.2579 48.5775 15.0469 46.8546C16.5825 45.3739 21.1907 44.2761 21.1566 44.847C20.9665 45.502 19.6174 46.3334 17.9422 47.2369C17.403 47.5175 17.0142 47.8412 16.6685 48.0849Z" fill="#363254"/>
<path id="path274" d="M46.6832 66.2723C46.5891 66.7116 46.9138 67.0722 47.4035 67.0722H50.2179C50.7085 67.0722 51.185 66.7116 51.2797 66.2723L52.0292 62.7366C52.1235 62.2964 52.599 61.9367 53.0901 61.9367H56.1359C57.8729 61.9367 59.302 61.7695 60.4227 61.4347C61.5457 61.1016 62.5639 60.5405 63.4834 59.7539C64.2519 59.1066 64.8766 58.392 65.3526 57.609C65.8287 56.8287 66.1687 55.9661 66.3679 55.0226C66.8546 52.7336 66.3756 51.0306 65.2691 49.6705C63.8793 47.9675 60.3328 47.8773 60.3328 47.8773C59.848 47.8106 59.0514 47.7537 58.5612 47.7537H51.5046C51.015 47.7537 50.5385 48.1147 50.4437 48.5553L46.6832 66.2723ZM57.7102 50.8025C59.4575 50.8025 60.6199 51.0982 61.2023 51.6883C61.7833 52.2783 61.9227 53.2921 61.6191 54.7269C61.3 56.2222 60.6879 57.2907 59.7815 57.9296C58.875 58.5681 56.5279 58.7993 56.5279 58.7993C56.0397 58.8482 55.2401 58.8878 54.751 58.8878H53.7377C53.248 58.8878 52.9221 58.5272 53.0163 58.0875L54.393 51.6038C54.4862 51.1636 54.9637 50.8025 55.4529 50.8025H57.7102Z" fill="#363254"/>
<path id="path276" d="M46.6832 66.2723C46.5891 66.7116 46.9138 67.0722 47.4035 67.0722H50.2179C50.7085 67.0722 51.185 66.7116 51.2797 66.2723L52.0292 62.7366C52.1235 62.2964 52.599 61.9367 53.0901 61.9367H56.1359C57.8729 61.9367 59.302 61.7695 60.4227 61.4347C61.5457 61.1016 62.5639 60.5405 63.4834 59.7539C64.2519 59.1066 64.8766 58.392 65.3526 57.609C65.8287 56.8287 66.1687 55.9661 66.3679 55.0226C66.8546 52.7336 66.3756 51.0306 65.2691 49.6705C63.8793 47.9675 60.3328 47.8773 60.3328 47.8773C59.848 47.8106 59.0514 47.7537 58.5612 47.7537H51.5046C51.015 47.7537 50.5385 48.1147 50.4437 48.5553L46.6832 66.2723ZM57.7102 50.8025C59.4575 50.8025 60.6199 51.0982 61.2023 51.6883C61.7833 52.2783 61.9227 53.2921 61.6191 54.7269C61.3 56.2222 60.6879 57.2907 59.7815 57.9296C58.875 58.5681 56.5279 58.7993 56.5279 58.7993C56.0397 58.8482 55.2401 58.8878 54.751 58.8878H53.7377C53.248 58.8878 52.9221 58.5272 53.0163 58.0875L54.393 51.6038C54.4862 51.1636 54.9637 50.8025 55.4529 50.8025H57.7102Z" stroke="white" stroke-width="5.29133"/>
<path id="path278" d="M70.8014 43.4188C70.8947 42.9795 71.3712 42.6194 71.8608 42.6194H74.6399C75.1305 42.6194 75.4545 42.9795 75.3602 43.4188L74.6102 46.9546C74.5165 47.3952 74.8429 47.7536 75.3316 47.7536H77.6113C78.1009 47.7536 78.9009 47.7923 79.3877 47.8381C79.3877 47.8381 82.7122 47.8737 83.7911 48.979C84.6698 49.879 85.0516 51.1186 84.6635 52.9465L82.9264 61.1363C82.8336 61.5765 82.3557 61.9366 81.8655 61.9366H79.0151C78.525 61.9366 78.2 61.5765 78.2937 61.1363L79.7695 54.1888C79.8627 53.7491 79.9677 53.023 80.0036 52.5748C80.0036 52.5748 80.0692 51.7527 79.7102 51.4001C79.3527 51.0461 78.5891 50.8701 77.4223 50.8701H74.669C74.1784 50.8701 73.7033 51.2293 73.6081 51.6695L71.6005 61.1363C71.5067 61.5765 71.0302 61.9366 70.5401 61.9366H67.7606C67.2704 61.9366 66.9464 61.5765 67.0397 61.1363L70.8014 43.4188Z" fill="#363254"/>
<path id="path280" d="M70.8014 43.4188C70.8947 42.9795 71.3712 42.6194 71.8608 42.6194H74.6399C75.1305 42.6194 75.4545 42.9795 75.3602 43.4188L74.6102 46.9546C74.5165 47.3952 74.8429 47.7536 75.3316 47.7536H77.6113C78.1009 47.7536 78.9009 47.7923 79.3877 47.8381C79.3877 47.8381 82.7122 47.8737 83.7911 48.979C84.6698 49.879 85.0516 51.1186 84.6635 52.9465L82.9264 61.1363C82.8336 61.5765 82.3557 61.9366 81.8655 61.9366H79.0151C78.525 61.9366 78.2 61.5765 78.2937 61.1363L79.7695 54.1888C79.8627 53.7491 79.9677 53.023 80.0036 52.5748C80.0036 52.5748 80.0692 51.7527 79.7102 51.4001C79.3527 51.0461 78.5891 50.8701 77.4223 50.8701H74.669C74.1784 50.8701 73.7033 51.2293 73.6081 51.6695L71.6005 61.1363C71.5067 61.5765 71.0302 61.9366 70.5401 61.9366H67.7606C67.2704 61.9366 66.9464 61.5765 67.0397 61.1363L70.8014 43.4188Z" stroke="white" stroke-width="5.29133"/>
<path id="path282" d="M84.8976 66.2723C84.8034 66.7116 85.1284 67.0722 85.619 67.0722H88.433C88.9216 67.0722 89.4006 66.7116 89.4934 66.2723L90.2434 62.7366C90.3371 62.2964 90.8146 61.9367 91.3033 61.9367H94.3505C96.0871 61.9367 97.5152 61.7695 98.6388 61.4347C99.7584 61.1016 100.779 60.5405 101.697 59.7539C102.468 59.1066 103.089 58.392 103.567 57.609C104.043 56.8287 104.382 55.9661 104.583 55.0226C105.069 52.7336 104.629 51.0044 103.483 49.6705C102.061 48.0147 98.546 47.8773 98.546 47.8773C98.0612 47.8106 97.2641 47.7537 96.7744 47.7537H89.7178C89.2286 47.7537 88.7507 48.1147 88.6579 48.5553L84.8976 66.2723ZM95.9258 50.8025C97.6711 50.8025 98.8345 51.0982 99.4179 51.6883C99.9974 52.2783 100.136 53.2921 99.8323 54.7269C99.5136 56.2222 98.904 57.2907 97.9961 57.9296C97.0882 58.5681 94.741 58.7993 94.741 58.7993C94.2548 58.8482 93.4557 58.8878 92.9646 58.8878H91.9504C91.4597 58.8878 91.1372 58.5272 91.23 58.0875L92.6056 51.6038C92.6999 51.1636 93.1769 50.8025 93.6665 50.8025H95.9258Z" fill="#363254"/>
<path id="path284" d="M84.8976 66.2723C84.8034 66.7116 85.1284 67.0722 85.619 67.0722H88.433C88.9216 67.0722 89.4006 66.7116 89.4934 66.2723L90.2434 62.7366C90.3371 62.2964 90.8146 61.9367 91.3033 61.9367H94.3505C96.0871 61.9367 97.5152 61.7695 98.6388 61.4347C99.7584 61.1016 100.779 60.5405 101.697 59.7539C102.468 59.1066 103.089 58.392 103.567 57.609C104.043 56.8287 104.382 55.9661 104.583 55.0226C105.069 52.7336 104.629 51.0044 103.483 49.6705C102.061 48.0147 98.546 47.8773 98.546 47.8773C98.0612 47.8106 97.2641 47.7537 96.7744 47.7537H89.7178C89.2286 47.7537 88.7507 48.1147 88.6579 48.5553L84.8976 66.2723ZM95.9258 50.8025C97.6711 50.8025 98.8345 51.0982 99.4179 51.6883C99.9974 52.2783 100.136 53.2921 99.8323 54.7269C99.5136 56.2222 98.904 57.2907 97.9961 57.9296C97.0882 58.5681 94.741 58.7993 94.741 58.7993C94.2548 58.8482 93.4557 58.8878 92.9646 58.8878H91.9504C91.4597 58.8878 91.1372 58.5272 91.23 58.0875L92.6056 51.6038C92.6999 51.1636 93.1769 50.8025 93.6665 50.8025H95.9258Z" stroke="white" stroke-width="5.29133"/>
<path id="path286" d="M46.6832 66.2723C46.5891 66.7116 46.9138 67.0722 47.4035 67.0722H50.2179C50.7085 67.0722 51.185 66.7116 51.2797 66.2723L52.0292 62.7366C52.1235 62.2964 52.599 61.9367 53.0901 61.9367H56.1359C57.8729 61.9367 59.302 61.7695 60.4227 61.4347C61.5457 61.1016 62.5639 60.5405 63.4834 59.7539C64.2519 59.1066 64.8766 58.392 65.3526 57.609C65.8287 56.8287 66.1687 55.9661 66.3679 55.0226C66.8546 52.7336 66.3756 51.0306 65.2691 49.6705C63.8793 47.9675 60.3328 47.8773 60.3328 47.8773C59.848 47.8106 59.0514 47.7537 58.5612 47.7537H51.5046C51.015 47.7537 50.5385 48.1147 50.4437 48.5553L46.6832 66.2723ZM57.7102 50.8025C59.4575 50.8025 60.6199 51.0982 61.2023 51.6883C61.7833 52.2783 61.9227 53.2921 61.6191 54.7269C61.3 56.2222 60.6879 57.2907 59.7815 57.9296C58.875 58.5681 56.5279 58.7993 56.5279 58.7993C56.0397 58.8482 55.2401 58.8878 54.751 58.8878H53.7377C53.248 58.8878 52.9221 58.5272 53.0163 58.0875L54.393 51.6038C54.4862 51.1636 54.9637 50.8025 55.4529 50.8025H57.7102Z" fill="#363254"/>
<path id="path288" d="M70.8014 43.4188C70.8947 42.9795 71.3712 42.6194 71.8608 42.6194H74.6399C75.1305 42.6194 75.4545 42.9795 75.3602 43.4188L74.6102 46.9546C74.5165 47.3952 74.8429 47.7536 75.3316 47.7536H77.6113C78.1009 47.7536 78.9009 47.7923 79.3877 47.8381C79.3877 47.8381 82.7122 47.8737 83.7911 48.979C84.6698 49.879 85.0516 51.1186 84.6635 52.9465L82.9264 61.1363C82.8336 61.5765 82.3557 61.9366 81.8655 61.9366H79.0151C78.525 61.9366 78.2 61.5765 78.2937 61.1363L79.7695 54.1888C79.8627 53.7491 79.9677 53.023 80.0036 52.5748C80.0036 52.5748 80.0692 51.7527 79.7102 51.4001C79.3527 51.0461 78.5891 50.8701 77.4223 50.8701H74.669C74.1784 50.8701 73.7033 51.2293 73.6081 51.6695L71.6005 61.1363C71.5067 61.5765 71.0302 61.9366 70.5401 61.9366H67.7606C67.2704 61.9366 66.9464 61.5765 67.0397 61.1363L70.8014 43.4188Z" fill="#363254"/>
<path id="path290" d="M84.8976 66.2723C84.8034 66.7116 85.1284 67.0722 85.619 67.0722H88.433C88.9216 67.0722 89.4006 66.7116 89.4934 66.2723L90.2434 62.7366C90.3371 62.2964 90.8146 61.9367 91.3033 61.9367H94.3505C96.0871 61.9367 97.5152 61.7695 98.6388 61.4347C99.7584 61.1016 100.779 60.5405 101.697 59.7539C102.468 59.1066 103.089 58.392 103.567 57.609C104.043 56.8287 104.382 55.9661 104.583 55.0226C105.069 52.7336 104.629 51.0044 103.483 49.6705C102.061 48.0147 98.546 47.8773 98.546 47.8773C98.0612 47.8106 97.2641 47.7537 96.7744 47.7537H89.7178C89.2286 47.7537 88.7507 48.1147 88.6579 48.5553L84.8976 66.2723ZM95.9258 50.8025C97.6711 50.8025 98.8345 51.0982 99.4179 51.6883C99.9974 52.2783 100.136 53.2921 99.8323 54.7269C99.5136 56.2222 98.904 57.2907 97.9961 57.9296C97.0882 58.5681 94.741 58.7993 94.741 58.7993C94.2548 58.8482 93.4557 58.8878 92.9646 58.8878H91.9504C91.4597 58.8878 91.1372 58.5272 91.23 58.0875L92.6056 51.6038C92.6999 51.1636 93.1769 50.8025 93.6665 50.8025H95.9258Z" fill="#363254"/>
<g id="g292">
<g id="Clip path group_11">
<mask id="mask10_364_718" style="mask-type:luminance" maskUnits="userSpaceOnUse" x="27" y="24" width="31" height="40">
<g id="clipPath298">
<path id="path296" d="M27.7795 31.6894C27.7795 31.6894 36.1116 26.4458 41.3743 24.6486C43.0517 24.0754 55.154 21.1488 57.116 40.2771C58.1886 50.7505 56.2572 57.9843 46.8748 59.2946C41.2599 60.0799 42.1293 63.9104 42.1293 63.9104" fill="white"/>
</g>
</mask>
<g mask="url(#mask10_364_718)">
<g id="g294">
<path id="path306" d="M27.7795 31.6894C27.7795 31.6894 36.1116 26.4458 41.3743 24.6486C43.0517 24.0754 55.154 21.1488 57.116 40.2771C58.1886 50.7505 56.2572 57.9843 46.8748 59.2946C41.2599 60.0799 42.1293 63.9104 42.1293 63.9104" fill="url(#paint10_linear_364_718)"/>
</g>
</g>
</g>
</g>
<path id="path308" d="M40.994 23.7833C35.67 25.6023 27.5146 30.7165 27.169 30.934C26.6974 31.231 26.5869 31.8108 26.9243 32.2274C27.2605 32.6445 27.9176 32.7414 28.3897 32.444C28.4719 32.3937 36.6753 27.2484 41.7515 25.5134C41.9103 25.46 45.6463 24.2222 49.2321 26.1879C52.9652 28.2355 55.3289 33.1354 56.0711 40.3611C57.253 51.9092 54.4535 57.2965 46.711 58.3791C44.516 58.6851 42.9183 59.4561 41.9603 60.673C40.7024 62.2662 41.0815 64.0194 41.0993 64.0936C41.2134 64.592 41.7602 64.9135 42.3265 64.8179C42.8934 64.7228 43.2655 64.2368 43.1615 63.7357C43.159 63.7268 42.95 62.6472 43.7004 61.7135C44.3223 60.9402 45.4452 60.4342 47.0393 60.2106C58.5504 58.6028 59.0318 48.6683 58.1647 40.1935C57.3491 32.2528 54.7154 27.01 50.3416 24.6121C45.9505 22.2044 41.4895 23.6144 40.994 23.7833Z" fill="#363254"/>
<g id="g310">
<g id="Clip path group_12">
<mask id="mask11_364_718" style="mask-type:luminance" maskUnits="userSpaceOnUse" x="25" y="25" width="26" height="11">
<g id="clipPath316">
<path id="path314" d="M36.3028 30.3021C45.7367 24.902 50.974 27.6632 50.974 27.6632C46.872 24.2302 42.2577 25.368 41.2372 25.7184C35.9925 27.5156 25.8637 34.1576 25.8637 34.1576C25.8637 34.1576 24.4941 36.3812 27.2233 35.8988C27.2233 35.8988 33.1598 32.1025 36.3028 30.3021Z" fill="white"/>
</g>
</mask>
<g mask="url(#mask11_364_718)">
<g id="g312">
<path id="path324" d="M36.3028 30.3021C45.7367 24.902 50.974 27.6632 50.974 27.6632C46.872 24.2302 42.2577 25.368 41.2372 25.7184C35.9925 27.5156 25.8637 34.1576 25.8637 34.1576C25.8637 34.1576 24.4941 36.3812 27.2233 35.8988C27.2233 35.8988 33.1598 32.1025 36.3028 30.3021Z" fill="url(#paint11_linear_364_718)"/>
</g>
</g>
</g>
</g>
<path id="path326" d="M32.8987 55.7845C32.8167 60.1686 31.231 64.161 28.7576 66.1974C27.6354 67.1227 26.3836 67.5807 25.1343 67.5247C24.7489 67.5056 24.4205 67.7675 24.3983 68.1085C24.3799 68.4509 24.6762 68.7408 25.0629 68.7586C26.6997 68.8341 28.3071 68.2615 29.7141 67.1023C32.4554 64.8435 34.2121 60.5146 34.2994 55.8027C34.307 55.463 33.9992 55.1807 33.6117 55.1754C33.2243 55.1705 32.9057 55.443 32.8987 55.7845Z" fill="#363254"/>
<path id="path328" d="M35.9333 52.6541C35.4057 53.7616 34.4835 54.4673 33.4011 54.5851C32.346 54.6989 31.2739 54.2472 30.5323 53.3753C30.3014 53.1027 29.8606 53.0467 29.5515 53.2521C29.2424 53.4566 29.1792 53.8443 29.412 54.1169C30.4585 55.349 32.0146 55.9826 33.5731 55.8136C35.1675 55.6376 36.4973 54.6607 37.2258 53.1325C37.3751 52.8172 37.206 52.4575 36.8508 52.3237C36.4933 52.1916 36.0844 52.3397 35.9333 52.6541Z" fill="#363254"/>
</g>
</g>
</g>
<defs>
<linearGradient id="paint0_linear_364_718" x1="51.6028" y1="51.7748" x2="91.1698" y2="83.9892" gradientUnits="userSpaceOnUse">
<stop stop-color="#8C9BD6"/>
<stop offset="1" stop-color="#505E9B"/>
</linearGradient>
<linearGradient id="paint1_linear_364_718" x1="79.2686" y1="18.5863" x2="119.165" y2="51.0685" gradientUnits="userSpaceOnUse">
<stop stop-color="#808FD0"/>
<stop offset="1" stop-color="#505E9B"/>
</linearGradient>
<linearGradient id="paint2_linear_364_718" x1="32.4622" y1="74.5784" x2="71.8557" y2="106.652" gradientUnits="userSpaceOnUse">
<stop stop-color="#8C9BD6"/>
<stop offset="1" stop-color="#505E9B"/>
</linearGradient>
<linearGradient id="paint3_linear_364_718" x1="48.3087" y1="56.0003" x2="87.7019" y2="88.0731" gradientUnits="userSpaceOnUse">
<stop stop-color="#8C9BD6"/>
<stop offset="1" stop-color="#505E9B"/>
</linearGradient>
<linearGradient id="paint4_linear_364_718" x1="50.4894" y1="52.6179" x2="88.7284" y2="83.751" gradientUnits="userSpaceOnUse">
<stop stop-color="#808FD0"/>
<stop offset="1" stop-color="#505E9B"/>
</linearGradient>
<linearGradient id="paint5_linear_364_718" x1="43.4574" y1="61.8495" x2="83.2245" y2="94.2268" gradientUnits="userSpaceOnUse">
<stop stop-color="#8C9BD6"/>
<stop offset="1" stop-color="#505E9B"/>
</linearGradient>
<linearGradient id="paint6_linear_364_718" x1="-14.775" y1="52.212" x2="10.1013" y2="91.8211" gradientUnits="userSpaceOnUse">
<stop stop-color="#FAFAFD"/>
<stop offset="1" stop-color="#8892D2"/>
</linearGradient>
<linearGradient id="paint7_linear_364_718" x1="31.5728" y1="21.1439" x2="60.5594" y2="67.2976" gradientUnits="userSpaceOnUse">
<stop stop-color="#FAFAFD"/>
<stop offset="1" stop-color="#8892D2"/>
</linearGradient>
<linearGradient id="paint8_linear_364_718" x1="31.7942" y1="75.5348" x2="71.1673" y2="107.591" gradientUnits="userSpaceOnUse">
<stop stop-color="#8C9BD6"/>
<stop offset="1" stop-color="#505E9B"/>
</linearGradient>
<linearGradient id="paint9_linear_364_718" x1="50.839" y1="52.6749" x2="90.3489" y2="84.8428" gradientUnits="userSpaceOnUse">
<stop stop-color="#8C9BD6"/>
<stop offset="1" stop-color="#505E9B"/>
</linearGradient>
<linearGradient id="paint10_linear_364_718" x1="53.3606" y1="49.6763" x2="92.8099" y2="81.7947" gradientUnits="userSpaceOnUse">
<stop stop-color="#8C9BD6"/>
<stop offset="1" stop-color="#505E9B"/>
</linearGradient>
<linearGradient id="paint11_linear_364_718" x1="30.7778" y1="21.6064" x2="60.4023" y2="68.776" gradientUnits="userSpaceOnUse">
<stop stop-color="#FAFAFD"/>
<stop offset="1" stop-color="#8892D2"/>
</linearGradient>
</defs>
</svg>
