<svg width="150" height="122" viewBox="0 0 150 122" fill="none" xmlns="http://www.w3.org/2000/svg">
<path d="M141.577 0C146.208 0 150 3.73998 150 8.30746V122H0V8.30746C0 3.73998 3.79219 0 8.42344 0H141.577Z" fill="#272727"/>
<g opacity="0.2">
<path d="M8.15935 0.251465C3.6733 0.251465 0 3.94975 0 8.46632V15.7349H32.8871L41.7276 0.251465H8.15935Z" fill="white"/>
</g>
<path d="M12.455 10.7667C13.7575 10.7667 14.8133 9.74789 14.8133 8.49113C14.8133 7.23438 13.7575 6.21558 12.455 6.21558C11.1526 6.21558 10.0967 7.23438 10.0967 8.49113C10.0967 9.74789 11.1526 10.7667 12.455 10.7667Z" fill="#999999"/>
<path d="M19.5253 10.7667C20.8278 10.7667 21.8836 9.74789 21.8836 8.49113C21.8836 7.23438 20.8278 6.21558 19.5253 6.21558C18.2229 6.21558 17.167 7.23438 17.167 8.49113C17.167 9.74789 18.2229 10.7667 19.5253 10.7667Z" fill="#999999"/>
<path d="M26.5956 10.7667C27.8981 10.7667 28.9539 9.74789 28.9539 8.49113C28.9539 7.23438 27.8981 6.21558 26.5956 6.21558C25.2932 6.21558 24.2373 7.23438 24.2373 8.49113C24.2373 9.74789 25.2932 10.7667 26.5956 10.7667Z" fill="#999999"/>
<path d="M138.213 7L137.309 7.94433L139.571 10.3266H134V11.668H139.571L137.309 14.0503L138.213 15L142 10.9973L138.213 7Z" fill="white"/>
<rect x="44" y="14" width="83" height="1" fill="#D03AFF"/>
<path d="M124 7L121.497 10L119 7H124Z" fill="#999999"/>
<path fill-rule="evenodd" clip-rule="evenodd" d="M5 118H147V21H5V118ZM145.826 116.859H6.17355V22.1411H145.826V116.859Z" fill="black"/>
<path fill-rule="evenodd" clip-rule="evenodd" d="M3 118H145V21H3V118ZM144.064 117.09H3.93573V21.9105H144.064V117.09Z" fill="#666666"/>
<path d="M45.8786 10.9936L44 5H45.0763L46.0547 8.46227L46.42 9.75027C46.433 9.6865 46.5439 9.27205 46.7396 8.51328L47.7115 5H48.7813L49.701 8.47503L50.0076 9.62274L50.3598 8.46227L51.41 5H52.4211L50.5033 10.9936H49.4205L48.4486 7.40383L48.2073 6.38363L46.9679 11H45.8786V10.9936Z" fill="white"/>
<path d="M55.3296 10.9936L53.2632 5H54.4471L55.5233 8.46227L55.9251 9.75027C55.9395 9.6865 56.0615 9.27205 56.2767 8.51328L57.3458 5H58.5226L59.5343 8.47503L59.8715 9.62274L60.259 8.46227L61.4142 5H62.5263L60.4168 10.9936H59.2257L58.1566 7.40383L57.8911 6.38363L56.5279 11H55.3296V10.9936Z" fill="white"/>
<path d="M66.0891 10.9936L64.2105 5H65.2868L66.2652 8.46227L66.6305 9.75027C66.6435 9.6865 66.7544 9.27205 66.9501 8.51328L67.922 5H68.9918L69.9115 8.47503L70.2181 9.62274L70.5703 8.46227L71.6205 5H72.6316L70.7138 10.9936H69.631L68.6591 7.40383L68.4178 6.38363L67.1784 11H66.0891V10.9936Z" fill="white"/>
<path d="M74.3158 10.9999V9.28564H76V10.9999H74.3158Z" fill="white"/>
<rect x="32" y="30" width="89" height="2" rx="1" fill="#CCCCCC"/>
<rect x="32" y="38" width="89" height="2" rx="1" fill="#CCCCCC"/>
<rect x="32" y="46" width="89" height="2" rx="1" fill="#CCCCCC"/>
<rect x="33" y="59" width="17" height="17" rx="1" stroke="white" stroke-width="2"/>
<rect x="33" y="86" width="17" height="17" rx="1" stroke="white" stroke-width="2"/>
<path d="M43.4751 101L36.0015 94.9247C34.9257 94.0502 34.8307 92.4416 35.7962 91.4466C36.6489 90.5678 38.0317 90.4862 38.9818 91.2586L42.8153 94.3752L53.6485 81.6762C54.4573 80.7281 55.8571 80.5564 56.8711 81.281C58.0161 82.0992 58.2152 83.7223 57.3018 84.7929L43.4751 101Z" fill="#D03AFF"/>
<rect x="58" y="61" width="62" height="4" rx="2" fill="white"/>
<rect x="58" y="88" width="62" height="4" rx="2" fill="white"/>
<rect x="58" y="70" width="25" height="4" rx="2" fill="white"/>
<rect x="58" y="97" width="25" height="4" rx="2" fill="white"/>
</svg>
