<svg width="86" height="51" viewBox="0 0 86 51" fill="none" xmlns="http://www.w3.org/2000/svg">
<path d="M0 22.8694L2.8758 0L86 9.85987V32.7293L9.85987 50.6688L5.34076 28.621L18.3503 24.9236L0 22.8694Z" fill="#CBE154"/>
<path d="M47.4487 22.7199L46.3361 28.5961H50.4156L49.9326 31.099C48.8028 31.5796 47.5522 31.8153 46.1894 31.8153C43.9039 31.8153 42.1271 31.2168 40.8679 30.0108C39.6001 28.8138 38.9705 27.1906 38.9705 25.1593C38.9705 23.128 39.3586 21.4141 40.1434 19.8635C40.9197 18.3128 42.0323 17.0886 43.464 16.1999C44.9043 15.3112 46.5689 14.8669 48.4836 14.8669C49.9844 14.8669 51.2953 15.1117 52.3907 15.6105C53.4947 16.1092 54.4951 16.9435 55.4094 18.1314L61.1363 13.3888C58.5316 9.74336 54.4348 7.92065 48.8459 7.92065C45.327 7.92065 42.2048 8.68238 39.4966 10.2058C36.7798 11.7293 34.6753 13.8422 33.166 16.5445C31.6566 19.2468 30.9062 22.3028 30.9062 25.7215C30.9062 28.2878 31.4927 30.5639 32.6571 32.5408C33.8214 34.5177 35.4774 36.0502 37.6164 37.1384C39.7553 38.2266 42.2479 38.7707 45.0941 38.7707C47.2158 38.7707 49.2426 38.4623 51.1573 37.8548C53.0807 37.2472 54.7625 36.3676 56.2201 35.2069L58.5919 22.7199H47.44H47.4487Z" fill="black"/>
</svg>
