<svg width="100" height="100" viewBox="0 0 100 100" fill="none" xmlns="http://www.w3.org/2000/svg">
<rect width="100" height="100" fill="white"/>
<path d="M7 47.8694L9.8758 25L93 34.8599V57.7293L16.8599 75.6688L12.3408 53.621L25.3503 49.9236L7 47.8694Z" fill="#CBE154"/>
<path d="M54.4487 47.7199L53.3361 53.5961H57.4156L56.9326 56.099C55.8028 56.5796 54.5522 56.8153 53.1894 56.8153C50.9039 56.8153 49.1271 56.2168 47.8679 55.0108C46.6001 53.8138 45.9705 52.1906 45.9705 50.1593C45.9705 48.128 46.3586 46.4141 47.1434 44.8635C47.9197 43.3128 49.0323 42.0886 50.464 41.1999C51.9043 40.3112 53.5689 39.8669 55.4836 39.8669C56.9844 39.8669 58.2953 40.1117 59.3907 40.6105C60.4947 41.1092 61.4951 41.9435 62.4094 43.1314L68.1363 38.3888C65.5316 34.7434 61.4348 32.9207 55.8459 32.9207C52.327 32.9207 49.2048 33.6824 46.4966 35.2058C43.7798 36.7293 41.6753 38.8422 40.166 41.5445C38.6566 44.2468 37.9062 47.3028 37.9062 50.7215C37.9062 53.2878 38.4927 55.5639 39.6571 57.5408C40.8214 59.5177 42.4774 61.0502 44.6164 62.1384C46.7553 63.2266 49.2479 63.7707 52.0941 63.7707C54.2158 63.7707 56.2426 63.4623 58.1573 62.8548C60.0807 62.2472 61.7625 61.3676 63.2201 60.2069L65.5919 47.7199H54.44H54.4487Z" fill="black"/>
</svg>
