<?xml version="1.0" encoding="UTF-8"?>
<svg xmlns="http://www.w3.org/2000/svg" width="128" height="128" viewBox="0 0 128 128" fill="none">
  <g id="SkillItemImg" clip-path="url(#clip0_364_1307)">
    <g id="w3_css-icon 1">
      <g id="layer1">
        <path id="polygon2989" d="M120.464 0L110.182 115.187L63.963 128L17.8714 115.205L7.6001 0H120.464Z" fill="#264DE4"></path>
        <path id="polygon2991" d="M64.0322 118.206L101.379 107.852L110.166 9.41968H64.0322V118.206Z" fill="#2965F1"></path>
        <path id="polygon2993" d="M64.0322 52.1475H31.147L32.4133 66.2767H64.0322V52.1475Z" fill="#EBEBEB"></path>
        <path id="polygon2995" d="M64.0321 23.5493H63.9833H28.6023L29.8867 37.6789H64.0321V23.5493Z" fill="#EBEBEB"></path>
        <path id="polygon2997" d="M33.0444 73.3418L35.024 95.5269L63.967 103.562L64.032 103.544V88.8432L63.9701 88.8597L48.2341 84.6106L47.2281 73.3418H39.5817H33.0444Z" fill="#EBEBEB"></path>
        <path id="polygon3005" d="M81.3819 66.2768L79.7419 84.6015L63.9832 88.8549V103.555L92.9492 95.5268L93.1617 93.1397L96.4819 55.9417L96.8267 52.1475L99.3775 23.5493H63.9832V37.6789H83.8929L82.6072 52.1475H63.9832V66.2768H81.3819Z" fill="white"></path>
      </g>
    </g>
  </g>
  <defs>
    <clipPath id="clip0_364_1307">
      <rect width="128" height="128" fill="white"></rect>
    </clipPath>
  </defs>
</svg>
