<?xml version="1.0" encoding="UTF-8"?>
<svg xmlns="http://www.w3.org/2000/svg" width="128" height="128" viewBox="0 0 128 128" fill="none">
  <g id="SkillItemImg" clip-path="url(#clip0_364_1337)">
    <g id="elementor-icon 1" clip-path="url(#clip1_364_1337)">
      <path id="Shape" d="M121.6 0H6.40001C2.92585 0 0 2.92562 0 6.39999V121.6C0 125.074 2.92563 128 6.40001 128H121.6C125.075 128 128 125.074 128 121.6V6.39999C128 2.92562 125.075 0 121.6 0ZM46.9944 92.3427H35.6572V35.6571H46.9944V92.3427ZM92.5258 92.3427H58.3316V81.0055H92.5258V92.3427ZM92.5258 69.6686H58.3316V58.3312H92.5258V69.6686ZM92.5258 46.9943H58.3316V35.6571H92.5258V46.9943Z" fill="url(#paint0_linear_364_1337)"></path>
    </g>
  </g>
  <defs>
    <linearGradient id="paint0_linear_364_1337" x1="127.908" y1="-0.127654" x2="-0.09172" y2="127.872" gradientUnits="userSpaceOnUse">
      <stop stop-color="#ED345E"></stop>
      <stop offset="1" stop-color="#382C74"></stop>
    </linearGradient>
    <clipPath id="clip0_364_1337">
      <rect width="128" height="128" fill="white"></rect>
    </clipPath>
    <clipPath id="clip1_364_1337">
      <rect width="128" height="128" fill="white"></rect>
    </clipPath>
  </defs>
</svg>
