<?xml version="1.0" encoding="UTF-8"?>
<svg xmlns="http://www.w3.org/2000/svg" width="128" height="128" viewBox="0 0 128 128" fill="none">
  <g id="SkillItemImg">
    <g id="ganache-seeklogo.com 1" clip-path="url(#clip0_362_600)">
      <g id="Group">
        <path id="Vector" d="M107.422 95.8263C108.816 95.8263 109.297 95.5154 109.96 94.4335C110.623 93.3515 110.304 91.5941 110.279 91.1159C110.216 90.0639 109.848 88.8922 109.798 88.3064C109.798 87.9478 109.798 85.6584 109.854 84.7199C110.692 69.8715 117.356 66.3387 119.282 65.9382C120.51 65.5921 121.827 65.6769 122.995 66.1773V43.4624V43.1396V37.1142C122.995 33.8325 120.557 29.7976 117.581 28.1478L68.9034 1.24858C65.9025 -0.413193 61.0072 -0.413193 58.0563 1.23065L9.42847 28.094C6.45878 29.7379 4.02052 33.7727 4.02677 37.0604V42.9304C4.02428 42.9642 4.02428 42.9983 4.02677 43.0321V51.6039C4.30811 51.7534 4.58944 51.9088 4.87078 52.0762C5.81483 52.6739 6.74637 53.0027 7.69667 53.6303C10.4046 55.2081 12.9208 57.0686 15.199 59.1776C15.6429 59.584 17.1246 61.3654 17.4748 61.7838C18.5508 63.2016 19.7604 64.5222 21.0884 65.729C21.8221 66.3686 22.6296 66.9261 23.4954 67.3908C24.9271 68.1021 27.2903 67.9407 28.497 67.4326C37.7624 63.595 43.5767 65.5198 46.2588 67.062C52.8921 70.8698 55.1053 76.1958 55.8118 82.6636C55.9046 83.5013 55.9338 84.3444 55.8993 85.1861C55.8993 86.7224 55.8431 89.1911 57.5374 89.6036C59.9694 90.2013 60.5571 87.7147 60.9197 86.0648C61.7387 82.3288 66.9403 79.878 70.7478 81.761C73.3736 83.0581 74.4489 83.7933 77.0435 82.6994C80.2883 81.3306 81.9638 77.8456 83.0954 75.9926C84.2134 74.1883 85.832 72.7152 87.7719 71.7365C92.836 68.7178 105.565 69.5009 106.028 82.9146C106.028 83.6439 106.028 85.5089 106.028 86.6447C106.028 87.9239 106.071 89.1732 105.984 90.4942C105.928 91.373 105.765 92.2875 105.678 93.1901C105.653 93.1901 105.177 95.8143 107.422 95.8263Z" fill="#E4A663"></path>
        <path id="Vector_2" d="M122.981 66.2012C122.637 66.0996 121.637 65.4719 119.28 65.9621C117.348 66.3626 110.69 69.8954 109.852 84.7438C109.802 85.6583 109.771 87.9477 109.796 88.3303C109.846 88.9281 110.215 90.0877 110.277 91.1398C110.277 91.618 110.659 93.3515 109.958 94.4574C109.258 95.5632 108.814 95.8561 107.42 95.8501C105.176 95.8501 105.651 93.214 105.651 93.214C105.738 92.3234 105.901 91.4207 105.957 90.5181C106.045 89.1971 106.001 87.9477 106.001 86.6685C106.001 85.5328 106.001 83.6797 106.001 82.9385C105.538 69.5248 92.8092 68.7417 87.7451 71.7604C85.8052 72.7391 84.1866 74.2122 83.0687 76.0164C81.937 77.8695 80.2615 81.3544 77.0167 82.7233C74.4222 83.8172 73.3468 83.082 70.721 81.7848C66.9136 79.9019 61.7119 82.3527 60.8929 86.0887C60.5303 87.7385 59.9426 90.2192 57.5106 89.6275C55.8163 89.215 55.8726 86.7463 55.8726 85.21C55.9071 84.3682 55.8778 83.5252 55.7851 82.6874C55.0786 76.2197 52.8654 70.8936 46.2321 67.0859C43.55 65.5437 37.7356 63.6189 28.4702 67.4565C27.2198 67.9646 24.8816 68.126 23.4686 67.4147C22.6028 66.95 21.7953 66.3925 21.0616 65.7529C19.7336 64.546 18.524 63.2255 17.448 61.8077C17.0979 61.3892 15.6162 59.6079 15.1723 59.2014C12.8941 57.0924 10.3778 55.2319 7.66991 53.6542C6.71961 53.0565 5.79432 52.6739 4.84402 52.1C4.56268 51.9327 4.28134 51.7772 4 51.6278V90.823C4 94.1107 6.43827 98.1455 9.41421 99.7894L58.092 126.689C61.068 128.338 65.9383 128.338 68.9142 126.689L117.598 99.8253C120.574 98.1814 123.006 94.1465 123 90.8588L122.981 66.2012Z" fill="#5E464D"></path>
        <path id="Vector_3" d="M69.6832 59.6139C66.3196 61.4729 60.8117 61.4729 57.4481 59.6139L7.66992 34.5079C8.2326 35.0399 58.1483 62.7641 58.1483 62.7641C61.1243 64.4139 65.9945 64.4139 68.9705 62.7641C68.9705 62.7641 118.817 35.1236 119.38 34.5916L69.6832 59.6139Z" fill="white"></path>
        <path id="Vector_4" d="M57.3669 4.8292C60.7367 2.9881 66.2384 2.9881 69.6082 4.83518L75.6414 7.22622C75.0787 6.69422 68.9018 2.86855 68.9018 2.86855C65.9258 1.22471 61.0618 1.21873 58.0859 2.86855C58.0859 2.86855 48.2202 8.40979 47.6638 8.93582L57.3669 4.8292Z" fill="white"></path>
      </g>
    </g>
  </g>
  <defs>
    <clipPath id="clip0_362_600">
      <rect width="119" height="128" fill="white" transform="translate(4)"></rect>
    </clipPath>
  </defs>
</svg>
