<?xml version="1.0" encoding="UTF-8"?>
<svg xmlns="http://www.w3.org/2000/svg" width="128" height="128" viewBox="0 0 128 128" fill="none">
  <g id="SkillItemImg" clip-path="url(#clip0_364_1054)">
    <g id="git-scm-icon 1" clip-path="url(#clip1_364_1054)">
      <path id="Vector" d="M125.584 58.3001L69.7 2.4161C68.9348 1.65051 68.0262 1.0432 67.0263 0.628843C66.0263 0.21449 64.9544 0.0012207 63.872 0.0012207C62.7896 0.0012207 61.7177 0.21449 60.7177 0.628843C59.7178 1.0432 58.8092 1.65051 58.044 2.4161L46.444 14.0161L61.164 28.7361C64.588 27.5361 68.508 28.3561 71.236 31.0841C72.5346 32.385 73.4411 34.025 73.8521 35.8166C74.263 37.6082 74.1618 39.4793 73.56 41.2161L87.748 55.4041C91.18 54.2201 95.14 54.9841 97.88 57.7321C98.7908 58.6432 99.5133 59.7248 100.006 60.9151C100.499 62.1055 100.753 63.3812 100.752 64.6695C100.752 65.9578 100.498 67.2335 100.005 68.4237C99.5119 69.6139 98.7891 70.6953 97.878 71.6061C96.9669 72.517 95.8853 73.2394 94.695 73.7323C93.5046 74.2251 92.2289 74.4787 90.9406 74.4785C89.6523 74.4783 88.3766 74.2244 87.1864 73.7312C85.9962 73.238 84.9148 72.5152 84.004 71.6041C81.124 68.7241 80.412 64.4841 81.868 60.9361L68.636 47.7041V82.5241C69.5965 82.9994 70.4744 83.6261 71.236 84.3801C72.1468 85.2909 72.8694 86.3723 73.3623 87.5624C73.8553 88.7524 74.109 90.028 74.109 91.3161C74.109 92.6042 73.8553 93.8798 73.3623 95.0698C72.8694 96.2599 72.1468 97.3412 71.236 98.2521C70.3252 99.1629 69.2438 99.8855 68.0537 100.378C66.8637 100.871 65.5881 101.125 64.3 101.125C63.0119 101.125 61.7363 100.871 60.5463 100.378C59.3562 99.8855 58.2748 99.1629 57.364 98.2521C56.4521 97.3419 55.7286 96.2607 55.235 95.0705C54.7414 93.8804 54.4873 92.6046 54.4873 91.3161C54.4873 90.0276 54.7414 88.7518 55.235 87.5617C55.7286 86.3715 56.4521 85.2903 57.364 84.3801C58.312 83.4361 59.364 82.7201 60.576 82.2401V47.0961C59.408 46.6161 58.312 45.9081 57.364 44.9561C55.9867 43.5805 55.0503 41.8258 54.6741 39.9159C54.298 38.0059 54.4991 36.0273 55.252 34.2321L40.732 19.7201L2.412 58.0001C1.64581 58.7654 1.03799 59.6742 0.623281 60.6745C0.208574 61.6749 -0.00488281 62.7472 -0.00488281 63.8301C-0.00488281 64.913 0.208574 65.9853 0.623281 66.9857C1.03799 67.986 1.64581 68.8948 2.412 69.6601L58.3 125.54C59.0652 126.306 59.9738 126.913 60.9737 127.327C61.9737 127.742 63.0456 127.955 64.128 127.955C65.2104 127.955 66.2823 127.742 67.2822 127.327C68.2822 126.913 69.1908 126.306 69.956 125.54L125.584 70.0001C126.35 69.2348 126.958 68.326 127.373 67.3257C127.787 66.3253 128.001 65.253 128.001 64.1701C128.001 63.0872 127.787 62.0149 127.373 61.0145C126.958 60.0142 126.35 59.1054 125.584 58.3401" fill="#F03C2E"></path>
    </g>
  </g>
  <defs>
    <clipPath id="clip0_364_1054">
      <rect width="128" height="128" fill="white"></rect>
    </clipPath>
    <clipPath id="clip1_364_1054">
      <rect width="128" height="128" fill="white"></rect>
    </clipPath>
  </defs>
</svg>
