<?xml version="1.0" encoding="UTF-8"?>
<svg xmlns="http://www.w3.org/2000/svg" width="128" height="128" viewBox="0 0 128 128" fill="none">
  <g id="SkillItemImg" clip-path="url(#clip0_364_1047)">
    <g id="github-mark-white 1" clip-path="url(#clip1_364_1047)">
      <path id="Vector" fill-rule="evenodd" clip-rule="evenodd" d="M63.8093 0C28.5244 0 0 29.3333 0 65.6227C0 94.6307 18.2766 119.185 43.631 127.876C46.801 128.529 47.9621 126.464 47.9621 124.727C47.9621 123.205 47.8576 117.991 47.8576 112.557C30.1074 116.469 26.4111 104.735 26.4111 104.735C23.5585 97.1293 19.3319 95.1747 19.3319 95.1747C13.5223 91.1547 19.7551 91.1547 19.7551 91.1547C26.1995 91.5893 29.5811 97.8907 29.5811 97.8907C35.2849 107.885 44.4761 105.061 48.1737 103.323C48.7014 99.0853 50.3928 96.152 52.1887 94.5227C38.0317 93.0013 23.1367 87.352 23.1367 62.1453C23.1367 54.9747 25.6705 49.108 29.6856 44.5453C29.0521 42.916 26.833 36.1787 30.3203 27.1613C30.3203 27.1613 35.7081 25.4227 47.8563 33.8973C53.0574 32.4609 58.4212 31.7302 63.8093 31.724C69.1971 31.724 74.6893 32.4853 79.761 33.8973C91.9105 25.4227 97.2983 27.1613 97.2983 27.1613C100.786 36.1787 98.5652 42.916 97.9318 44.5453C102.053 49.108 104.482 54.9747 104.482 62.1453C104.482 87.352 89.5869 92.892 75.3241 94.5227C77.649 96.5867 79.6552 100.497 79.6552 106.691C79.6552 115.491 79.5507 122.553 79.5507 124.725C79.5507 126.464 80.7131 128.529 83.8818 127.877C109.236 119.184 127.513 94.6307 127.513 65.6227C127.617 29.3333 98.9884 0 63.8093 0Z" fill="white"></path>
    </g>
  </g>
  <defs>
    <clipPath id="clip0_364_1047">
      <rect width="128" height="128" fill="white"></rect>
    </clipPath>
    <clipPath id="clip1_364_1047">
      <rect width="128" height="128" fill="white"></rect>
    </clipPath>
  </defs>
</svg>
