<?xml version="1.0" encoding="UTF-8"?>
<svg xmlns="http://www.w3.org/2000/svg" width="128" height="128" viewBox="0 0 128 128" fill="none">
  <g id="SkillItemImg" clip-path="url(#clip0_364_694)">
    <g id="graphql-icon 1" clip-path="url(#clip1_364_694)">
      <path id="Vector" d="M17.4101 97.5531L12.7168 94.8395L65.0603 4.1814L69.7536 6.895L17.4101 97.5531Z" fill="#E10098"></path>
      <path id="Vector_2" d="M11.6375 87.5947H116.333V93.0219H11.6375V87.5947Z" fill="#E10098"></path>
      <path id="Vector_3" d="M66.0757 120.883L13.7109 90.6497L16.4245 85.9563L68.7893 116.19L66.0757 120.883ZM111.567 42.0779L59.1979 11.8486L61.9115 7.15527L114.276 37.3889L111.567 42.0779Z" fill="#E10098"></path>
      <path id="Vector_4" d="M16.4372 42.0607L13.7236 37.3674L66.1354 7.12524L68.849 11.8186L16.4372 42.0607Z" fill="#E10098"></path>
      <path id="Vector_5" d="M110.603 97.5531L58.2507 6.88645L62.944 4.17285L115.296 94.8395L110.603 97.5531ZM15.7888 33.7665H21.216V94.2337H15.7888V33.7665ZM106.788 33.7665H112.215V94.2337H106.788V33.7665Z" fill="#E10098"></path>
      <path id="Vector_6" d="M65.1541 118.583L62.7861 114.479L108.333 88.1833L110.701 92.2879L65.1541 118.583Z" fill="#E10098"></path>
      <path id="Vector_7" d="M119.405 96.0001C117.889 98.6184 115.397 100.529 112.474 101.314C109.552 102.098 106.438 101.693 103.814 100.186C101.196 98.6695 99.2854 96.1774 98.5009 93.2552C97.7163 90.333 98.1219 87.219 99.6289 84.5953C101.145 81.9769 103.637 80.0662 106.559 79.2817C109.482 78.4971 112.596 78.9027 115.219 80.4097C120.71 83.5798 122.575 90.543 119.401 96.0001M28.3414 43.4091C26.8252 46.0275 24.3331 47.9382 21.4109 48.7228C18.4887 49.5073 15.3747 49.1017 12.751 47.5947C10.1315 46.0785 8.21992 43.5856 7.43533 40.6624C6.65074 37.7392 7.05712 34.6242 8.56539 32.0001C10.0816 29.3817 12.5737 27.471 15.4959 26.6864C18.4181 25.9019 21.5321 26.3075 24.1558 27.8145C26.7742 29.3306 28.6849 31.8228 29.4694 34.745C30.2539 37.6672 29.8483 40.7854 28.3414 43.4091ZM8.59953 96.0001C7.0926 93.3764 6.68698 90.2624 7.47151 87.3402C8.25604 84.418 10.1668 81.9259 12.7851 80.4097C15.4088 78.9027 18.5228 78.4971 21.445 79.2817C24.3672 80.0662 26.8593 81.9769 28.3755 84.5953C29.8825 87.219 30.2881 90.333 29.5035 93.2552C28.719 96.1774 26.8083 98.6695 24.1899 100.186C18.6987 103.322 11.7313 101.461 8.59953 96.0001ZM99.663 43.4134C98.1561 40.7897 97.7505 37.6757 98.535 34.7535C99.3195 31.8313 101.23 29.3392 103.849 27.823C106.472 26.3161 109.586 25.9105 112.509 26.695C115.431 27.4795 117.923 29.3902 119.439 32.0086C120.946 34.6323 121.352 37.7463 120.567 40.6685C119.782 43.5907 117.872 46.0828 115.253 47.599C112.63 49.1059 109.516 49.5115 106.594 48.727C103.671 47.9425 101.179 46.0318 99.663 43.4134ZM64.0022 128C61.7455 128 59.5395 127.331 57.6632 126.077C55.7869 124.823 54.3246 123.041 53.4612 120.956C52.5978 118.871 52.3721 116.577 52.8127 114.364C53.2532 112.15 54.3403 110.117 55.9363 108.522C57.5323 106.927 59.5656 105.84 61.779 105.401C63.9924 104.961 66.2866 105.187 68.3712 106.052C70.4559 106.916 72.2374 108.379 73.4906 110.256C74.7437 112.132 75.4121 114.339 75.4113 116.595C75.4034 119.618 74.1987 122.515 72.0607 124.652C69.9226 126.79 67.0253 127.993 64.0022 128ZM64.0022 22.8182C62.5033 22.8204 61.0187 22.5269 59.6335 21.9543C58.2483 21.3817 56.9896 20.5414 55.9298 19.4816C54.8699 18.4217 54.0296 17.1631 53.457 15.7779C52.8845 14.3926 52.5909 12.908 52.5931 11.4091C52.5931 8.38382 53.7949 5.48243 55.9341 3.34321C58.0734 1.204 60.9748 0.00219727 64.0001 0.00219727C67.0254 0.00219727 69.9268 1.204 72.066 3.34321C74.2052 5.48243 75.407 8.38382 75.407 11.4091C75.4087 12.9073 75.1148 14.3911 74.5423 15.7756C73.9697 17.16 73.1297 18.4179 72.0704 19.4773C71.011 20.5367 69.7531 21.3767 68.3686 21.9492C66.9842 22.5218 65.5004 22.8199 64.0022 22.8182Z" fill="#E10098"></path>
    </g>
  </g>
  <defs>
    <clipPath id="clip0_364_694">
      <rect width="128" height="128" fill="white"></rect>
    </clipPath>
    <clipPath id="clip1_364_694">
      <rect width="128" height="128" fill="white"></rect>
    </clipPath>
  </defs>
</svg>
