<?xml version="1.0" encoding="UTF-8"?>
<svg xmlns="http://www.w3.org/2000/svg" width="128" height="128" viewBox="0 0 128 128" fill="none">
  <g id="SkillItemImg" clip-path="url(#clip0_364_1236)">
    <g id="w3_html5-icon 1" clip-path="url(#clip1_364_1236)">
      <path id="Vector" d="M17.8401 115.208L7.56812 0.00390625H120.432L110.152 115.192L63.9281 128L17.8401 115.208Z" fill="#E44D26"></path>
      <path id="Vector_2" d="M101.348 107.856L110.136 9.42407H64V118.212L101.348 107.856Z" fill="#F16529"></path>
      <path id="Vector_3" d="M63.9521 23.552H28.5681L32.3801 66.28H64.0001V52.152H45.3041L44.0121 37.684H64.0001V23.552H63.9521ZM64.0001 88.8L63.9401 88.816L48.2041 84.568L47.2041 73.3H33.0121L34.9921 95.484L63.9361 103.484L64.0001 103.464V88.8Z" fill="#EBEBEB"></path>
      <path id="Vector_4" d="M63.9521 66.28H81.3521L79.7521 84.6L63.9921 88.852V103.552L92.9601 95.524L96.8401 52.144H64.0001L63.9521 66.28ZM99.0081 27.344L99.3441 23.552H63.9441V37.68H98.0721L98.3521 34.504L99.0081 27.344Z" fill="white"></path>
    </g>
  </g>
  <defs>
    <clipPath id="clip0_364_1236">
      <rect width="128" height="128" fill="white"></rect>
    </clipPath>
    <clipPath id="clip1_364_1236">
      <rect width="128" height="128" fill="white"></rect>
    </clipPath>
  </defs>
</svg>
