<?xml version="1.0" encoding="UTF-8"?>
<svg xmlns="http://www.w3.org/2000/svg" width="150" height="122" viewBox="0 0 150 122" fill="none">
  <path d="M141.577 0C146.208 0 150 3.73998 150 8.30746V122H0V8.30746C0 3.73998 3.79219 0 8.42344 0H141.577Z" fill="#272727"></path>
  <g opacity="0.2">
    <path d="M8.15935 0.251465C3.6733 0.251465 0 3.94975 0 8.46632V15.7349H32.8871L41.7276 0.251465H8.15935Z" fill="white"></path>
  </g>
  <path d="M12.455 10.7667C13.7574 10.7667 14.8133 9.74789 14.8133 8.49113C14.8133 7.23438 13.7574 6.21558 12.455 6.21558C11.1525 6.21558 10.0967 7.23438 10.0967 8.49113C10.0967 9.74789 11.1525 10.7667 12.455 10.7667Z" fill="#999999"></path>
  <path d="M19.5253 10.7667C20.8278 10.7667 21.8836 9.74789 21.8836 8.49113C21.8836 7.23438 20.8278 6.21558 19.5253 6.21558C18.2228 6.21558 17.167 7.23438 17.167 8.49113C17.167 9.74789 18.2228 10.7667 19.5253 10.7667Z" fill="#999999"></path>
  <path d="M26.5956 10.7667C27.8981 10.7667 28.9539 9.74789 28.9539 8.49113C28.9539 7.23438 27.8981 6.21558 26.5956 6.21558C25.2932 6.21558 24.2373 7.23438 24.2373 8.49113C24.2373 9.74789 25.2932 10.7667 26.5956 10.7667Z" fill="#999999"></path>
  <path d="M138.213 7L137.309 7.94433L139.571 10.3266H134V11.668H139.571L137.309 14.0503L138.213 15L142 10.9973L138.213 7Z" fill="white"></path>
  <rect x="44" y="14" width="83" height="1" fill="#D03AFF"></rect>
  <path d="M124 7L121.497 10L119 7H124Z" fill="#999999"></path>
  <path fill-rule="evenodd" clip-rule="evenodd" d="M5 118H147V21H5V118ZM145.826 116.859H6.17355V22.1411H145.826V116.859Z" fill="black"></path>
  <path fill-rule="evenodd" clip-rule="evenodd" d="M3 118H145V21H3V118ZM144.064 117.09H3.93573V21.9105H144.064V117.09Z" fill="#666666"></path>
  <path d="M45.8786 10.9936L44 5H45.0763L46.0547 8.46227L46.42 9.75027C46.433 9.6865 46.5439 9.27205 46.7396 8.51328L47.7115 5H48.7813L49.701 8.47503L50.0076 9.62274L50.3598 8.46227L51.41 5H52.4211L50.5033 10.9936H49.4205L48.4486 7.40383L48.2073 6.38363L46.9679 11H45.8786V10.9936Z" fill="white"></path>
  <path d="M55.3296 10.9936L53.2632 5H54.4471L55.5234 8.46227L55.9252 9.75027C55.9395 9.6865 56.0615 9.27205 56.2768 8.51328L57.3459 5H58.5226L59.5343 8.47503L59.8715 9.62274L60.259 8.46227L61.4142 5H62.5263L60.4168 10.9936H59.2258L58.1567 7.40383L57.8912 6.38363L56.5279 11H55.3296V10.9936Z" fill="white"></path>
  <path d="M66.0892 10.9936L64.2106 5H65.2868L66.2653 8.46227L66.6306 9.75027C66.6436 9.6865 66.7545 9.27205 66.9502 8.51328L67.9221 5H68.9919L69.9116 8.47503L70.2182 9.62274L70.5704 8.46227L71.6206 5H72.6316L70.7139 10.9936H69.6311L68.6592 7.40383L68.4178 6.38363L67.1785 11H66.0892V10.9936Z" fill="white"></path>
  <path d="M74.3158 10.9999V9.28564H76V10.9999H74.3158Z" fill="white"></path>
  <path fill-rule="evenodd" clip-rule="evenodd" d="M59.5604 92.8321C59.5604 89.431 62.3753 86.6643 65.8357 86.6643C69.2961 86.6643 72.1109 89.4317 72.1109 92.8321C72.1109 96.2325 69.2961 98.9999 65.8357 98.9999C62.3754 98.9999 59.5604 96.2333 59.5604 92.8321ZM63.4024 92.8328C63.4024 94.152 64.4941 95.2244 65.8357 95.2244C67.1779 95.2244 68.2689 94.152 68.2689 92.8328C68.2689 91.5135 67.1779 90.4411 65.8357 90.4411C64.4941 90.4411 63.4024 91.5135 63.4024 92.8328Z" fill="#D03AFF"></path>
  <path fill-rule="evenodd" clip-rule="evenodd" d="M82.3562 92.8321C82.3562 89.4311 85.1711 86.6643 88.6321 86.6643C92.0919 86.6643 94.9073 89.4311 94.9073 92.8321C94.9073 96.2332 92.0919 98.9999 88.6321 98.9999C85.1712 98.9999 82.3562 96.2333 82.3562 92.8321ZM86.1982 92.8321C86.1982 94.1507 87.2899 95.2237 88.6321 95.2237C89.9743 95.2237 91.0654 94.1513 91.0654 92.8321C91.0654 91.5129 89.9736 90.4411 88.6321 90.4411C87.2899 90.4411 86.1982 91.5135 86.1982 92.8321Z" fill="#D03AFF"></path>
  <path d="M63.0822 84.7768H92.9858C94.0474 84.7768 94.9068 83.9316 94.9068 82.8887C94.9068 81.8458 94.0468 81.0006 92.9858 81.0006H64.7157L59.2158 47.8434C59.084 47.0491 58.4551 46.4249 57.649 46.287L50.2851 45.0283C49.2368 44.8495 48.245 45.5375 48.0631 46.5645C47.8806 47.5923 48.5812 48.5697 49.6261 48.7485L55.6433 49.7769L61.186 83.192C61.3379 84.1065 62.1402 84.7768 63.0822 84.7768Z" fill="#D03AFF"></path>
  <path d="M99.6307 57.7904C99.2687 57.2936 98.6922 57 98.0778 57H59V60.8461H95.4416L91.4883 73.1539H61.7547V77H92.8894C93.7234 77 94.4634 76.4602 94.719 75.6654L99.9081 59.5114C100.096 58.9263 99.9926 58.2866 99.6307 57.7904Z" fill="#D03AFF"></path>
</svg>
