<?xml version="1.0" encoding="UTF-8"?>
<svg xmlns="http://www.w3.org/2000/svg" width="128" height="128" viewBox="0 0 128 128" fill="none">
  <g id="SkillItemImg" clip-path="url(#clip0_362_539)">
    <g id="jest-seeklogo.com 1" clip-path="url(#clip1_362_539)">
      <g id="Group">
        <path id="Vector" d="M119.986 62.961C119.986 56.3873 114.095 51.0584 106.828 51.0584C106.361 51.0584 105.9 51.081 105.445 51.124L123.518 2.90686H46.7158L64.7628 51.0824C64.4983 51.0679 64.2323 51.0584 63.9633 51.0584C56.6963 51.0584 50.8053 56.3873 50.8053 62.961C50.8053 68.2746 54.6548 72.7732 59.9683 74.3037C57.1618 78.701 53.6308 82.6613 49.6218 86.0824C44.1703 90.7348 37.9313 94.2622 31.1838 96.436C23.1498 92.7027 19.3558 84.3994 22.7793 77.1197C23.1658 76.2979 23.5603 75.4643 23.9378 74.6348C29.7578 73.4059 34.0948 68.6857 34.0948 63.0465C34.0948 56.4728 28.2038 51.1439 20.9368 51.1439C13.6693 51.1439 7.77826 56.4728 7.77826 63.0465C7.77826 67.0778 9.99576 70.6379 13.3848 72.7912C10.1278 79.4993 5.34076 86.5189 3.84926 94.6548C2.06176 104.406 3.84376 114.756 13.1663 120.601C34.8783 134.214 58.4463 112.163 83.2958 106.619C92.3013 104.61 102.187 104.934 110.121 100.777C116.08 97.6554 120.008 92.482 121.123 86.6736C122.224 80.9358 120.618 75.2228 116.926 70.5904C118.836 68.5243 119.986 65.8648 119.986 62.961ZM77.1203 63.0031C77.1203 62.9891 77.1218 62.975 77.1218 62.961C77.1218 58.6443 74.5808 54.864 70.7788 52.7776L85.1428 26.5032L99.5318 53.0562C95.9983 55.1901 93.6698 58.8293 93.6698 62.961C93.6698 63.0479 93.6753 63.1333 93.6773 63.2197L77.1203 63.0031Z" fill="#C63D14"></path>
        <path id="Vector_2" d="M123.2 62.9611C123.2 55.7311 117.441 49.6984 109.856 48.4098L128 0H42.233L60.405 48.5079C53.0835 49.982 47.5915 55.9007 47.5915 62.9611C47.5915 68.2634 50.689 72.9207 55.3315 75.5376C53.0985 78.5468 50.4505 81.3786 47.416 83.968C42.604 88.0749 37.2425 91.1894 31.4625 93.2383C25.641 89.9302 23.18 83.6921 25.736 78.2573L25.936 77.8321C26.061 77.5662 26.1865 77.2993 26.3115 77.0325C32.7055 75.0157 37.308 69.5099 37.308 63.0466C37.308 54.8803 29.9635 48.237 20.936 48.237C11.9085 48.237 4.56452 54.8803 4.56452 63.0466C4.56452 67.1683 6.43702 70.9007 9.45102 73.5882C8.90452 74.6421 8.33002 75.7131 7.73952 76.8104C4.98352 81.9309 1.86002 87.7347 0.678518 94.1795C-1.66798 106.979 2.11652 117.211 11.335 122.99C16.929 126.497 22.6095 127.877 28.326 127.877C39.0905 127.876 49.979 122.984 60.629 118.199C68.2995 114.753 76.2305 111.189 84.065 109.442C86.98 108.791 89.9795 108.4 93.155 107.986C99.452 107.164 105.964 106.315 111.732 103.293C118.418 99.7898 122.995 93.9136 124.289 87.1712C125.4 81.3831 124.062 75.5865 120.801 70.67C122.322 68.423 123.2 65.7834 123.2 62.9611ZM116.773 62.9611C116.773 67.9214 112.312 71.9573 106.828 71.9573C101.345 71.9573 96.883 67.9214 96.883 62.9611C96.883 58.0007 101.345 53.9653 106.828 53.9653C112.312 53.9653 116.773 58.0007 116.773 62.9611ZM119.035 5.81382L103.012 48.5618C102.318 48.7124 101.641 48.9023 100.983 49.1307L85.155 19.9223L69.281 48.958C68.595 48.744 67.889 48.5681 67.165 48.4378L51.1975 5.81382H119.035ZM63.963 53.9653C69.4465 53.9653 73.9075 58.0007 73.9075 62.9611C73.9075 67.9214 69.4465 71.9573 63.963 71.9573C58.48 71.9573 54.0185 67.9214 54.0185 62.9611C54.0185 58.0007 58.48 53.9653 63.963 53.9653ZM20.936 54.0508C26.42 54.0508 30.881 58.0862 30.881 63.0466C30.881 68.0069 26.42 72.0427 20.936 72.0427C15.453 72.0427 10.9915 68.0069 10.9915 63.0466C10.9915 58.0862 15.453 54.0508 20.936 54.0508ZM117.956 86.1766C116.989 91.2188 113.546 95.6237 108.511 98.2615C103.817 100.721 98.1925 101.455 92.2375 102.231C89.0475 102.647 85.7485 103.078 82.526 103.797C74.005 105.698 65.7515 109.406 57.77 112.992C41.7975 120.169 28.003 126.366 14.9965 118.212C5.46902 112.239 5.90902 101.187 7.01902 95.1307C8.04752 89.5199 10.8285 84.3525 13.518 79.355C13.9835 78.4902 14.4355 77.6431 14.879 76.8014C16.213 77.284 17.6315 77.6128 19.11 77.762C16.3725 85.9355 20.678 94.8222 29.7145 99.0218L30.951 99.5967L32.261 99.1747C39.405 96.8734 45.9875 93.1799 51.8265 88.197C55.601 84.9762 58.8445 81.4125 61.5115 77.6046C62.3115 77.7136 63.13 77.7711 63.963 77.7711C72.9905 77.7711 80.335 71.1277 80.335 62.9611C80.335 58.5693 78.2085 54.6198 74.8405 51.9051L85.1295 33.0842L95.523 52.2638C92.4045 54.9622 90.456 58.7583 90.456 62.9611C90.456 71.1277 97.8 77.7711 106.828 77.7711C110.296 77.7711 113.514 76.7878 116.164 75.117C118.004 78.5242 118.689 82.3578 117.956 86.1766Z" fill="white"></path>
      </g>
    </g>
  </g>
  <defs>
    <clipPath id="clip0_362_539">
      <rect width="128" height="128" fill="white"></rect>
    </clipPath>
    <clipPath id="clip1_362_539">
      <rect width="128" height="128" fill="white"></rect>
    </clipPath>
  </defs>
</svg>
