<?xml version="1.0" encoding="UTF-8"?>
<svg xmlns="http://www.w3.org/2000/svg" width="128" height="128" viewBox="0 0 128 128" fill="none">
  <g id="SkillItemImg">
    <g id="Group">
      <g id="Group 2">
        <path id="Polygon" fill-rule="evenodd" clip-rule="evenodd" d="M63.9357 9V119L16 91.5L16 36.5L63.9357 9Z" fill="#172C45"></path>
        <path id="Polygon Copy" fill-rule="evenodd" clip-rule="evenodd" d="M63.9357 9V119L111.871 91.5L111.871 36.5L63.9357 9Z" fill="#193657"></path>
      </g>
      <g id="jquery-icon">
        <path id="Shape" fill-rule="evenodd" clip-rule="evenodd" d="M66.7362 50.1314C65.2923 46.768 65.499 42.9999 67.5771 39.9399L69.1347 37.8057C66.2572 42.9759 68.9969 49.3428 73.4062 52.6702C74.1816 53.2532 75.0133 53.758 75.8892 54.1771C76.3507 54.3965 76.8235 54.5917 77.3056 54.7617C77.6812 54.8937 78.1085 55.0342 78.4979 55.1285C83.4259 56.3182 87.4424 55.4971 89.8323 52.0737C89.7584 52.1793 89.6638 52.347 89.5431 52.5611C88.4746 54.4566 85.3566 59.9877 76.3182 58.2502L75.6686 58.0788L75.4688 58.0171L75.0173 57.8457C71.3765 56.5017 68.2577 53.7022 66.7362 50.1314ZM54.8401 44.3319C51.3112 49.3839 51.5025 56.1605 54.2542 61.4885C54.7153 62.3865 55.2369 63.2525 55.8154 64.0805C55.8771 64.1685 55.9396 64.2585 56.0029 64.3497C56.4826 65.0401 57.012 65.802 57.6315 66.3365C57.8865 66.6159 58.1518 66.8851 58.4241 67.1542L58.6309 67.3599C58.8942 67.6155 59.1637 67.8647 59.439 68.1074C59.4444 68.1112 59.449 68.1157 59.4538 68.1203C59.4597 68.126 59.4658 68.1318 59.4734 68.1365C59.6557 68.2959 59.8391 68.4438 60.0241 68.5928L60.0242 68.5929L60.0243 68.593C60.1575 68.7003 60.2914 68.8083 60.4263 68.9217L60.64 69.0879C60.9632 69.336 61.293 69.5755 61.629 69.8062L61.6583 69.8268C61.7587 69.8965 61.8606 69.9622 61.9631 70.0283C62.0119 70.0597 62.0608 70.0913 62.1098 70.1234C62.1412 70.1435 62.1721 70.1643 62.2028 70.185C62.2427 70.2119 62.2825 70.2388 62.3234 70.264C62.5643 70.4177 62.8085 70.5663 63.0557 70.7097L63.1591 70.7697L63.807 71.1125C63.8387 71.1305 63.8741 71.1472 63.9088 71.1636L63.9089 71.1637C63.957 71.1864 64.0038 71.2086 64.0379 71.2325L64.491 71.4657C64.5052 71.4732 64.52 71.4794 64.5346 71.4856L64.5346 71.4856C64.5432 71.4892 64.5517 71.4927 64.56 71.4965C64.8708 71.6505 65.1856 71.7963 65.5042 71.9337L65.711 72.0194C65.9676 72.1278 66.2261 72.2318 66.4864 72.3314L66.8172 72.4514C67.0531 72.5367 67.2904 72.6184 67.5288 72.6965L67.851 72.7994C67.9481 72.8288 68.0459 72.861 68.1441 72.8933C68.3896 72.974 68.6373 73.0555 68.8797 73.0959C87.0978 76.0994 91.3038 62.1245 91.3038 62.1245C87.5131 67.5588 80.1728 70.1474 72.3362 68.1245C71.9898 68.0338 71.6457 67.935 71.3041 67.8279C71.2007 67.7971 71.0973 67.7628 70.9939 67.7285L70.2702 67.4817L69.9256 67.3617C69.6655 67.2618 69.407 67.1578 69.1502 67.0497L68.94 66.9639C68.6195 66.8253 68.3023 66.679 67.9889 66.5251L67.5116 66.2851L67.2359 66.1445C67.0332 66.035 66.8321 65.9224 66.6328 65.8068L66.4881 65.7262C66.2416 65.5826 65.998 65.434 65.7575 65.2805C65.7146 65.2537 65.6723 65.2252 65.63 65.1967L65.6299 65.1966L65.6297 65.1965C65.5989 65.1757 65.5681 65.155 65.537 65.1348L65.0631 64.8228C64.7294 64.5927 64.4019 64.3537 64.081 64.1062L63.857 63.9348C60.4108 61.24 57.709 57.5577 56.4167 53.3851C55.0624 49.0565 55.3536 44.1965 57.7004 40.2537L54.8401 44.3319ZM39.6942 50.2085C34.8179 57.1857 35.421 66.2611 39.1498 73.6942C39.2145 73.8282 39.2841 73.9603 39.3535 74.0918C39.3764 74.1353 39.3993 74.1788 39.422 74.2222L39.5943 74.5565C39.6191 74.6034 39.6457 74.6495 39.6722 74.6953L39.7029 74.7485C39.7449 74.8276 39.7877 74.9023 39.8307 74.9773L39.8308 74.9775C39.853 75.0163 39.8753 75.0551 39.8976 75.0948L40.2542 75.7017L40.4576 76.0342L40.8711 76.6771L41.0469 76.9479C41.2416 77.236 41.4397 77.5239 41.6448 77.8051L41.7619 77.9628C41.9396 78.2057 42.1211 78.4457 42.3064 78.6828L42.5132 78.9434L43.0163 79.5605L43.2093 79.7902C43.4385 80.0594 43.6746 80.3268 43.9106 80.5874C43.9196 80.597 43.9267 80.6042 43.9324 80.61C43.942 80.6197 43.9476 80.6255 43.952 80.632C44.1861 80.8846 44.4239 81.1337 44.6653 81.3794L44.8945 81.6091L45.4631 82.1645L45.6957 82.3874C45.9516 82.6275 46.2118 82.8629 46.4763 83.0937L47.3309 83.8137L47.6238 84.0468L48.2149 84.5062L48.5302 84.7462L49.1936 85.2194L49.5037 85.4371C49.7157 85.5828 49.931 85.7217 50.1482 85.8605L50.4273 86.0457C50.7599 86.2557 51.0959 86.4603 51.4353 86.6594L51.7144 86.8308L52.4726 87.2525C52.5905 87.3156 52.7109 87.3761 52.8307 87.4363L52.8308 87.4364L52.8913 87.4668L53.4323 87.7462L53.5581 87.8062L53.7821 87.9125L54.6402 88.3068L54.8211 88.3874C55.1524 88.5309 55.4861 88.6687 55.8222 88.8005L56.0635 88.8965L57.0077 89.2445L57.1283 89.2857C57.477 89.4051 57.8274 89.5194 58.1794 89.6285L58.4344 89.7039C58.4988 89.7241 58.5642 89.7451 58.6303 89.7664L58.6305 89.7665C58.9182 89.859 59.2202 89.9561 59.52 90.0091C83.1158 94.2897 89.9667 75.9005 89.9667 75.9005C84.2117 83.3611 73.9938 85.3291 64.2929 83.1382C63.9875 83.0698 63.6893 82.9799 63.3923 82.8905C63.3642 82.882 63.3362 82.8736 63.3081 82.8651C63.2763 82.8556 63.2444 82.846 63.2125 82.8365L62.9437 82.7559C62.5949 82.6493 62.2479 82.5367 61.903 82.4182L61.76 82.3668C61.4529 82.2584 61.1473 82.1458 60.8433 82.0291L60.5848 81.9262C60.2518 81.7959 59.9214 81.6587 59.5941 81.5148L59.3959 81.4291L58.5602 81.0417L58.319 80.9268C58.1019 80.824 57.8882 80.7091 57.6728 80.584L57.2421 80.3611C57.012 80.2406 56.7872 80.1122 56.5608 79.9828L56.5606 79.9827L56.4667 79.9291L56.2048 79.7834C55.8655 79.5841 55.5295 79.3795 55.1968 79.1697C55.1406 79.1338 55.0851 79.0966 55.0294 79.0594C54.9945 79.0361 54.9597 79.0127 54.9245 78.9897L54.2077 78.5148L54.1794 78.4965C54.1071 78.4498 54.0286 78.3991 53.9768 78.3537L53.2979 77.8651L52.9964 77.6388L52.3847 77.1622L52.1125 76.9445L51.3509 76.3051C51.3232 76.281 51.2944 76.2581 51.2647 76.2365L50.4635 75.5114L50.2395 75.2954L49.6674 74.7297L49.4434 74.5068C49.2022 74.2617 48.9678 74.0148 48.7542 73.7628C48.7421 73.7508 48.7301 73.7388 48.7197 73.7251C48.4758 73.4587 48.2368 73.1878 48.0029 72.9125L47.8306 72.6897L47.3137 72.0554L47.1414 71.8205L46.5452 71.0319C41.1382 63.7428 39.2049 53.6662 43.5022 45.4034L39.6942 50.2085Z" fill="white"></path>
      </g>
    </g>
  </g>
</svg>
