<?xml version="1.0" encoding="UTF-8"?>
<svg xmlns="http://www.w3.org/2000/svg" width="128" height="128" viewBox="0 0 128 128" fill="none">
  <g id="SkillItemImg" clip-path="url(#clip0_362_609)">
    <g id="MetaMask_Fox 1">
      <path id="Vector" d="M115.328 8.49097L69.1072 42.8199L77.6546 22.5663L115.328 8.49097Z" fill="#E2761B" stroke="#E2761B" stroke-linecap="round" stroke-linejoin="round"></path>
      <path id="Vector_2" d="M8.62515 8.49097L54.4745 43.1451L46.3452 22.5663L8.62515 8.49097ZM98.6979 88.0653L86.3878 106.925L112.727 114.172L120.299 88.4834L98.6979 88.0653ZM3.74756 88.4834L11.273 114.172L37.612 106.925L25.3019 88.0653L3.74756 88.4834Z" fill="#E4761B" stroke="#E4761B" stroke-linecap="round" stroke-linejoin="round"></path>
      <path id="Vector_3" d="M36.1255 56.1983L28.7859 67.3006L54.939 68.462L54.01 40.3578L36.1255 56.1983ZM87.8279 56.1983L69.7112 40.0326L69.1073 68.462L95.214 67.3006L87.8279 56.1983ZM37.612 106.925L53.3132 99.2605L39.7488 88.6691L37.612 106.925ZM70.6402 99.2605L86.3879 106.925L84.2046 88.6691L70.6402 99.2605Z" fill="#E4761B" stroke="#E4761B" stroke-linecap="round" stroke-linejoin="round"></path>
      <path id="Vector_4" d="M86.388 106.925L70.6403 99.2605L71.8945 109.527L71.7552 113.847L86.388 106.925ZM37.6121 106.925L52.2448 113.847L52.1519 109.527L53.3133 99.2605L37.6121 106.925Z" fill="#D7C1B3" stroke="#D7C1B3" stroke-linecap="round" stroke-linejoin="round"></path>
      <path id="Vector_5" d="M52.477 81.8871L39.3772 78.0314L48.6214 73.8042L52.477 81.8871ZM71.4764 81.8871L75.332 73.8042L84.6227 78.0314L71.4764 81.8871Z" fill="#233447" stroke="#233447" stroke-linecap="round" stroke-linejoin="round"></path>
      <path id="Vector_6" d="M37.6121 106.925L39.8419 88.0653L25.302 88.4833L37.6121 106.925ZM84.1582 88.0653L86.388 106.925L98.6981 88.4833L84.1582 88.0653ZM95.2141 67.3007L69.1074 68.462L71.523 81.887L75.3786 73.8041L84.6692 78.0314L95.2141 67.3007ZM39.3773 78.0314L48.668 73.8041L52.4771 81.887L54.9392 68.462L28.786 67.3007L39.3773 78.0314Z" fill="#CD6116" stroke="#CD6116" stroke-linecap="round" stroke-linejoin="round"></path>
      <path id="Vector_7" d="M28.7859 67.3007L39.7488 88.6692L39.3772 78.0314L28.7859 67.3007ZM84.6691 78.0314L84.2046 88.6692L95.214 67.3007L84.6691 78.0314ZM54.939 68.462L52.477 81.887L55.5429 97.7275L56.2397 76.87L54.939 68.462ZM69.1073 68.462L67.853 76.8236L68.4105 97.7275L71.5228 81.887L69.1073 68.462Z" fill="#E4751F" stroke="#E4751F" stroke-linecap="round" stroke-linejoin="round"></path>
      <path id="Vector_8" d="M71.5228 81.887L68.4105 97.7276L70.6402 99.2605L84.2046 88.6692L84.6691 78.0314L71.5228 81.887ZM39.3772 78.0314L39.7488 88.6692L53.3132 99.2605L55.5429 97.7276L52.477 81.887L39.3772 78.0314Z" fill="#F6851B" stroke="#F6851B" stroke-linecap="round" stroke-linejoin="round"></path>
      <path id="Vector_9" d="M71.7552 113.847L71.8945 109.527L70.7332 108.505H53.2203L52.1519 109.527L52.2448 113.847L37.6121 106.925L42.7219 111.106L53.081 118.306H70.8726L81.2781 111.106L86.388 106.925L71.7552 113.847Z" fill="#C0AD9E" stroke="#C0AD9E" stroke-linecap="round" stroke-linejoin="round"></path>
      <path id="Vector_10" d="M70.6402 99.2606L68.4105 97.7277H55.5429L53.3132 99.2606L52.1519 109.527L53.2203 108.505H70.7331L71.8945 109.527L70.6402 99.2606Z" fill="#161616" stroke="#161616" stroke-linecap="round" stroke-linejoin="round"></path>
      <path id="Vector_11" d="M117.279 45.0496L121.228 26.0967L115.328 8.49097L70.6404 41.6586L87.8281 56.1984L112.123 63.3058L117.512 57.0346L115.189 55.3623L118.905 51.9712L116.025 49.7414L119.741 46.9078L117.279 45.0496ZM2.77222 26.0967L6.72074 45.0496L4.21227 46.9078L7.92853 49.7414L5.09488 51.9712L8.81114 55.3623L6.48848 57.0346L11.8306 63.3058L36.1256 56.1984L53.3133 41.6586L8.62533 8.49097L2.77222 26.0967Z" fill="#763D16" stroke="#763D16" stroke-linecap="round" stroke-linejoin="round"></path>
      <path id="Vector_12" d="M112.123 63.3056L87.8279 56.1983L95.2139 67.3006L84.2045 88.669L98.6979 88.4832H120.299L112.123 63.3056ZM36.1255 56.1983L11.8304 63.3056L3.74756 88.4832H25.3019L39.7488 88.669L28.7858 67.3006L36.1255 56.1983ZM69.1072 68.4619L70.6402 41.6584L77.7011 22.5662H46.3452L53.3131 41.6584L54.939 68.4619L55.4964 76.9164L55.5429 97.7274H68.4104L68.5033 76.9164L69.1072 68.4619Z" fill="#F6851B" stroke="#F6851B" stroke-linecap="round" stroke-linejoin="round"></path>
    </g>
  </g>
  <defs>
    <clipPath id="clip0_362_609">
      <rect width="128" height="128" fill="white"></rect>
    </clipPath>
  </defs>
</svg>
