<?xml version="1.0" encoding="UTF-8"?>
<svg xmlns="http://www.w3.org/2000/svg" width="128" height="128" viewBox="0 0 128 128" fill="none">
  <g id="SkillItemImg" clip-path="url(#clip0_362_569)">
    <g id="371088 1" clip-path="url(#clip1_362_569)">
      <g id="Group">
        <path id="Vector" d="M128 118.197V9.80327C128 5.35662 125.039 1.60382 120.981 0.403564L116.374 3.16047L65.2416 57.679L63.6385 62.6896L62.7019 67.4991L78.6467 127.089L81.1138 128H118.197C123.611 128 128 123.611 128 118.197Z" fill="#EA6618"></path>
        <path id="Vector_2" d="M0 9.80317V118.197C0 121.549 1.6833 124.506 4.24957 126.274L7.39369 124.769L61.5167 66.8218L63.6385 62.6895L63.7178 58.6948L48.9876 2.65244L46.7571 0H9.80317C4.38908 0 0 4.38908 0 9.80317Z" fill="#D65813"></path>
        <path id="Vector_3" d="M63.6384 62.6896L120.981 0.403762C120.098 0.142514 119.164 0.00012207 118.197 0.00012207H46.7571L63.6384 62.6896Z" fill="#E05E11"></path>
        <path id="Vector_4" d="M9.80312 128H81.1137L63.6383 62.6896L4.24951 126.274C5.82835 127.362 7.7409 128 9.80312 128Z" fill="#DE5C16"></path>
        <path id="Vector_5" d="M47.4591 48.5147H54.5718C57.4056 59.2079 60.631 68.5912 64.2293 77.0575C68.3054 67.5321 71.293 58.1426 73.8221 48.5147H80.5429C77.5329 60.4778 72.6091 72.5346 66.9771 84.9796H61.0322C55.6224 73.1863 51.0167 61.0612 47.4591 48.5147ZM23.9992 29.9873H39.8145V97.806H23.9294V92.5781H33.6649V35.0758H23.9992V29.9873ZM104.083 35.0759H94.4176V92.5782H104.153V97.806H88.2682V29.9874H104.083V35.0759Z" fill="white"></path>
      </g>
    </g>
  </g>
  <defs>
    <clipPath id="clip0_362_569">
      <rect width="128" height="128" fill="white"></rect>
    </clipPath>
    <clipPath id="clip1_362_569">
      <rect width="128" height="128" fill="white"></rect>
    </clipPath>
  </defs>
</svg>
