<?xml version="1.0" encoding="UTF-8"?>
<svg xmlns="http://www.w3.org/2000/svg" width="128" height="128" viewBox="0 0 128 128" fill="none">
  <g id="SkillItemImg" clip-path="url(#clip0_364_743)">
    <g id="modx-icon 1">
      <g id="Group">
        <path id="Vector" d="M99.9736 53.4735L125.667 12.3669H63.8645L55.3252 26.0662L99.9736 53.4735Z" fill="url(#paint0_linear_364_743)"></path>
        <path id="Vector_2" opacity="0.15" d="M55.3303 26.0661L59.7032 19.04L99.9782 53.4782L55.3303 26.0661Z" fill="black"></path>
        <path id="Vector_3" d="M113.564 128V66.2031L100.232 57.8694L72.1956 102.153L113.564 128Z" fill="url(#paint1_linear_364_743)"></path>
        <path id="Vector_4" opacity="0.15" d="M72.1956 102.15L79.122 106.474L100.232 57.8684L72.1956 102.15Z" fill="black"></path>
        <path id="Vector_5" d="M14.0256 0V61.7978L28.3242 70.1305L99.9636 53.4656L14.0256 0Z" fill="url(#paint2_linear_364_743)"></path>
        <path id="Vector_6" d="M28.0253 74.8431L2.33301 115.253H64.1308L100.237 57.8694L28.0253 74.8431Z" fill="url(#paint3_linear_364_743)"></path>
      </g>
    </g>
  </g>
  <defs>
    <linearGradient id="paint0_linear_364_743" x1="115.19" y1="64.0724" x2="69.3532" y2="-23.3264" gradientUnits="userSpaceOnUse">
      <stop stop-color="#80C3E6"></stop>
      <stop offset="1" stop-color="#3380C2"></stop>
    </linearGradient>
    <linearGradient id="paint1_linear_364_743" x1="123.233" y1="96.8467" x2="88.97" y2="88.9738" gradientUnits="userSpaceOnUse">
      <stop stop-color="#F38649"></stop>
      <stop offset="0.1849" stop-color="#F28147"></stop>
      <stop offset="0.4091" stop-color="#EF7242"></stop>
      <stop offset="0.6537" stop-color="#EA5A3A"></stop>
      <stop offset="0.911" stop-color="#E4382E"></stop>
      <stop offset="1" stop-color="#E12A29"></stop>
    </linearGradient>
    <linearGradient id="paint2_linear_364_743" x1="10.3343" y1="66.1628" x2="75.8853" y2="4.65502" gradientUnits="userSpaceOnUse">
      <stop stop-color="#42AB4A"></stop>
      <stop offset="1" stop-color="#ADD155"></stop>
    </linearGradient>
    <linearGradient id="paint3_linear_364_743" x1="24.646" y1="210.663" x2="77.927" y2="-37.5391" gradientUnits="userSpaceOnUse">
      <stop stop-color="#42AB4A"></stop>
      <stop offset="1" stop-color="#ADD155"></stop>
    </linearGradient>
    <clipPath id="clip0_364_743">
      <rect width="128" height="128" fill="white"></rect>
    </clipPath>
  </defs>
</svg>
