<?xml version="1.0" encoding="UTF-8"?>
<svg xmlns="http://www.w3.org/2000/svg" width="128" height="128" viewBox="0 0 128 128" fill="none">
  <g id="SkillItemImg" clip-path="url(#clip0_364_731)">
    <g id="nestjs-icon 1" clip-path="url(#clip1_364_731)">
      <path id="Vector" fill-rule="evenodd" clip-rule="evenodd" d="M75.3652 0.249475C74.443 0.249475 73.5812 0.446014 72.7951 0.703027C74.4808 1.83691 75.403 3.31095 75.8717 4.99666C75.9019 5.22343 75.9699 5.38973 76.0002 5.62407C76.0304 5.8584 76.0758 6.01715 76.0758 6.22881C76.2118 9.1391 75.3199 9.50194 74.6849 11.2179C73.7249 13.4327 73.9894 15.8139 75.1384 17.7188C75.2436 17.9738 75.3754 18.217 75.5315 18.4445C74.2767 10.084 81.2538 8.82161 82.5389 6.21369C82.6372 3.93081 80.7549 2.41141 79.2658 1.35312C77.8446 0.49137 76.5444 0.219238 75.3652 0.219238V0.249475ZM85.8725 2.13928C85.7364 2.8952 85.8423 2.69866 85.7969 3.09929L85.7213 3.96104L85.4945 4.75476C85.419 5.01933 85.3282 5.28391 85.23 5.54848L84.8671 6.3044C84.7689 6.44046 84.7008 6.56897 84.6026 6.69748L84.406 6.99984L83.9071 7.6575C83.7106 7.85403 83.5443 8.08837 83.3024 8.26223C83.0605 8.43609 82.9093 8.65531 82.675 8.82161C81.9795 9.35076 81.1858 9.74384 80.4601 10.2427C80.2333 10.409 80.0066 10.5451 79.8025 10.7417C79.5787 10.8999 79.3688 11.077 79.175 11.2708C78.9483 11.4673 78.782 11.6639 78.5703 11.8982C78.3587 12.1325 78.2075 12.3291 78.0714 12.5559L77.6179 13.2513L77.255 14.0072L76.9904 14.7631L76.7637 15.5947C76.7334 15.7307 76.7334 15.897 76.6881 16.0255C76.6427 16.154 76.6578 16.2901 76.6125 16.4186L76.5822 17.2501C76.5822 17.4467 76.5822 17.6432 76.6125 17.8549C76.6125 18.1194 76.6427 18.384 76.7107 18.6864C76.7788 18.9887 76.809 19.2155 76.8771 19.4801L77.1416 20.2738C77.2172 20.4401 77.3079 20.6064 77.3684 20.7274L69.7638 17.7793L65.9313 16.7966L63.845 16.2977C61.8553 15.9011 59.8471 15.6034 57.8279 15.4057C57.7523 15.4057 57.7296 15.3754 57.6616 15.3754L51.7427 15.0731L47.4113 15.2394C45.393 15.3754 43.3747 15.6325 41.3639 15.9651L39.8748 16.2296L36.8964 16.8873L35.4073 17.2804L33.9861 17.9078L32.8976 18.4067C32.822 18.4369 32.7615 18.4369 32.7313 18.4823L31.8091 18.9358C31.7108 18.9661 31.6428 19.0114 31.5823 19.0341L30.5543 19.5632C30.3275 19.6615 30.1007 19.79 29.8966 19.8958C29.7983 19.9714 29.6698 20.0244 29.5942 20.0621L28.7325 20.5611C28.4587 20.7123 28.1937 20.8789 27.9388 21.06L27.2811 21.5135L26.5554 22.0427L25.9961 22.4962C25.9205 22.5264 25.86 22.5945 25.7995 22.6323L25.3006 23.0632C25.2704 23.1387 25.2023 23.1614 25.1645 23.1992L24.5598 23.7586L23.9022 24.386L23.3428 24.9907C23.2672 25.0663 23.1765 25.1268 23.116 25.1873C22.9384 25.3945 22.7517 25.5937 22.5566 25.7845C22.5264 25.8601 22.4583 25.8827 22.4206 25.9508L21.6646 26.7445L19.8807 28.4604C19.2759 28.9896 18.6561 29.4885 18.0287 29.9118L16.0481 31.1666C15.3905 31.5295 14.6875 31.8621 13.9618 32.1493C13.2593 32.4481 12.5429 32.713 11.815 32.943C10.4241 33.2454 9.00296 33.8048 7.77837 33.9031C7.5138 33.9031 7.21899 33.9786 6.94686 34.0013L6.11535 34.1979L5.32163 34.5002C5.051 34.6075 4.78607 34.7286 4.52792 34.8631C4.30114 35.0294 4.02901 35.1654 3.80223 35.3166C3.57546 35.4678 3.34868 35.6795 3.14458 35.876C2.94048 36.0725 2.69103 36.2691 2.48693 36.4807L1.92755 37.1384C1.76125 37.403 1.56471 37.6373 1.42864 37.8943C1.25564 38.1366 1.10148 38.3919 0.967531 38.6578L0.604689 39.5195L0.302321 40.3813L0.136018 41.175C0.0377485 41.5681 0.0377485 41.9687 -4.74724e-05 42.1577C-0.0378435 42.3467 -4.74724e-05 42.5961 -4.74724e-05 42.8305C-0.0064691 42.9748 0.00367609 43.1194 0.0301893 43.2613C0.0604262 43.4881 0.105781 43.6922 0.166255 43.8888L0.393031 44.4935C0.491301 44.7203 0.619807 44.9244 0.755873 45.1209L1.18675 45.7256L1.74613 46.2548C1.9399 46.4486 2.14979 46.6256 2.37354 46.7839C3.16726 47.4794 3.35624 47.7062 4.39185 48.2353C4.55815 48.3336 4.72446 48.4016 4.92099 48.4999C5.01926 48.5981 5.01926 48.6284 5.05706 48.6964C5.0873 48.961 5.15533 49.2256 5.22336 49.4901C5.28649 49.7624 5.37507 50.0282 5.48793 50.2838L5.75251 50.8886C5.78274 50.9642 5.8281 51.0247 5.85078 51.0549L6.24385 51.7806L6.74276 52.476L7.30214 53.1034C7.49868 53.3 7.69522 53.4663 7.92956 53.6628L8.58721 54.1617C8.81398 54.328 9.04076 54.4641 9.31289 54.5926C9.55745 54.7334 9.81273 54.8547 10.0764 54.9554C10.2729 55.0537 10.5072 55.1217 10.734 55.1822C10.9608 55.2427 11.1649 55.3183 11.2934 55.3485C11.1951 57.1325 11.1573 58.8258 11.4295 59.4154C11.7318 60.073 13.1832 58.0547 14.6346 55.7492C14.438 58.032 14.302 60.708 14.6346 61.4941C14.9672 62.2803 16.9779 59.7404 18.7014 56.8982C42.135 51.4782 63.5275 67.6776 65.7726 90.5517C65.3417 86.9838 60.9498 84.9957 58.9315 85.4871C57.9488 87.9362 56.2555 91.0809 53.5418 93.0236C53.7686 90.8314 53.6703 88.5939 53.2092 86.4093C52.4697 89.4524 51.0711 92.2961 49.1121 94.7395C45.975 94.9663 42.838 93.4545 41.1749 91.1716C41.0389 91.0733 41.0086 90.8692 40.9104 90.7407L40.6458 90.0453C40.5475 89.8185 40.4795 89.5917 40.4492 89.3498C40.419 89.1079 40.419 88.8963 40.419 88.6241V88.1252C40.4493 87.8984 40.5173 87.6717 40.5853 87.4298L40.8121 86.7343C40.9482 86.5076 41.0389 86.2808 41.2052 86.0389C41.7646 84.527 41.7645 83.1664 40.7516 82.4105C40.5551 82.2744 40.3585 82.1837 40.1242 82.0779C39.9881 82.0476 39.8218 81.9796 39.6933 81.9418L39.4288 81.8435L38.7333 81.6772C38.5073 81.6118 38.2732 81.5787 38.0379 81.5789C37.7978 81.5399 37.5553 81.5171 37.3122 81.5109C37.1459 81.5109 36.9796 81.5412 36.8133 81.5412C36.5679 81.5391 36.3236 81.5722 36.0876 81.6394L35.3921 81.7679L34.6967 81.9947L34.039 82.2971L33.4116 82.6297C25.7012 87.6565 30.3124 99.4111 35.5584 102.828C33.5779 103.191 31.5521 103.622 31.0002 104.052C32.3609 104.975 33.8425 105.715 35.3997 106.335L40.7516 107.847C43.4956 108.452 46.2698 108.641 49.0819 108.475C56.2248 107.952 62.9753 105.006 68.2165 100.125C73.4577 95.2436 76.8757 88.7196 77.9051 81.6319L78.1016 82.4936L78.404 84.3456L78.5401 85.2376L78.6157 86.2203L78.6913 87.3088V87.838C78.6913 88.0043 78.7215 88.2008 78.7215 88.3671C78.7215 88.5334 78.6913 88.7602 78.6913 88.9719V89.4254C78.6913 89.6522 78.661 89.8563 78.661 90.0831C78.661 90.2116 78.661 90.3476 78.6308 90.5139L78.6005 91.2396C78.5703 91.3379 78.5703 91.4361 78.5703 91.542L78.472 92.2979C78.472 92.3962 78.472 92.4944 78.4418 92.6003L78.3133 93.5603V93.6359L78.1168 94.5581L77.9202 95.5408L77.6556 96.5688L77.3911 97.5969L77.0585 98.6552L76.3328 100.575L75.9397 101.535L75.4862 102.457C75.4559 102.556 75.4106 102.624 75.3879 102.684C73.173 107.114 69.9982 110.924 66.0296 113.887C65.765 114.053 65.5005 114.25 65.2359 114.446C65.1603 114.522 65.0696 114.545 65.0091 114.613L64.2834 115.112L64.3817 115.308H64.4119L65.8028 115.112H65.8331L68.4032 114.658C68.63 114.628 68.9021 114.56 69.1289 114.492L69.5824 114.393L70.2779 114.265L70.8826 114.099C74.186 113.305 77.3835 112.209 80.4677 110.924C75.214 118.105 68.1688 123.88 59.9369 127.683C63.7392 127.418 67.5414 126.791 71.2001 125.732C84.5194 121.801 95.7297 112.844 102.442 100.772C101.081 108.426 98.0456 115.684 93.5527 122.028C96.7578 119.912 99.6983 117.47 102.382 114.696C109.781 106.97 114.637 97.1653 116.298 86.5983C117.432 91.8141 117.75 97.2114 117.258 102.533C141.123 69.2423 119.239 34.727 110.077 25.6408C110.047 25.5652 110.001 25.5426 110.001 25.4745C109.926 25.8676 109.903 26.2683 109.873 26.6613C109.775 27.4173 109.676 28.1505 109.54 28.8762C109.404 29.6019 109.178 30.3276 108.981 31.0684C108.784 31.8092 108.482 32.4895 108.187 33.1849C107.892 33.8804 107.56 34.5456 107.205 35.2032C106.84 35.8498 106.444 36.478 106.018 37.0855C105.587 37.7129 105.126 38.3101 104.657 38.8695C104.164 39.4449 103.644 39.9973 103.1 40.5249C102.767 40.8273 102.473 41.0843 102.14 41.3564L101.384 42.0141C100.794 42.4824 100.175 42.9141 99.532 43.3067C98.9008 43.7139 98.2499 44.0898 97.5817 44.433C96.8863 44.7656 96.1908 45.0604 95.4954 45.3552C94.7914 45.6216 94.075 45.8537 93.3486 46.0507C92.6229 46.2472 91.8594 46.4135 91.1337 46.5496C90.408 46.6857 89.6219 46.7461 88.8886 46.8142C88.3595 46.8444 87.8303 46.8898 87.3768 46.8898C86.6209 46.8898 85.8649 46.8142 85.1317 46.7537C84.3985 46.6932 83.6199 46.5874 82.8791 46.4211C82.1289 46.2854 81.3889 46.0985 80.6642 45.8617H80.634C81.3597 45.7861 82.0853 45.7256 82.8261 45.5971C83.5669 45.4686 84.3153 45.2948 85.041 45.0982C85.7667 44.9017 86.4924 44.6674 87.1878 44.4028C87.8833 44.1382 88.6089 43.7981 89.2741 43.4806C89.9517 43.1502 90.6126 42.7869 91.2547 42.392C91.8821 41.9612 92.5095 41.5303 93.1067 41.0692C93.699 40.6083 94.2619 40.1109 94.7924 39.58C95.3517 39.0811 95.8507 38.5217 96.3496 37.9623C96.8485 37.403 97.3096 36.7755 97.7405 36.1784C97.816 36.0801 97.8765 35.9516 97.937 35.8458L98.897 34.3339C99.2599 33.6763 99.5925 33.0111 99.8797 32.3156C100.167 31.6202 100.439 30.9247 100.673 30.199C100.908 29.4734 101.067 28.7779 101.233 28.0522C101.399 27.3265 101.497 26.5631 101.565 25.8374C101.633 25.1117 101.694 24.3255 101.694 23.5923C101.694 23.0632 101.664 22.534 101.618 22.0805C101.543 21.3245 101.452 20.5913 101.354 19.8656C101.222 19.1199 101.056 18.3808 100.855 17.6508C100.628 16.9553 100.401 16.2296 100.129 15.5342C99.857 14.8387 99.5244 14.1433 99.2069 13.4932C98.8895 12.8431 98.4813 12.1703 98.0731 11.5429C97.6649 10.9155 97.2113 10.3183 96.7502 9.72872L95.2384 8.04301C94.9591 7.76012 94.6717 7.48536 94.3766 7.21906C92.8954 6.06783 91.3618 4.98571 89.7806 3.97616C89.5538 3.84766 89.3497 3.74939 89.123 3.64356C88.0344 2.94811 87.0064 2.58527 85.9859 2.25266L85.8725 2.13928Z" fill="#EA2845"></path>
    </g>
  </g>
  <defs>
    <clipPath id="clip0_364_731">
      <rect width="128" height="128" fill="white"></rect>
    </clipPath>
    <clipPath id="clip1_364_731">
      <rect width="128" height="128" fill="white"></rect>
    </clipPath>
  </defs>
</svg>
