<?xml version="1.0" encoding="UTF-8"?>
<svg xmlns="http://www.w3.org/2000/svg" width="128" height="128" viewBox="0 0 128 128" fill="none">
  <g id="SkillItemImg" clip-path="url(#clip0_364_1294)">
    <g id="pugjs-icon 1">
      <g id="Group">
        <path id="Vector" d="M107.108 49.2034C106.908 44.8076 107.508 40.9114 105.51 37.6146C100.714 29.4226 88.726 24.6272 64.7493 24.6272C40.7725 24.6272 28.1847 29.4226 23.3893 37.7145C21.4912 41.1112 21.691 44.9075 21.3913 49.3033C21.1915 52.7999 19.593 56.4963 20.2923 60.4924C21.0916 65.6874 21.3913 70.8824 22.1905 75.6777C22.7899 79.574 28.1847 82.8708 28.6842 86.5672C30.0828 96.7573 40.6726 101.453 64.6494 101.453V102.252H64.1498H64.7493V101.453C88.726 101.453 98.9162 96.7573 100.215 86.5672C100.714 82.7709 105.71 79.574 106.309 75.6777C107.108 70.8824 107.408 65.6874 108.207 60.4924C108.906 56.4963 107.308 52.7 107.108 49.2034Z" fill="#EFCCA3"></path>
        <g id="Group_2">
          <path id="Vector_2" d="M64.3497 52.7998C68.6455 52.8997 71.6426 55.5971 74.4399 58.0947C77.7367 60.9919 83.3313 62.9899 85.6291 65.4875C87.9269 67.9851 90.924 70.4827 92.0229 74.3789C93.1218 78.2751 93.4215 83.2703 93.4215 84.569C93.4215 85.8678 94.1209 85.5681 96.1189 84.569C100.814 82.2713 106.009 76.0773 106.009 76.0773C105.41 79.9735 100.315 83.4701 99.8153 87.1665C98.6165 97.3566 88.7261 102.252 64.2498 102.252H64.1499H64.7493" fill="#CCAC8D"></path>
          <path id="Vector_3" d="M80.1343 45.0074C81.0335 48.1044 84.2304 58.5943 78.0364 55.0977C78.0364 55.0977 80.6339 56.5962 82.2323 62.2907C83.9307 67.9852 88.0267 68.6845 88.0267 68.6845C88.0267 68.6845 94.7202 69.9832 99.7154 65.6874C103.911 62.0909 104.611 55.6971 102.812 50.8018C101.014 46.0065 97.8172 44.5079 93.1218 43.5089C88.4263 42.4099 79.0354 41.5108 80.1343 45.0074Z" fill="#CCAC8D"></path>
        </g>
        <path id="Vector_4" d="M92.0229 65.1879C96.8783 65.1879 100.814 61.2519 100.814 56.3965C100.814 51.5411 96.8783 47.605 92.0229 47.605C87.1675 47.605 83.2314 51.5411 83.2314 56.3965C83.2314 61.2519 87.1675 65.1879 92.0229 65.1879Z" fill="black"></path>
        <path id="Vector_5" d="M89.725 54.7979C90.994 54.7979 92.0228 53.7692 92.0228 52.5002C92.0228 51.2311 90.994 50.2024 89.725 50.2024C88.456 50.2024 87.4272 51.2311 87.4272 52.5002C87.4272 53.7692 88.456 54.7979 89.725 54.7979Z" fill="white"></path>
        <path id="Vector_6" d="M78.6358 55.9968C78.6358 55.9968 86.5282 61.3916 90.824 66.6865C95.1198 71.9813 95.0199 72.9804 95.0199 72.9804L91.9229 74.379C91.9229 74.379 87.5272 66.087 82.1324 62.99C76.6377 59.893 76.0383 57.2956 76.0383 57.2956L78.6358 55.9968Z" fill="#EFCCA3"></path>
        <path id="Vector_7" d="M64.6492 52.7998C60.3534 52.8997 57.1565 55.5971 54.2593 58.0947C50.9625 60.9919 45.1681 62.9899 42.8703 65.4875C40.5726 67.9851 37.4756 70.4827 36.3766 74.3789C35.2777 78.2751 34.8781 83.2703 34.8781 84.569C34.8781 85.8678 35.0779 85.9677 32.1807 84.569C27.4853 82.3712 22.2903 76.0773 22.2903 76.0773C22.8897 79.9735 27.9848 83.4701 28.4843 87.1665C29.8829 97.3566 39.7733 102.252 64.2496 102.252H64.7491" fill="#CCAC8D"></path>
        <path id="Vector_8" d="M87.8269 69.6836C83.0316 63.7894 75.339 58.2947 64.6494 58.2947H64.5495C53.8599 58.2947 46.1673 63.7894 41.3719 69.6836C36.3768 75.7777 36.7764 78.1754 36.7764 83.9698C36.7764 104.949 44.1692 98.9553 49.0645 101.553C54.0597 104.05 59.2546 103.251 64.5495 103.251H64.6494C70.0442 103.251 75.1392 103.95 80.1344 101.453C85.0296 98.9553 92.4225 105.149 92.4225 84.1696C92.5224 78.3752 92.8221 75.7777 87.8269 69.6836Z" fill="#56332B"></path>
        <g id="Group_3">
          <path id="Vector_9" d="M64.1497 63.4895C64.1497 63.4895 63.4504 73.1801 62.0518 75.0783L64.6492 74.4789L64.1497 63.4895Z" fill="#442823"></path>
          <path id="Vector_10" d="M64.8491 63.4895C64.8491 63.4895 65.5484 73.1801 66.9471 75.0783L64.3496 74.4789L64.8491 63.4895Z" fill="#442823"></path>
        </g>
        <path id="Vector_11" d="M56.4573 61.1918C55.4582 58.894 59.0547 55.1976 64.7492 55.0977C70.4437 55.0977 74.0402 58.7941 73.0412 61.1918C72.0422 63.5894 68.4456 64.2887 64.7492 64.3887C61.1527 64.2887 57.4563 63.5894 56.4573 61.1918Z" fill="#56332B"></path>
        <path id="Vector_12" d="M64.7491 63.4896C64.7491 63.09 68.1458 62.9901 69.9441 61.7912C69.9441 61.7912 66.2477 62.9901 65.4484 62.4905C64.6492 62.0909 64.4494 60.8921 64.4494 60.8921C64.4494 60.8921 64.1497 62.0909 63.5503 62.4905C62.851 62.8902 58.655 61.7912 58.655 61.7912L64.2496 63.4896C64.2496 63.7893 64.1497 64.7883 64.1497 65.4876L64.5493 74.6787C65.1487 75.5779 64.9489 67.9852 64.9489 65.4876L64.7491 63.4896Z" fill="black"></path>
        <path id="Vector_13" d="M64.9489 76.8766C66.6473 76.8766 69.6444 78.0755 72.3418 79.9736C69.7443 77.0764 66.6473 75.0784 64.9489 75.0784C63.1507 75.0784 59.3544 77.2762 56.657 80.4731C59.4543 78.2753 63.0508 76.8766 64.9489 76.8766Z" fill="#7F4A41" stroke="#4D4D4D" stroke-width="2.07749" stroke-miterlimit="10"></path>
        <g id="Group_4">
          <path id="Vector_14" d="M64.2497 94.5594C60.4534 94.5594 56.757 93.3605 53.3603 92.4614C52.661 92.2616 51.9617 92.7611 51.2623 92.5613C44.9684 90.5633 39.8734 87.1665 36.7764 82.8707V83.8697C36.7764 104.849 44.1692 98.9551 49.0645 101.453C54.0596 103.95 59.2546 103.151 64.5495 103.151H64.6494C70.0441 103.151 75.1392 103.85 80.1344 101.353C85.0296 98.8552 92.4224 104.949 92.4224 83.9696C92.4224 83.1704 92.4225 82.3712 92.5224 81.6719C89.6252 86.3673 84.3303 90.0637 77.7367 92.2616C77.1373 92.4614 75.7386 91.9619 75.1392 92.0618C71.5427 93.2606 68.3458 94.5594 64.2497 94.5594Z" fill="#442823"></path>
          <path id="Vector_15" d="M54.7589 83.2703C54.7589 83.2703 52.2613 90.763 53.9596 94.0598L51.6619 93.0608C51.6619 93.0608 53.3602 85.4681 54.7589 83.2703ZM74.5397 83.2703C74.5397 83.2703 77.0373 90.763 75.3389 94.0598L77.6367 93.0608C77.6367 93.0608 75.8384 85.4681 74.5397 83.2703Z" fill="#442823"></path>
        </g>
        <path id="Vector_16" d="M48.3652 45.0074C47.4661 48.1044 44.2692 58.5943 50.4632 55.0977C50.4632 55.0977 47.8657 56.5962 46.2672 62.2907C44.6688 67.9852 40.4728 68.6845 40.4728 68.6845C40.4728 68.6845 33.7793 69.9832 28.7842 65.6874C24.5882 62.0909 23.8889 55.6971 25.6872 50.8018C27.4854 45.9066 30.6823 44.5079 35.3778 43.5089C40.0732 42.4099 49.3642 41.5108 48.3652 45.0074Z" fill="#CCAC8D"></path>
        <path id="Vector_17" d="M64.6494 75.0783C67.3468 75.0783 75.7386 80.8727 75.8385 87.9658V87.5662C75.8385 80.1733 69.0451 74.2791 64.6494 74.2791C60.2536 74.2791 53.4602 80.2732 53.4602 87.5662V87.9658C53.5601 80.8727 61.952 75.0783 64.6494 75.0783Z" fill="black"></path>
        <g id="Group_5">
          <path id="Vector_18" d="M66.8299 61.246C67.2573 61.1358 67.4362 60.3968 67.2296 59.5954C67.0229 58.794 66.5089 58.2337 66.0815 58.3439C65.6541 58.4541 65.4751 59.1931 65.6818 59.9945C65.8885 60.7959 66.4025 61.3562 66.8299 61.246Z" fill="#331712"></path>
          <path id="Vector_19" d="M61.6949 61.2312C62.1165 61.362 62.657 60.8272 62.9022 60.0367C63.1475 59.2463 63.0045 58.4994 62.5829 58.3686C62.1613 58.2379 61.6208 58.7726 61.3756 59.5631C61.1303 60.3536 61.2733 61.1004 61.6949 61.2312Z" fill="#331712"></path>
        </g>
        <path id="Vector_20" d="M36.9761 65.1879C41.8315 65.1879 45.7675 61.2519 45.7675 56.3965C45.7675 51.5411 41.8315 47.605 36.9761 47.605C32.1207 47.605 28.1846 51.5411 28.1846 56.3965C28.1846 61.2519 32.1207 65.1879 36.9761 65.1879Z" fill="black"></path>
        <path id="Vector_21" d="M39.2738 54.7979C40.5429 54.7979 41.5716 53.7692 41.5716 52.5002C41.5716 51.2311 40.5429 50.2024 39.2738 50.2024C38.0048 50.2024 36.9761 51.2311 36.9761 52.5002C36.9761 53.7692 38.0048 54.7979 39.2738 54.7979Z" fill="white"></path>
        <path id="Vector_22" d="M67.2468 56.4964C67.2468 56.3965 64.949 57.4954 64.3496 57.5953C63.7502 57.4954 61.4524 56.3965 61.4524 56.4964H67.2468Z" fill="#7F4A41" stroke="#4D4D4D" stroke-width="2.07749" stroke-miterlimit="10"></path>
        <path id="Vector_23" d="M49.7637 55.9968C49.7637 55.9968 41.8714 61.3916 37.5755 66.6865C33.2797 71.9813 33.3796 72.9804 33.3796 72.9804L36.4766 74.379C36.4766 74.379 40.8723 66.087 46.2671 62.99C51.6619 59.893 52.3612 57.2956 52.3612 57.2956L49.7637 55.9968Z" fill="#EFCCA3"></path>
        <g id="Group_6">
          <path id="Vector_24" d="M32.4804 40.0122C32.4804 40.0122 29.783 47.4051 23.7888 50.5021C23.7888 50.5021 33.1797 49.4031 32.4804 40.0122ZM95.5193 40.0122C95.5193 40.0122 98.2167 47.4051 104.211 50.5021C104.211 50.5021 94.82 49.4031 95.5193 40.0122ZM78.4359 53.7989C78.4359 53.7989 72.5416 47.6049 64.6492 47.4051C64.5493 47.4051 64.849 47.4051 64.7491 47.4051C64.6492 47.4051 64.849 47.4051 64.849 47.4051C56.8568 47.6049 51.0624 53.7989 51.0624 53.7989C57.9557 49.0035 63.85 49.1034 64.849 49.1034C64.7491 49.1034 71.5425 49.0035 78.4359 53.7989ZM71.5426 40.8115C71.5426 40.8115 68.5455 36.6155 64.5493 36.5156H64.7491C61.752 36.6155 57.8558 40.8115 57.8558 40.8115C61.2525 37.5147 64.7491 37.6146 64.7491 37.6146C64.7491 37.6146 68.0459 37.5147 71.5426 40.8115ZM36.976 71.4817C36.976 71.4817 32.2806 73.7795 28.8839 72.3809H28.784C25.7869 70.6825 24.2883 65.5875 24.2883 65.5875C24.2883 65.5875 27.2854 74.5787 36.976 71.4817ZM91.723 71.4817C91.723 71.4817 96.4184 73.7795 99.8152 72.3809C103.811 70.6825 104.411 65.5875 104.411 65.5875C104.411 65.5875 101.414 74.5787 91.723 71.4817ZM42.3708 39.5127C44.9683 39.0132 49.2641 38.9133 52.6608 40.0122C56.9567 41.5108 53.4601 47.0055 54.3592 47.3052C55.2583 47.6049 56.4572 43.5088 64.4494 43.9085C72.5416 44.3081 73.4407 47.9046 74.5396 47.3052C75.6386 46.7058 73.4407 37.3149 85.529 39.5127C85.529 39.5127 72.8413 36.116 73.4407 45.3071C73.4407 45.3071 66.1478 39.7125 55.9577 44.7077C56.0576 44.7077 58.655 36.116 42.3708 39.5127ZM86.6279 39.5127C86.8277 39.5127 86.9276 39.6126 87.0275 39.6126C87.1275 39.6126 86.9276 39.5127 86.6279 39.5127Z" fill="#CCAC8D"></path>
          <path id="Vector_25" d="M38.8743 27.2246C38.8743 27.2246 28.0847 40.8114 26.4863 46.0064C24.8878 51.3013 23.689 72.9803 22.2903 76.0773L17.2952 54.698L26.4863 32.4196L38.8743 27.2246ZM89.6251 27.2246C89.6251 27.2246 100.415 40.8114 102.013 46.0064C103.612 51.3013 104.81 72.9803 106.209 76.0773L111.204 54.698L102.013 32.4196L89.6251 27.2246Z" fill="#CCAC8D"></path>
        </g>
        <path id="Vector_26" d="M89.1256 27.2248C89.1256 27.2248 100.714 36.9154 104.111 48.1045C107.508 59.2937 106.109 72.8805 108.707 74.5789C112.403 76.9766 116.599 62.6904 117.998 61.1918C120.195 58.7942 127.488 52.7001 127.988 51.6011C128.487 50.5022 113.202 33.8184 106.509 30.5216C98.4166 26.7252 88.4263 26.4255 89.1256 27.2248Z" fill="#56332B"></path>
        <path id="Vector_27" d="M99.0161 33.219C99.0161 33.219 112.703 50.702 112.503 72.4809L117.998 61.2918C117.898 61.2918 113.102 47.0056 99.0161 33.219Z" fill="#442823"></path>
        <path id="Vector_28" d="M38.8743 27.2248C38.8743 27.2248 27.2855 36.9154 23.8888 48.1045C20.4921 59.2937 21.8908 72.8805 19.2933 74.5789C15.5969 76.9766 11.4009 62.6904 10.0023 61.1918C7.8044 58.7942 0.51147 52.7001 0.011954 51.6011C-0.487562 50.5022 14.7976 33.8184 21.4911 30.5216C29.5833 26.7252 39.5736 26.4255 38.8743 27.2248Z" fill="#56332B"></path>
        <path id="Vector_29" d="M28.984 33.219C28.984 33.219 15.2973 50.702 15.4971 72.4809L10.1023 61.2918C10.1023 61.2918 14.8976 47.0056 28.984 33.219Z" fill="#442823"></path>
        <path id="Vector_30" d="M21.5911 72.8805C21.5911 72.8805 22.5901 78.2753 24.1885 79.9737C25.787 81.672 24.6881 78.6749 24.6881 78.6749C24.6881 78.6749 22.9897 77.7758 23.2894 70.8825C23.5891 63.9891 21.5911 72.8805 21.5911 72.8805ZM106.808 72.8805C106.808 72.8805 105.809 78.2753 104.211 79.9737C102.613 81.672 103.711 78.6749 103.711 78.6749C103.711 78.6749 105.41 77.7758 105.11 70.8825C104.81 63.9891 106.808 72.8805 106.808 72.8805Z" fill="#CCAC8D"></path>
        <g id="Group_7">
          <path id="Vector_31" d="M54.2592 69.5836C54.7006 69.5836 55.0584 69.2257 55.0584 68.7843C55.0584 68.3429 54.7006 67.9851 54.2592 67.9851C53.8178 67.9851 53.46 68.3429 53.46 68.7843C53.46 69.2257 53.8178 69.5836 54.2592 69.5836Z" fill="#442823"></path>
          <path id="Vector_32" d="M49.6637 74.379C50.1051 74.379 50.463 74.0211 50.463 73.5797C50.463 73.1383 50.1051 72.7805 49.6637 72.7805C49.2223 72.7805 48.8645 73.1383 48.8645 73.5797C48.8645 74.0211 49.2223 74.379 49.6637 74.379Z" fill="#442823"></path>
          <path id="Vector_33" d="M48.1652 69.5836C48.6066 69.5836 48.9644 69.2257 48.9644 68.7843C48.9644 68.3429 48.6066 67.9851 48.1652 67.9851C47.7238 67.9851 47.366 68.3429 47.366 68.7843C47.366 69.2257 47.7238 69.5836 48.1652 69.5836Z" fill="#442823"></path>
          <path id="Vector_34" d="M73.7404 69.5836C74.1818 69.5836 74.5396 69.2257 74.5396 68.7843C74.5396 68.3429 74.1818 67.9851 73.7404 67.9851C73.299 67.9851 72.9412 68.3429 72.9412 68.7843C72.9412 69.2257 73.299 69.5836 73.7404 69.5836Z" fill="#442823"></path>
          <path id="Vector_35" d="M78.3358 74.379C78.7772 74.379 79.1351 74.0211 79.1351 73.5797C79.1351 73.1383 78.7772 72.7805 78.3358 72.7805C77.8944 72.7805 77.5366 73.1383 77.5366 73.5797C77.5366 74.0211 77.8944 74.379 78.3358 74.379Z" fill="#442823"></path>
          <path id="Vector_36" d="M79.8346 69.5836C80.276 69.5836 80.6339 69.2257 80.6339 68.7843C80.6339 68.3429 80.276 67.9851 79.8346 67.9851C79.3932 67.9851 79.0354 68.3429 79.0354 68.7843C79.0354 69.2257 79.3932 69.5836 79.8346 69.5836Z" fill="#442823"></path>
        </g>
      </g>
    </g>
  </g>
  <defs>
    <clipPath id="clip0_364_1294">
      <rect width="128" height="128" fill="white"></rect>
    </clipPath>
  </defs>
</svg>
