<?xml version="1.0" encoding="UTF-8"?>
<svg xmlns="http://www.w3.org/2000/svg" width="128" height="128" viewBox="0 0 128 128" fill="none">
  <g id="SkillItemImg" clip-path="url(#clip0_362_565)">
    <g id="reactjs-icon 1">
      <g id="Group">
        <path id="Vector" d="M64.0004 75.3243C70.313 75.3243 75.4304 70.2069 75.4304 63.8943C75.4304 57.5816 70.313 52.4642 64.0004 52.4642C57.6877 52.4642 52.5703 57.5816 52.5703 63.8943C52.5703 70.2069 57.6877 75.3243 64.0004 75.3243Z" fill="#00D8FF"></path>
        <g id="Group_2">
          <path id="Vector_2" fill-rule="evenodd" clip-rule="evenodd" d="M64.0006 40.6545C79.347 40.6545 93.6034 42.8566 104.353 46.5572C117.304 51.016 125.267 57.7744 125.267 63.8942C125.267 70.2715 116.828 77.4514 102.92 82.0594C92.405 85.5431 78.5683 87.3617 64.0006 87.3617C49.0648 87.3617 34.9214 85.6548 24.2881 82.0212C10.8351 77.4229 2.73218 70.15 2.73218 63.8942C2.73218 57.8241 10.3352 51.1179 23.1045 46.6659C33.8939 42.9042 48.5023 40.6545 63.9986 40.6545H64.0006Z" stroke="#00D8FF" stroke-width="2.73408"></path>
          <path id="Vector_3" fill-rule="evenodd" clip-rule="evenodd" d="M43.7698 52.3414C51.4366 39.0474 60.4659 27.7976 69.0418 20.3344C79.3744 11.3425 89.2072 7.821 94.5084 10.8779C100.033 14.0638 102.037 24.9616 99.0805 39.3115C96.8476 50.1607 91.5084 63.0551 84.2308 75.6747C76.769 88.6133 68.225 100.013 59.766 107.406C49.0621 116.763 38.7136 120.15 33.2944 117.024C28.0358 113.994 26.0249 104.056 28.5476 90.7696C30.679 79.5439 36.028 65.7653 43.7673 52.3412L43.7698 52.3414Z" stroke="#00D8FF" stroke-width="2.73408"></path>
          <path id="Vector_4" fill-rule="evenodd" clip-rule="evenodd" d="M43.7889 75.7086C36.1004 62.4297 30.8658 48.986 28.6808 37.8291C26.0507 24.3865 27.9103 14.1087 33.2066 11.0429C38.7258 7.84763 49.168 11.5541 60.1237 21.282C68.407 28.6367 76.9127 39.6999 84.2116 52.3076C91.6948 65.2337 97.3033 78.3292 99.4851 89.3503C102.246 103.297 100.011 113.953 94.5972 117.088C89.3439 120.129 79.7307 116.909 69.4801 108.088C60.8193 100.635 51.5532 89.1195 43.7889 75.7084V75.7086Z" stroke="#00D8FF" stroke-width="2.73408"></path>
        </g>
      </g>
    </g>
  </g>
  <defs>
    <clipPath id="clip0_362_565">
      <rect width="128" height="128" fill="white"></rect>
    </clipPath>
  </defs>
</svg>
