<?xml version="1.0" encoding="UTF-8"?>
<svg xmlns="http://www.w3.org/2000/svg" width="128" height="128" viewBox="0 0 128 128" fill="none">
  <g id="SkillItemImg" clip-path="url(#clip0_364_1329)">
    <g id="sass-lang-icon 1" clip-path="url(#clip1_364_1329)">
      <path id="Vector" d="M110.188 71.12C105.712 71.146 101.838 72.22 98.5882 73.82C97.3882 71.444 96.1882 69.37 95.9882 67.82C95.7622 66.02 95.4882 64.92 95.7622 62.77C96.0362 60.62 97.2882 57.57 97.2882 57.32C97.2642 57.094 97.0122 55.994 94.4382 55.97C91.8642 55.946 89.6382 56.47 89.3882 57.146C88.9416 58.3949 88.5821 59.6733 88.3122 60.972C87.8622 63.322 83.1622 71.648 80.4862 76.024C79.6102 74.324 78.8602 72.824 78.7102 71.624C78.4842 69.824 78.2102 68.724 78.4842 66.574C78.7582 64.424 80.0102 61.374 80.0102 61.124C79.9862 60.898 79.7342 59.798 77.1602 59.774C74.5862 59.75 72.3602 60.274 72.1102 60.95C71.8602 61.626 71.5842 63.226 71.0342 64.776C70.5082 66.326 64.2582 80.228 62.6342 83.852C61.8082 85.702 61.0842 87.178 60.5582 88.178C60.0322 89.178 60.5342 88.254 60.4842 88.354L59.7842 89.68V89.704C59.4342 90.33 59.0582 90.93 58.8842 90.93C58.7602 90.93 58.5082 89.254 58.9342 86.954C59.8602 82.128 62.1102 74.602 62.0842 74.328C62.0842 74.204 62.5102 72.878 60.6342 72.202C58.8082 71.526 58.1582 72.652 58.0082 72.652C57.8582 72.652 57.7322 73.052 57.7322 73.052C57.7322 73.052 59.7582 64.576 53.8562 64.576C50.1562 64.576 45.0562 68.602 42.5302 72.276L29.7782 79.252L29.5022 78.952C22.3562 71.32 9.13021 65.92 9.68021 55.67C9.88021 51.944 11.1802 42.118 35.0802 30.218C54.6562 20.468 70.3342 23.142 73.0602 29.092C76.9362 37.592 64.6842 53.392 44.3322 55.672C36.5822 56.548 32.5062 53.546 31.4802 52.422C30.4042 51.246 30.2542 51.196 29.8542 51.422C29.2042 51.772 29.6042 52.822 29.8542 53.448C30.4542 55.024 32.9542 57.824 37.2042 59.224C40.9302 60.45 50.0302 61.124 61.0322 56.874C73.3582 52.098 82.9842 38.848 80.1582 27.774C77.2822 16.498 58.5822 12.798 40.9042 19.074C30.3802 22.82 19.0002 28.668 10.8002 36.344C1.03021 45.444 -0.519788 53.396 0.128212 56.696C2.40421 68.472 18.6282 76.148 25.1282 81.824L24.2282 82.324C20.9782 83.924 8.60221 90.4 5.50221 97.25C2.00221 105 6.05221 110.576 8.75221 111.326C17.1022 113.652 25.6522 109.476 30.2782 102.6C34.8782 95.724 34.3282 86.8 32.2042 82.724L32.1282 82.574L34.6782 81.074C36.3282 80.098 37.9542 79.198 39.3782 78.424C38.5782 80.6 38.0022 83.174 37.7022 86.924C37.3522 91.324 39.1522 97.024 41.5282 99.276C42.5782 100.252 43.8282 100.276 44.6042 100.276C47.3542 100.276 48.6042 98 49.9802 95.276C51.6802 91.95 53.1802 88.1 53.1802 88.1C53.1802 88.1 51.3042 98.526 56.4302 98.526C58.3062 98.526 60.1802 96.1 61.0302 94.85V94.874C61.0302 94.874 61.0802 94.798 61.1802 94.624C61.3802 94.324 61.4802 94.148 61.4802 94.148V94.098C62.2302 92.798 63.9062 89.822 66.4062 84.898C69.6322 78.548 72.7322 70.598 72.7322 70.598C72.7322 70.598 73.0322 72.548 73.9582 75.748C74.5082 77.648 75.7082 79.724 76.6342 81.748L75.4342 83.398L75.4582 83.424C74.8183 84.2719 74.1594 85.1055 73.4822 85.924C70.9322 88.974 67.8822 92.45 67.4822 93.45C67.0062 94.626 67.1062 95.5 68.0322 96.2C68.7082 96.7 69.9082 96.8 71.1822 96.7C73.4822 96.55 75.0822 95.974 75.8822 95.624C77.3255 95.1094 78.689 94.3937 79.9322 93.498C82.4322 91.648 83.9582 89.022 83.8082 85.522C83.7322 83.596 83.1082 81.696 82.3322 79.896L83.0082 78.896C86.9582 73.12 90.0082 66.77 90.0082 66.77C90.0082 66.77 90.3082 68.72 91.2342 71.92C91.7102 73.546 92.6602 75.32 93.5102 77.07C89.8102 80.096 87.4842 83.596 86.6842 85.896C85.2082 90.146 86.3582 92.072 88.5342 92.522C89.5102 92.722 90.9102 92.272 91.9602 91.822C93.2602 91.396 94.8362 90.672 96.2862 89.596C98.7862 87.746 101.186 85.17 101.062 81.696C100.986 80.096 100.562 78.52 99.9862 77.02C103.136 75.72 107.212 74.97 112.386 75.594C123.512 76.894 125.712 83.844 125.286 86.744C124.86 89.644 122.536 91.244 121.76 91.744C120.984 92.22 120.734 92.394 120.81 92.744C120.91 93.27 121.26 93.244 121.936 93.144C122.862 92.994 127.786 90.768 127.986 85.418C128.286 78.542 121.76 71.042 110.186 71.118L110.188 71.12ZM24.3802 100.05C20.7042 104.076 15.5302 105.6 13.3302 104.3C10.9542 102.924 11.8802 97 16.4062 92.724C19.1562 90.124 22.7322 87.724 25.0822 86.248L27.3582 84.872C27.5082 84.772 27.6082 84.722 27.6082 84.722C27.7842 84.622 27.9842 84.496 28.1842 84.372C29.8602 90.472 28.2602 95.822 24.3842 100.048L24.3802 100.05ZM51.2602 81.774C49.9842 84.9 47.2842 92.924 45.6602 92.474C44.2602 92.098 43.4102 86.024 45.3842 80.022C46.3842 76.996 48.5102 73.396 49.7602 71.996C51.7862 69.746 53.9862 68.996 54.5362 69.92C55.1862 71.12 52.0602 79.822 51.2602 81.774ZM73.4362 92.374C72.8862 92.65 72.3862 92.85 72.1602 92.7C71.9842 92.6 72.3862 92.224 72.3862 92.224C72.3862 92.224 75.1622 89.248 76.2622 87.874L78.4382 85.098V85.398C78.4382 88.998 74.9882 91.398 73.4382 92.374H73.4362ZM90.5362 88.474C90.1362 88.174 90.1862 87.248 91.5362 84.348C92.0622 83.198 93.2622 81.272 95.3362 79.448C95.5862 80.198 95.7362 80.924 95.7122 81.598C95.6862 86.098 92.4862 87.774 90.5362 88.474Z" fill="#CF649A"></path>
    </g>
  </g>
  <defs>
    <clipPath id="clip0_364_1329">
      <rect width="128" height="128" fill="white"></rect>
    </clipPath>
    <clipPath id="clip1_364_1329">
      <rect width="128" height="128" fill="white"></rect>
    </clipPath>
  </defs>
</svg>
