<?xml version="1.0" encoding="UTF-8"?>
<svg xmlns="http://www.w3.org/2000/svg" width="128" height="128" viewBox="0 0 128 128" fill="none">
  <g id="SkillItemImg" clip-path="url(#clip0_362_604)">
    <g id="truffle-seeklogo.com 1" clip-path="url(#clip1_362_604)">
      <g id="Group">
        <path id="Vector" d="M63.8481 127.922C98.3556 127.922 126.329 99.286 126.329 63.9612C126.329 28.6364 98.3556 0 63.8481 0C29.3406 0 1.3667 28.6364 1.3667 63.9612C1.3667 99.286 29.3406 127.922 63.8481 127.922Z" fill="#5E464D"></path>
        <path id="Vector_2" d="M44.1988 120.677C46.7548 121.56 55.3385 124.384 55.7037 121.623C55.9017 120.107 51.3715 118.554 45.2385 115.267C36.5157 110.602 28.5359 104.636 21.5666 97.57C11.3942 87.4773 5.54488 73.7466 5.27792 59.3335C4.75806 39.9836 12.234 24.3409 24.531 14.2463C9.49331 25.9906 0.489984 43.9693 0.0236891 63.1847C-0.341446 77.1805 3.52651 88.9721 10.7921 99.7053C13.0482 102.654 15.6855 105.282 18.6332 107.52C25.5955 112.85 35.776 117.778 44.1988 120.671" fill="white"></path>
        <path id="Vector_3" d="M127.19 49.3016C123.315 30.8659 111.272 17.9597 95.1629 8.84207C107.509 17.7155 124.838 36.5832 114.595 53.2279C105.931 66.5599 84.8896 63.9486 73.3476 57.6114C59.6582 50.0969 42.5278 33.1892 59.423 16.6634C70.377 5.96776 105.22 17.9597 99.0865 33.9469C95.5095 43.2461 81.5848 41.1796 75.3218 36.6333C70.705 33.2768 66.8185 27.5094 68.8794 21.5542C69.5354 19.6442 69.4425 16.6822 66.7752 18.8614C64.8072 20.4896 63.786 23.1698 63.4395 25.6746C60.5246 46.5212 97.2299 62.6837 108.122 42.5134C113.772 32.0432 104.613 16.8388 93.0835 10.6142C84.4193 5.91767 75.4023 2.61753 64.3492 3.41908C46.6742 4.67151 31.846 15.8807 29.9832 34.1535C28.1266 52.3136 40.1266 68.6577 54.2554 78.4329C69.1084 88.7028 89.0732 95.4721 107.342 89.3478C123.718 83.8559 130.482 64.8379 127.19 49.3141" fill="white"></path>
        <path id="Vector_4" d="M104.143 35.1806C105.9 23.2324 95.2248 15.0291 85.3661 11.3031C73.7437 6.91965 58.3895 8.83586 49.9233 18.5734C43.7346 25.7248 44.1368 36.1073 47.3302 44.5111C52.1574 57.2044 63.0558 66.3784 75.7426 70.3423C84.7596 73.1602 95.658 74.3876 104.793 71.4131C118.117 67.0735 122.455 53.015 119.701 40.1339C119.112 37.3492 118.206 34.6428 117.003 32.0683C115.32 28.4926 110.164 21.2536 117.269 30.0707C118.014 31.0533 118.7 32.08 119.324 33.1454C120.789 35.5815 121.951 38.1917 122.783 40.9166C126.657 52.9399 123.619 66.967 112.881 74.2248C104.644 79.7793 94.1727 80.4431 84.6173 79.0529C71.8066 77.1743 59.7324 70.9121 51.3405 60.8364C43.6789 51.6499 38.4494 38.4556 41.5994 26.3948C43.9078 17.5715 50.9877 10.9838 59.4663 8.2347C70.1914 4.72165 81.9994 6.35606 91.6477 12.0608C96.4873 14.9101 100.931 18.8552 103.406 24.0277C104.526 26.3579 105.128 28.9078 105.17 31.4984C105.195 32.5477 105.114 33.5968 104.929 34.6295C104.861 35.0052 104.075 36.0635 104.186 35.1931" fill="#3FE0C5"></path>
      </g>
    </g>
  </g>
  <defs>
    <clipPath id="clip0_362_604">
      <rect width="128" height="128" fill="white"></rect>
    </clipPath>
    <clipPath id="clip1_362_604">
      <rect width="128" height="128" fill="white"></rect>
    </clipPath>
  </defs>
</svg>
