<?xml version="1.0" encoding="UTF-8"?>
<svg xmlns="http://www.w3.org/2000/svg" width="128" height="128" viewBox="0 0 128 128" fill="none">
  <g id="SkillItemImg" clip-path="url(#clip0_364_1217)">
    <g id="typescriptlang-icon 1" clip-path="url(#clip1_364_1217)">
      <path id="Vector" d="M0 64.0001V128H128.004V-0.00390625H0V64.0001ZM103.154 58.9001C106.404 59.7121 108.884 61.1561 111.16 63.5121C112.34 64.7721 114.086 67.0681 114.228 67.6161C114.268 67.7761 108.702 71.5161 105.328 73.6101C105.208 73.6901 104.718 73.1641 104.168 72.3501C102.522 69.9501 100.796 68.9161 98.154 68.7341C94.274 68.4701 91.754 70.5021 91.794 73.8941C91.794 74.8901 91.934 75.4781 92.342 76.2941C93.196 78.0621 94.782 79.1181 99.758 81.2741C108.922 85.2141 112.842 87.8141 115.278 91.5141C117.998 95.6381 118.61 102.222 116.762 107.118C114.73 112.442 109.692 116.058 102.602 117.258C100.408 117.644 95.206 117.584 92.85 117.158C87.71 116.244 82.834 113.704 79.826 110.372C78.646 109.072 76.352 105.678 76.494 105.432C76.554 105.352 77.084 105.026 77.674 104.68L82.428 101.94L86.108 99.8061L86.88 100.946C87.956 102.592 90.314 104.846 91.736 105.598C95.82 107.752 101.428 107.446 104.19 104.968C105.37 103.892 105.856 102.774 105.856 101.128C105.856 99.6441 105.676 98.9941 104.902 97.8781C103.906 96.4581 101.874 95.2581 96.102 92.7581C89.498 89.9141 86.654 88.1461 84.054 85.3421C82.55 83.7161 81.128 81.1161 80.538 78.9421C80.05 77.1341 79.928 72.6021 80.314 70.7741C81.674 64.3741 86.49 59.9441 93.44 58.6241C95.696 58.1981 100.94 58.3601 103.152 58.9081L103.154 58.9001ZM73.104 64.2401L73.144 69.4801H56.484V116.82H44.7V69.4801H28.04V64.3401L28.18 59.0601C28.24 58.9801 38.38 58.9401 50.672 58.9601L73.042 59.0201L73.104 64.2401Z" fill="#007ACC"></path>
    </g>
  </g>
  <defs>
    <clipPath id="clip0_364_1217">
      <rect width="128" height="128" fill="white"></rect>
    </clipPath>
    <clipPath id="clip1_364_1217">
      <rect width="128" height="128" fill="white"></rect>
    </clipPath>
  </defs>
</svg>
