<?xml version="1.0" encoding="UTF-8"?>
<svg xmlns="http://www.w3.org/2000/svg" width="128" height="128" viewBox="0 0 128 128" fill="none">
  <g id="SkillItemImg" clip-path="url(#clip0_362_584)">
    <g id="web3js-seeklogo.com 1" clip-path="url(#clip1_362_584)">
      <g id="Group">
        <path id="Vector" d="M42.6837 23.3516C42.6837 23.3516 37.9401 26.2729 37.9401 32.1062C37.9401 37.9487 37.9401 61.2639 37.9401 61.2639C37.9401 61.2639 37.9401 67.1064 33.1966 64.1851C28.453 61.2639 28.453 55.4306 28.453 55.4306C28.453 55.4306 28.453 32.1062 28.453 26.2729C28.453 25.9088 28.47 25.5539 28.5042 25.2081C29.0246 20.0755 33.188 17.5092 33.188 17.5092L23.7094 11.6758C23.7094 11.6758 23.7009 11.6758 23.6923 11.6849C23.4108 11.8578 18.9658 14.7791 18.9658 20.4304C18.9658 26.2729 18.9658 49.5881 18.9658 49.5881C18.9658 49.5881 18.9658 55.4306 14.2222 52.5093C9.47864 49.5881 9.47864 43.7547 9.47864 43.7547C9.47864 43.7547 9.47864 20.4304 9.47864 14.597C9.47864 8.76369 14.2222 5.84246 14.2222 5.84246L4.74358 0C4.74358 0 0 2.92123 0 8.75459C0 14.597 0 37.9123 0 37.9123C0 37.9123 0 55.4306 14.2222 64.1851C18.5819 66.8698 21.6021 67.0791 23.7009 66.0871C25.7996 69.6636 28.8198 73.1763 33.1795 75.861C47.4017 84.6155 47.4017 67.1064 47.4017 67.1064C47.4017 67.1064 47.4017 43.782 47.4017 37.9487C47.4017 32.1062 52.1453 29.1941 52.1453 29.1941C50.6872 27.2376 49.3906 25.909 48.2557 25.2081C47.2881 24.6106 45.4308 23.9918 42.6837 23.3516Z" fill="#808285"></path>
        <path id="Vector_2" d="M94.8205 72.967C94.8205 55.6762 109.043 64.2124 109.043 64.2124L128 75.8882V87.5641L109.043 75.8882C109.043 75.8882 108.983 75.8514 108.877 75.7944L108.814 75.7613C107.868 75.2676 104.299 73.7432 104.299 78.8186C104.299 84.6519 109.043 87.5732 109.043 87.5732L118.521 93.4065C118.521 93.4065 128 99.249 128 116.758C128 134.267 113.778 125.513 113.778 125.513L94.8205 113.837V102.161L113.786 113.837C113.786 113.837 118.53 116.758 118.53 110.916C118.53 105.082 113.786 102.161 113.786 102.161L109.043 99.2399C108.76 99.0594 94.8205 90.0849 94.8205 72.967ZM80.5983 46.7032C83.4329 47.0507 85.3546 47.5353 86.3633 48.1571C87.4609 48.8337 88.6988 50.2965 90.0769 52.5457C90.0769 52.5457 85.3334 55.4669 85.3334 61.3003L85.333 90.5041C85.3206 91.4849 84.9067 107.705 71.1111 99.2126C57.3156 90.7206 56.9017 73.9829 56.8893 72.9863L56.8889 72.9397L66.3675 78.7822L66.3677 78.8017C66.3729 79.1721 66.5275 84.714 71.1111 87.5368C75.7095 90.3686 75.8503 84.965 75.8546 84.6315L75.8547 55.4578C75.8547 49.6245 80.5983 46.7032 80.5983 46.7032ZM56.906 49.6882L66.3846 55.5215V67.1974L56.906 61.364V49.6882Z" fill="#BCBEC0"></path>
        <path id="Vector_3" d="M109.043 23.3516C104.675 20.6579 100.759 19.3474 97.4228 18.8196C96.5525 16.7902 94.4196 14.4059 90.0856 11.7668C75.8633 3.10321 61.6496 11.6758 61.6496 11.6758L42.6838 23.3516L52.1625 29.185L71.1198 17.5091C71.1198 17.5091 75.8633 14.5879 80.5984 17.5091C85.342 20.4304 80.5984 23.3516 80.5984 23.3516L61.6411 35.0274L71.1198 40.8608L90.0941 29.1759C90.3756 29.003 94.9656 26.3547 99.5557 29.185C104.299 32.1062 99.5557 35.0183 99.5557 35.0183L80.5984 46.6941L90.077 52.5366L113.778 37.9396C113.778 37.9396 123.257 32.1062 109.043 23.3516Z" fill="#F16822"></path>
      </g>
    </g>
  </g>
  <defs>
    <clipPath id="clip0_362_584">
      <rect width="128" height="128" fill="white"></rect>
    </clipPath>
    <clipPath id="clip1_362_584">
      <rect width="128" height="128" fill="white"></rect>
    </clipPath>
  </defs>
</svg>
