<?xml version="1.0" encoding="UTF-8"?>
<svg xmlns="http://www.w3.org/2000/svg" width="128" height="128" viewBox="0 0 128 128" fill="none">
  <g id="SkillItemImg" clip-path="url(#clip0_364_1323)">
    <g id="webflow-icon 1" clip-path="url(#clip1_364_1323)">
      <g id="Group">
        <path id="Vector" d="M64 128C99.3462 128 128 99.3462 128 64C128 28.6538 99.3462 0 64 0C28.6538 0 0 28.6538 0 64C0 99.3462 28.6538 128 64 128Z" fill="#4353FF"></path>
        <path id="Vector_2" d="M82.8 56.3999L77 74.6799C77 73.2799 73 42.96 73 42.96C63.8 42.96 58.92 49.4799 56.36 56.3999L49.28 74.72C49.28 73.4 48.28 56.56 48.28 56.56C47.9385 52.9144 46.2719 49.5208 43.5959 47.0217C40.9199 44.5226 37.4203 43.0917 33.76 43L41.28 88.92C50.88 88.92 56.08 82.4 58.76 75.4799L64.76 59.88C64.76 60.52 68.76 88.92 68.76 88.92C72.6856 88.9149 76.5075 87.6599 79.672 85.3369C82.8364 83.014 85.1789 79.7436 86.36 76L99.96 42.96C90.36 42.96 85.32 49.4799 82.76 56.3999H82.8Z" fill="white"></path>
      </g>
    </g>
  </g>
  <defs>
    <clipPath id="clip0_364_1323">
      <rect width="128" height="128" fill="white"></rect>
    </clipPath>
    <clipPath id="clip1_364_1323">
      <rect width="128" height="128" fill="white"></rect>
    </clipPath>
  </defs>
</svg>
