<?xml version="1.0" encoding="UTF-8"?>
<svg xmlns="http://www.w3.org/2000/svg" width="128" height="128" viewBox="0 0 128 128" fill="none">
  <g id="SkillItemImg" clip-path="url(#clip0_364_722)">
    <g id="wordpress-icon 1" clip-path="url(#clip1_364_722)">
      <path id="Vector" d="M9.04 64C9.04 85.8 21.56 104.58 39.84 113.392L13.912 41.74C10.9 48.696 9.04 56.12 9.04 64ZM101.1 61.216C101.1 54.496 98.548 49.616 96.46 46.144C93.676 41.504 91.128 37.796 91.128 33.16C91.128 28.06 95.072 23.42 100.408 23.42H101.104C91.36 14.376 78.376 9.04 64 9.04C54.9045 9.12053 45.9666 11.4233 37.9646 15.7478C29.9625 20.0723 23.1389 26.2875 18.088 33.852H21.568C27.368 33.852 36.176 33.156 36.176 33.156C39.192 32.924 39.424 37.328 36.64 37.796C36.64 37.796 33.624 38.26 30.38 38.26L50.324 97.62L62.38 61.676L53.8 38.256L48 37.8C44.984 37.568 45.448 33.16 48.232 33.16C48.232 33.16 57.272 33.856 62.608 33.856C68.408 33.856 77.216 33.16 77.216 33.16C80.232 32.928 80.464 37.332 77.68 37.8C77.68 37.8 74.664 38.264 71.42 38.264L91.36 97.4L96.96 79.08C99.28 71.428 101.132 66.096 101.132 61.224L101.1 61.216ZM64.928 68.868L48.464 116.64C53.332 118.032 58.664 118.96 64 118.96C70.492 118.96 76.52 117.76 82.32 115.944C82.088 115.712 82.088 115.48 81.856 115.248L64.928 68.868ZM112.232 37.8L112.696 43.4C112.696 49 111.768 55.228 108.524 63.112L91.828 111.576C108.06 102.068 119.188 84.444 119.188 64.04C118.956 54.532 116.404 45.72 112.228 37.84L112.232 37.8ZM64 0C28.752 0 0 28.752 0 64C0 99.248 28.752 128 64 128C99.248 128 128 99.248 128 64C128 28.752 99.248 0 64 0ZM64 125.216C30.376 125.216 3.016 97.856 3.016 64C3.04139 47.8338 9.47462 32.3371 20.9058 20.9058C32.3371 9.47462 47.8338 3.04139 64 3.016C80.1662 3.04139 95.6629 9.47462 107.094 20.9058C118.525 32.3371 124.959 47.8338 124.984 64C124.984 97.856 97.624 125.216 64 125.216Z" fill="#00749A"></path>
    </g>
  </g>
  <defs>
    <clipPath id="clip0_364_722">
      <rect width="128" height="128" fill="white"></rect>
    </clipPath>
    <clipPath id="clip1_364_722">
      <rect width="128" height="128" fill="white"></rect>
    </clipPath>
  </defs>
</svg>
