<svg width="128" height="128" viewBox="0 0 128 128" fill="none" xmlns="http://www.w3.org/2000/svg">
<g id="SkillItemImg" clip-path="url(#clip0_364_698)">
<g id="yarnpkg-icon 1" clip-path="url(#clip1_364_698)">
<g id="Group">
<path id="Vector" d="M63.9996 0.000244141C99.3324 0.000244141 127.999 28.6643 127.999 63.9999C127.999 99.3355 99.3324 128 63.9996 128C28.6669 128 0 99.3355 0 63.9999C0 28.6643 28.664 0.000244141 63.9996 0.000244141Z" fill="#2C8EBB"/>
<path id="Vector_2" d="M107.539 83.3986C107.094 79.8887 104.129 77.4689 100.32 77.5202C94.6356 77.5944 89.8673 80.5336 86.7084 82.4854C85.6746 83.1361 84.6015 83.7222 83.4953 84.2404C83.695 81.3725 83.5238 77.6201 82.04 73.491C80.2365 68.5486 77.8167 65.5096 76.0846 63.7547C78.0821 60.8383 80.8301 56.5922 82.1142 50.0148C83.2556 44.4047 82.8789 35.6813 80.3364 30.7903C79.8171 29.803 78.9524 29.0839 77.8652 28.7928C77.4201 28.6701 76.5811 28.4219 74.926 28.8927C72.4292 23.7563 71.5646 23.1856 70.9025 22.7404C69.5186 21.8501 67.8892 21.6561 66.3568 22.2211C64.3022 22.963 62.5502 24.9405 60.8951 28.4476L60.2274 29.9542C57.0884 30.1768 52.1461 31.3125 47.9713 35.8326C47.452 36.4033 46.439 36.8199 45.3746 37.2165H45.4031C43.2287 37.9813 42.2414 39.7619 41.0286 42.975C39.345 47.4722 41.0771 51.8953 42.7835 54.7602C40.4607 56.8348 37.3732 60.1478 35.741 64.0257C33.7435 68.8197 33.4924 73.5138 33.5665 76.0592C31.8373 77.8855 29.1721 81.3212 28.8724 85.1763C28.4729 90.5639 30.4305 94.2221 31.298 95.5547C31.536 95.9263 31.8093 96.2742 32.1141 96.5934C32.0142 97.2612 31.9914 97.9774 32.1426 98.7193C32.4651 100.449 33.5523 101.858 35.2073 102.743C38.469 104.472 43.0147 105.214 46.5246 103.456C47.7858 104.792 50.083 106.076 54.2292 106.076H54.4774C55.539 106.076 69.0306 105.362 72.9599 104.392C74.338 104.086 75.6245 103.459 76.7152 102.563C79.2349 101.773 86.2033 99.4013 92.7808 95.1495C97.4264 92.1362 99.0301 91.4913 102.491 90.6523C105.853 89.8362 107.953 86.7715 107.534 83.3871L107.539 83.3986ZM101.661 87.0311C97.706 87.9728 95.7057 88.8346 90.8118 92.0249C83.1757 96.9672 74.8233 99.2644 74.8233 99.2644C74.8233 99.2644 74.1328 100.303 72.1296 100.771C68.671 101.61 55.6474 102.329 54.4603 102.352C51.2729 102.38 49.3239 101.536 48.776 100.226C47.121 96.271 51.1445 94.5417 51.1445 94.5417C51.1445 94.5417 50.2542 93.9995 49.7348 93.503C49.264 93.0322 48.7703 92.0934 48.5934 92.4415C47.977 93.9482 47.6517 97.6293 45.9967 99.29C43.7224 101.587 39.4249 100.822 36.8795 99.4898C34.083 98.0059 37.0793 94.5246 37.0793 94.5246C37.0793 94.5246 35.5726 95.4149 34.3598 93.5829C33.2755 91.8993 32.2596 89.0372 32.5336 85.5016C32.8303 81.4781 37.3275 77.5687 37.3275 77.5687C37.3275 77.5687 36.5371 71.6134 39.131 65.5096C41.4795 59.9509 47.8058 55.4765 47.8058 55.4765C47.8058 55.4765 42.4925 49.5981 44.4671 44.3076C45.7512 40.8491 46.2706 40.872 46.6929 40.7236C48.1768 40.1529 49.6093 39.5365 50.6708 38.3751C55.9841 32.6394 62.7556 33.7295 62.7556 33.7295C62.7556 33.7295 65.9687 23.9703 68.9336 25.8708C69.8467 26.4643 73.134 33.7751 73.134 33.7751C73.134 33.7751 76.6439 31.7206 77.0377 32.491C79.1636 36.6173 79.4061 44.5045 78.4702 49.2928C76.8893 57.1972 72.9343 61.449 71.3534 64.1199C70.9824 64.7363 75.6052 66.6881 78.5158 74.7694C81.2096 82.1601 78.8126 88.3609 79.2292 89.0515L79.3291 89.2227C79.3291 89.2227 82.4166 89.4709 88.6203 85.6386C91.9304 83.584 95.8598 81.2898 100.334 81.2441C104.657 81.1699 104.88 86.2379 101.618 87.0254L101.661 87.0311Z" fill="white"/>
</g>
</g>
</g>
<defs>
<clipPath id="clip0_364_698">
<rect width="128" height="128" fill="white"/>
</clipPath>
<clipPath id="clip1_364_698">
<rect width="128" height="128" fill="white"/>
</clipPath>
</defs>
</svg>
