<svg width="128" height="128" viewBox="0 0 128 128" fill="none" xmlns="http://www.w3.org/2000/svg">
<g id="SkillItemImg" clip-path="url(#clip0_364_680)">
<g id="gruntjs-icon 1">
<g id="Group">
<path id="Vector" d="M22.6399 31.1029C22.6399 31.1029 24.8388 39.5513 25.1571 42.3868C25.4753 45.1933 19.5151 51.4717 19.5151 54.5965C19.5151 57.7213 20.7593 63.3632 27.6453 66.1986C34.5314 69.0051 35.4861 76.2094 35.4861 80.6073C35.4861 85.0051 32.969 93.4535 32.969 93.4535C32.969 93.4535 31.4066 114.43 39.855 118.191C48.3035 121.953 46.4228 121.953 48.3035 121.953C50.1841 121.953 63.9562 127.594 72.1153 125.396C80.2455 123.197 82.4444 120.708 82.4444 120.708C82.4444 120.708 90.5746 121.345 93.0918 114.141C95.6089 106.936 97.1713 91.9201 96.2165 85.0051C95.2907 78.119 94.0176 69.0341 99.6595 65.9093C105.301 62.7845 111.262 59.0232 110.307 55.8985C109.381 52.7737 104.347 48.3759 104.347 48.3759C104.347 48.3759 103.103 40.535 104.028 38.6544C104.954 36.7738 110.596 32.0866 107.471 28.6436C104.376 25.1716 98.7337 25.1716 98.7337 25.1716L91.5294 25.8081C91.5294 25.8081 79.3196 14.8425 63.3486 15.4791C47.3776 16.1156 37.3668 25.8081 37.3668 25.8081C37.3668 25.8081 32.0431 23.9275 27.356 25.8081C22.6399 27.6599 21.714 25.7792 22.6399 31.1029Z" fill="#FBA919"/>
<path id="Vector_2" d="M51.2545 77.743L40.4914 93.9454C39.797 94.987 45.0339 95.0449 45.0339 95.0449L51.2545 77.743ZM54.2056 58.0685L51.3123 65.215C50.2129 67.9057 45.9597 69.2367 45.9597 69.2367C45.9597 69.2367 48.1586 66.922 48.1586 61.1065C48.1586 58.6472 51.3123 57.6924 51.3123 57.6924L54.2056 58.0685Z" fill="#E78724"/>
<path id="Vector_3" d="M53.5113 56.3905L49.6343 56.1301C49.6343 56.1301 50.618 57.895 51.2835 60.1518C52.0068 62.7268 50.618 66.4592 50.618 66.4592C50.618 66.4592 55.797 60.5858 53.5113 56.3905Z" fill="#463014"/>
<g id="Group_2">
<path id="Vector_4" d="M52.3251 60.7303C52.3251 60.7303 48.5059 65.3018 41.3884 62.7267C34.2709 60.1806 33.5476 51.0667 33.5476 48.4917C33.5476 45.9456 47.0303 51.0378 48.8821 52.1372C50.6759 53.2367 54.1479 57.6056 52.3251 60.7303ZM25.4753 12.0072C25.4753 12.0072 32.043 10.7341 36.4119 14.2061C40.7808 17.6491 42.0539 20.3977 42.0539 20.3977L34.676 26.2422C34.676 26.2422 31.1172 24.593 30.0177 19.848C28.9183 15.103 29.6705 12.9041 25.4753 12.0072ZM32.8821 61.743C32.8821 61.743 21.3668 57.7792 23.5367 53.7575C25.7357 49.7358 23.9707 47.5658 23.9707 47.5658C23.9707 47.5658 17.5476 52.3687 19.1968 57.4609C20.2095 60.5857 21.8876 62.8714 31.1751 67.2113C35.6307 75.4862 32.1009 90.3577 32.3034 90.4445C32.6506 90.5603 38.553 87.5223 38.1479 73.6055C38.0322 69.3234 37.685 63.5079 32.8821 61.743ZM47.9851 19.1247L36.5277 24.9981L39.1316 26.3001L38.7555 26.9366L41.4173 28.1518L51.949 35.9348C50.618 31.8263 46.7121 25.3742 46.7121 25.3742C46.7121 25.3742 45.6126 22.423 47.9851 19.1247Z" fill="#E78724"/>
<path id="Vector_5" d="M64.043 119.204C49.2004 119.204 44.166 111.653 44.166 111.653L46.4807 117.294C47.3486 119.754 56.7229 127.334 64.0141 127.334M45.7863 106.56C45.7863 106.56 47.1461 114.922 52.6145 114.922C57.2727 114.922 58.6325 107.862 58.6325 106.416L45.7863 106.56ZM36.6724 93.9744C37.1642 92.6435 38.8713 87.2331 39.421 82.3145C40.0865 76.4121 39.8261 67.7901 39.8261 67.7901C39.8261 67.7901 38.3794 73.432 37.0774 74.3579C35.8044 75.2548 33.4319 81.4754 33.4319 81.4754L31.5512 93.8009C33.2293 94.1191 34.6471 93.1354 36.6724 93.9744ZM23.45 57.3742C23.45 57.3742 26.5458 56.2748 27.4717 49.5334C28.3975 42.792 26.3722 36.9475 26.3722 36.9475C26.3722 36.9475 26.5458 46.235 25.4753 48.0867C24.3759 49.9095 23.4789 50.4592 22.2059 52.8317C20.9039 55.2042 22.7267 56.6509 23.45 57.3742Z" fill="#E78724"/>
</g>
<path id="Vector_6" d="M27.1532 13.5984L26.5167 13.1934C24.665 13.2512 27.1532 13.5984 27.1532 13.5984Z" fill="#FDC168"/>
<path id="Vector_7" d="M50.5023 17.1284C50.5023 17.1284 47.58 16.6366 46.1334 14.4666C44.6867 12.2677 40.5493 7.89881 33.9526 7.84095C27.3559 7.78308 20.8459 9.60586 20.8459 9.60586L26.5457 13.1936C27.1533 13.1646 28.1949 13.1936 29.9309 13.2514C37.0774 13.4829 38.1768 20.5425 38.1768 20.5425L63.3485 17.0706" fill="#FBA919"/>
<path id="Vector_8" d="M52.9327 56.1589C52.9327 56.1589 49.5186 59.573 44.3107 58.4736C39.0738 57.3741 35.9201 55.0595 35.6887 51.0667C35.4572 47.045 36.7881 45.4827 36.7881 45.4827C36.7881 45.4827 42.6326 47.3054 45.4101 49.7358C48.1877 52.1373 50.2709 56.0432 52.9327 56.1589Z" fill="white"/>
<path id="Vector_9" d="M48.8242 54.9438C48.8242 54.9438 45.8731 56.3037 42.5747 55.2042C38.2637 53.7576 37.9744 49.2729 37.9744 49.2729C37.9744 49.2729 35.3125 57.0559 42.7483 58.5604C48.7085 59.7467 52.2383 56.3037 52.2383 56.3037L48.8242 54.9438Z" fill="#C9C9C9"/>
<g id="Group_3">
<path id="Vector_10" d="M50.9074 15.4792C50.5891 8.79563 56.0574 3.50089 57.967 3.26943C58.0828 4.39782 57.8513 8.79563 59.7609 10.1555C60.3106 6.56779 62.1623 2.60397 69.5402 0C67.9489 4.19529 69.3377 7.69618 69.9742 9.31643C75.0086 4.74501 78.3937 5.49727 78.3937 5.49727C78.3937 5.49727 74.8928 11.5153 76.2527 15.4792C66.1551 14.698 50.9652 16.5497 50.9074 15.4792Z" fill="#463014"/>
<path id="Vector_11" d="M29.5259 25.6347C27.1245 23.6384 28.9183 21.7866 28.7158 19.5009C28.6001 18.2858 28.5133 17.1574 28.1082 16.5208C25.8804 13.0199 20.6724 11.9494 20.6146 11.9494L18.1553 11.4576L19.7755 9.54798C19.9781 9.31652 26.6616 2.95126 36.9907 6.27855C44.2239 8.62213 49.5476 16.4919 49.7501 16.8391L46.1335 18.5461C46.1046 18.4883 41.8514 11.0525 35.6597 9.05612C30.6543 7.43587 26.025 8.96932 24.0576 9.98198C26.1697 10.821 28.9183 12.3545 30.5675 14.9585C31.3487 16.2026 31.4934 17.736 31.6091 19.2405C31.7827 21.2369 31.9274 23.1176 33.403 24.3327L29.5259 25.6347Z" fill="#463014"/>
<path id="Vector_12" d="M23.074 54.8281C23.074 54.8281 26.1119 51.0668 27.0089 43.7467C27.3561 40.8534 26.7485 35.1826 25.7358 32.9836C25.9094 38.3652 24.5496 43.7467 24.5496 43.7467C24.5496 43.7467 23.6237 53.7286 23.074 54.8281Z" fill="#463014"/>
<path id="Vector_13" d="M39.0739 21.8443C39.0739 21.8443 38.0902 17.5912 35.3994 15.4502C31.6092 12.4122 26.951 14.0324 26.9221 14.0614L26.2566 11.9782C26.4881 11.8914 31.7828 10.2422 36.6725 13.6563C41.5911 17.0993 42.1697 20.253 42.2276 20.6002L39.0739 21.8443Z" fill="#463014"/>
<path id="Vector_14" d="M32.6218 52.1084C32.6218 52.1084 31.0305 49.8227 31.3198 47.3345C31.4645 46.0904 32.0432 44.8173 33.0558 44.3833C34.9654 43.5443 35.8044 45.7142 35.8044 45.7142C35.8044 45.7142 33.1137 46.3508 32.6218 52.1084Z" fill="#463014"/>
<path id="Vector_15" d="M50.0972 55.5802C50.1551 55.6959 50.184 55.7827 50.184 55.7827C50.184 55.7827 45.2075 59.5151 40.1443 55.7248C37.4246 53.6995 37.685 48.6941 38.524 46.5531C40.694 47.0449 42.5457 47.9419 44.0792 48.9545C42.1406 47.2185 40.4336 45.9455 40.4336 45.9166L38.2347 45.28L33.9526 43.8044C33.8947 44.1227 32.3324 51.4717 36.8459 56.4771C38.8423 58.7049 48.2455 63.6525 52.7012 55.1751L50.0972 55.5802Z" fill="#463014"/>
</g>
<path id="Vector_16" d="M63.3486 50.2566L63.175 47.6816L44.4553 37.8154L36.6724 31.5659L27.7031 40.9691L56.6361 54.6545L61.873 56.2458" fill="#FBA919"/>
<path id="Vector_17" d="M50.4155 47.5369C47.58 43.5152 42.9218 41.7792 39.2184 41.4899C32.8821 40.998 29.873 43.2258 29.873 43.2258C29.873 43.2258 40.26 43.6598 43.2401 47.5947C48.8242 54.9148 56.9543 55.4934 58.2563 53.9021C56.7518 53.9889 55.1026 53.2367 53.3377 51.5585C52.2093 50.517 51.3124 48.8099 50.4155 47.5369Z" fill="#E78724"/>
<g id="Group_4">
<path id="Vector_18" d="M49.6343 56.13C52.4408 60.3831 59.4715 57.9528 59.3558 53.4681C59.3558 53.4681 54.6397 56.0721 50.4734 51.2692C48.043 48.4627 40.26 40.7665 29.6995 43.3127C36.9906 44.9329 46.6542 51.5875 49.6343 56.13Z" fill="#463014"/>
<path id="Vector_19" d="M28.7157 68.1372C29.3812 68.5133 31.7537 70.9726 31.7537 74.6471C31.7537 76.4988 31.5801 85.7574 30.6542 91.3993C32.0141 92.2962 32.9689 92.4698 34.3576 93.3957C35.052 86.8568 35.5439 77.3668 35.3124 73.5187C35.052 69.1498 32.7085 66.2276 30.5385 64.9835L28.4264 63.8262C24.723 61.8298 20.8749 59.7466 20.8749 56.1879C20.8749 53.4103 21.9454 52.5423 23.1027 51.6164L23.2184 51.5296C23.9707 50.9221 24.8387 50.2277 25.3306 49.0703C26.7193 45.9456 26.9508 38.0179 25.3306 35.9926C24.5204 34.98 22.3794 31.6237 22.987 29.338C23.2184 28.47 23.7682 27.8335 24.6651 27.3706C25.5909 26.8787 26.864 26.6473 28.4264 26.6473C31.4933 26.6473 34.9074 27.5731 36.6433 28.1518C42.9218 30.1482 50.5023 35.8769 52.6722 37.5839C52.7301 37.6418 52.759 37.6707 52.788 37.6707L54.1767 38.6255L53.3088 37.1789C53.2509 37.0921 47.7536 28.0361 37.9164 24.7377C36.0068 24.1012 32.2455 23.0017 28.5421 23.0017C26.3432 23.0017 24.4626 23.3778 22.987 24.1301C21.1931 25.056 19.9779 26.5315 19.4571 28.3832C18.213 32.9257 22.2637 38.0179 22.4083 38.1626C22.8712 39.0017 23.0738 45.1065 22.0033 47.5658C21.8586 47.913 21.4535 48.2313 20.9327 48.6653C20.7591 48.8099 20.5855 48.9257 20.383 49.0703C18.8496 50.2277 16.5349 51.9926 16.5349 56.0143C16.5349 61.5405 22.1479 64.5495 26.6325 66.9509C27.3559 67.4139 28.0792 67.79 28.7157 68.1372Z" fill="#463014"/>
<path id="Vector_20" d="M29.5259 25.6345C27.1245 23.6381 28.9183 21.7864 28.7158 19.5007C28.6001 18.2855 28.5133 17.1571 28.1082 16.5206C25.8804 13.0197 20.6724 11.9492 20.6146 11.9492L18.1553 11.4573L19.7755 9.54774C19.9781 9.31627 26.6616 2.95102 36.9907 6.27831C44.2239 8.62188 49.5476 16.4917 49.7501 16.8389L46.1335 18.5459C46.1046 18.488 41.8514 11.0523 35.6597 9.05588C30.6543 7.43563 26.025 8.96908 24.0576 9.98173C26.1697 10.8208 28.9183 12.3542 30.5675 14.9582C31.3487 16.2023 31.4934 17.7358 31.6091 19.2403C31.7827 21.2367 31.9274 23.1173 33.403 24.3325L29.5259 25.6345Z" fill="#463014"/>
<path id="Vector_21" d="M29.4391 26.0686L29.2944 25.9529C27.5006 24.4773 27.8188 23.0017 28.1371 21.584C28.2818 20.9185 28.4264 20.2531 28.3686 19.5587C28.2818 18.4014 28.166 17.3019 27.8188 16.7522C25.7067 13.4249 20.6145 12.3544 20.5566 12.3544L17.4897 11.7468L19.5151 9.37425C19.544 9.31639 23.8261 5.00537 31.0883 5.00537C33.0557 5.00537 35.081 5.32363 37.1063 5.98909C44.6578 8.41947 50.0104 16.6075 50.0683 16.6943L50.2998 17.0415L46.0177 19.0668L45.8441 18.8064C45.3812 18.0252 41.3305 11.3128 35.5729 9.46105C34.1552 8.99813 32.6796 8.76666 31.1461 8.76666C28.3975 8.76666 26.1696 9.51892 24.9834 10.0108C26.9798 10.9077 29.3812 12.4122 30.8857 14.8137C31.7248 16.1156 31.8405 17.7359 31.9852 19.2693C32.1588 21.1789 32.3034 23.0017 33.6344 24.1301L34.1552 24.5641L29.4391 26.0686Z" fill="#463014"/>
<path id="Vector_22" d="M39.0737 21.8443C39.0737 21.8443 38.0899 17.5912 35.3992 15.4502C31.609 12.4122 26.9507 14.0324 26.9218 14.0614L26.2563 11.9782C26.4878 11.8914 31.7826 10.2422 36.6722 13.6563C41.5908 17.0993 42.1695 20.253 42.2274 20.6002L39.0737 21.8443Z" fill="#463014"/>
<path id="Vector_23" d="M38.8133 22.3362L38.7265 21.9312C38.7265 21.9022 37.7717 17.7938 35.1967 15.7395C33.7211 14.5822 31.9562 13.9746 29.9309 13.9746C28.3396 13.9746 27.1822 14.3507 27.0376 14.4086L26.6904 14.5243L25.7935 11.7468L26.1407 11.631C26.2853 11.5732 27.703 11.1392 29.6994 11.1392C32.3323 11.1392 34.8206 11.9204 36.8748 13.367C41.9091 16.8968 42.5457 20.1952 42.5746 20.5424L42.6325 20.8317L38.8133 22.3362ZM29.9309 13.2513C32.1009 13.2513 34.0683 13.9167 35.6596 15.1608C37.9453 16.9836 39.0158 20.1952 39.363 21.3525L41.8513 20.3688C41.6198 19.5008 40.6361 16.8679 36.4987 13.9457C34.5312 12.5569 32.2455 11.8625 29.7283 11.8625C28.3396 11.8625 27.269 12.0939 26.7483 12.2097L27.1822 13.5985C27.6741 13.4538 28.6868 13.2513 29.9309 13.2513ZM52.3829 112.925C51.3124 112.925 50.2129 112.52 49.4317 111.884C48.8531 111.392 46.8856 109.569 46.0176 107.341C45.6994 106.502 45.7572 105.837 46.2491 105.374C46.5674 105.056 47.2618 104.651 48.6216 104.651H55.9706C57.0122 104.651 57.7644 104.882 58.1984 105.316C58.7481 105.895 58.5746 106.589 58.4299 106.994C58.1695 107.66 57.0411 109.83 55.1605 111.826C54.4661 112.52 53.4823 112.925 52.3829 112.925ZM48.6505 123.197C34.7916 122.126 29.9309 109.048 29.9309 106.329H33.5475C33.5764 107.515 37.2509 118.712 48.9399 119.609L48.6505 123.197Z" fill="#463014"/>
</g>
<path id="Vector_24" d="M44.7736 99.7321C44.5711 98.488 44.5421 97.3017 44.8025 96.1155C43.7609 95.3343 41.8513 95.0449 40.4336 94.582C39.2763 93.8587 33.345 95.3343 29.034 90.1263C23.6525 83.6164 24.7809 79.7104 24.7809 79.7104C23.3921 81.2439 22.0612 80.6652 19.9491 87.8117C17.837 94.9581 20.9328 99.9635 26.7194 104.969C29.4391 107.341 33.3161 108.325 36.6145 108.672C35.515 107.544 38.5241 107.457 40.5783 106.676C40.4047 104.998 40.694 103.378 41.9382 102.076C42.6904 101.294 43.6741 100.803 44.6579 100.426C44.7157 100.311 44.7736 100.166 44.8025 100.05C44.8314 99.9925 44.8025 99.8768 44.7736 99.7321Z" fill="white"/>
<path id="Vector_25" d="M40.5781 106.676C40.4624 106.329 40.3756 105.953 40.2888 105.605C40.202 105.2 39.7101 104.101 40.3177 105.374C40.1731 105.056 40.0573 104.709 39.9995 104.361C30.6541 104.361 22.495 97.9382 24.0863 84.4265C22.8711 82.8062 21.1352 87.6959 21.1352 87.6959C21.1352 87.6959 16.448 101.294 28.542 106.56C32.5637 108.325 36.1224 109.569 36.9615 109.077C38.6975 109.425 40.2888 108.209 40.8964 107.399C40.7807 107.168 40.6649 106.936 40.5781 106.676Z" fill="#C9C9C9"/>
<g id="Group_5">
<path id="Vector_26" d="M44.6 97.7936C44.6 96.6652 44.8604 95.5368 45.4102 94.4374C45.4391 94.3506 45.497 94.2927 45.5259 94.2059C41.9382 94.177 37.7719 93.8298 34.242 92.4121C30.365 90.8497 25.5043 85.5549 24.6652 79.3054C24.6652 79.3054 17.3452 84.9473 19.5151 97.0124C21.5404 108.354 31.0015 112.029 41.8225 112.665C41.8225 112.578 40.6073 110.061 40.9834 108.528C34.8496 108.962 27.9636 106.589 24.6652 101.15C21.6272 96.1444 22.4952 87.6381 23.7394 86.394C26.7773 95.9998 37.7429 97.9383 44.6 97.7936Z" fill="#463014"/>
<path id="Vector_27" d="M45.7284 90.9075C43.7899 96.6073 39.7971 101.237 39.7971 101.237C39.7971 101.237 45.2655 100.976 45.5548 100.021C45.7862 99.2981 50.5023 88.2746 52.2962 75.3416C50.6181 78.1481 45.902 90.4157 45.7284 90.9075Z" fill="#463014"/>
</g>
<g id="Group_6">
<path id="Vector_28" d="M76.7156 77.743L87.4786 93.9454C88.173 94.987 82.9362 95.0449 82.9362 95.0449L76.7156 77.743ZM73.7644 58.0685L76.6577 65.215C77.7571 67.9057 82.0103 69.2367 82.0103 69.2367C82.0103 69.2367 79.8114 66.922 79.8114 61.1065C79.8114 58.6472 76.6577 57.6924 76.6577 57.6924L73.7644 58.0685Z" fill="#E78724"/>
<path id="Vector_29" d="M75.645 60.7304C75.645 60.7304 79.4642 65.3018 86.5817 62.7268C93.6992 60.1807 94.4225 51.0668 94.4225 48.4917C94.4225 45.9456 80.9397 51.0378 79.088 52.1373C77.2942 53.2367 73.8222 57.6056 75.645 60.7304Z" fill="#E78724"/>
</g>
<path id="Vector_30" d="M74.4587 56.3905L78.3357 56.1301C78.3357 56.1301 77.352 57.895 76.6865 60.1518C75.9632 62.7268 77.352 66.4592 77.352 66.4592C77.352 66.4592 72.2019 60.5858 74.4587 56.3905Z" fill="#463014"/>
<g id="Group_7">
<path id="Vector_31" d="M102.524 12.0072C102.524 12.0072 95.956 10.7341 91.5871 14.2061C87.2182 17.678 85.9451 20.3977 85.9451 20.3977L93.323 26.2422C93.323 26.2422 96.8818 24.593 97.9813 19.848C99.0518 15.103 98.3285 12.9041 102.524 12.0072ZM95.1169 61.743C95.1169 61.743 106.632 57.7792 104.462 53.7575C102.263 49.7358 104.028 47.5658 104.028 47.5658C104.028 47.5658 110.451 52.3687 108.831 57.4609C107.818 60.5857 106.14 62.8714 96.8529 67.2113C92.3972 75.4862 95.927 90.3577 95.7245 90.4445C95.3773 90.5603 89.475 87.5223 89.88 73.6055C89.9379 69.3234 90.2851 63.5079 95.1169 61.743ZM80.0139 19.1247L91.4713 24.9981L88.8674 26.3001L89.2435 26.9366L86.5817 28.1518L76.05 35.9348C77.381 31.8263 81.2869 25.3742 81.2869 25.3742C81.2869 25.3742 82.3864 22.423 80.0139 19.1247ZM63.9561 119.204C78.7987 119.204 83.833 111.652 83.833 111.652L81.5184 117.294C80.6504 119.754 71.2761 127.334 63.985 127.334" fill="#E78724"/>
<path id="Vector_32" d="M82.2127 106.56C82.2127 106.56 80.8529 114.922 75.3845 114.922C70.7263 114.922 69.3665 107.862 69.3665 106.416L82.2127 106.56ZM91.3266 93.9745C90.8347 92.6435 89.1277 87.2331 88.578 82.3145C87.9125 76.4121 88.1729 67.7901 88.1729 67.7901C88.1729 67.7901 89.6196 73.432 90.9215 74.3579C92.1946 75.2548 94.5671 81.4754 94.5671 81.4754L96.4477 93.8009C94.7407 94.1191 93.3519 93.1354 91.3266 93.9745ZM104.52 57.3742C104.52 57.3742 101.424 56.2748 100.498 49.5334C99.6014 42.792 101.598 36.9475 101.598 36.9475C101.598 36.9475 101.424 46.235 102.495 48.0867C103.594 49.9095 104.491 50.4592 105.764 52.8317C107.066 55.2042 105.243 56.6509 104.52 57.3742Z" fill="#E78724"/>
</g>
<path id="Vector_33" d="M100.817 13.5984L101.453 13.1934C103.334 13.2512 100.817 13.5984 100.817 13.5984Z" fill="#FDC168"/>
<path id="Vector_34" d="M77.4677 17.1284C77.4677 17.1284 80.3899 16.6366 81.8366 14.4666C83.2832 12.2677 87.4207 7.89881 94.0174 7.84095C100.614 7.78308 107.124 9.60586 107.124 9.60586L101.424 13.1936C100.817 13.1646 99.7751 13.1936 98.0391 13.2514C90.9216 13.4829 89.8221 20.5425 89.8221 20.5425L64.6504 17.0706" fill="#FBA919"/>
<path id="Vector_35" d="M75.0374 56.1589C75.0374 56.1589 78.4514 59.573 83.6594 58.4736C88.8963 57.3741 92.0499 55.0595 92.2814 51.0667C92.5129 47.045 91.182 45.4827 91.182 45.4827C91.182 45.4827 85.3375 47.3054 82.5599 49.7358C79.7824 52.1373 77.7281 56.0432 75.0374 56.1589Z" fill="white"/>
<path id="Vector_36" d="M79.1748 54.9438C79.1748 54.9438 82.126 56.3037 85.4244 55.2042C89.7354 53.7576 90.0247 49.2729 90.0247 49.2729C90.0247 49.2729 92.6865 57.0559 85.2508 58.5604C79.2906 59.7467 75.7607 56.3037 75.7607 56.3037L79.1748 54.9438Z" fill="#C9C9C9"/>
<g id="Group_8">
<path id="Vector_37" d="M98.4732 25.6347C100.875 23.6384 99.0808 21.7866 99.2833 19.5009C99.3991 18.2858 99.4859 17.1574 99.8909 16.5208C102.119 13.0199 107.327 11.9494 107.385 11.9494L109.844 11.4576L108.224 9.54798C108.021 9.31652 101.338 2.95126 91.0085 6.27855C83.7752 8.62213 78.4516 16.4919 78.249 16.8391L81.8656 18.5461C81.9235 18.4883 86.1477 11.0525 92.3394 9.05612C97.3448 7.43587 101.974 8.96932 103.942 9.98198C101.829 10.821 99.0808 12.3545 97.4316 14.9585C96.6504 16.2026 96.5058 17.736 96.39 19.2405C96.2164 21.2369 96.0718 23.1176 94.5962 24.3327L98.4732 25.6347Z" fill="#463014"/>
<path id="Vector_38" d="M104.896 54.8281C104.896 54.8281 101.858 51.0668 100.961 43.7467C100.614 40.8534 101.222 35.1826 102.234 32.9836C102.061 38.3652 103.421 43.7467 103.421 43.7467C103.421 43.7467 104.346 53.7286 104.896 54.8281Z" fill="#463014"/>
<path id="Vector_39" d="M88.8964 21.8446C88.8964 21.8446 89.8801 17.5914 92.5709 15.4504C96.3611 12.4124 101.019 14.0327 101.048 14.0616L101.714 11.9784C101.482 11.8916 96.1875 10.2425 91.2978 13.6566C86.3792 17.0996 85.8005 20.2533 85.7427 20.6005L88.8964 21.8446Z" fill="#463014"/>
<path id="Vector_40" d="M95.3775 52.1084C95.3775 52.1084 96.9688 49.8227 96.6794 47.3345C96.5348 46.0904 95.9561 44.8173 94.9435 44.3833C93.0339 43.5443 92.1948 45.7142 92.1948 45.7142C92.1948 45.7142 94.8567 46.3508 95.3775 52.1084Z" fill="#463014"/>
<path id="Vector_41" d="M77.9018 55.5804C77.844 55.6962 77.815 55.783 77.815 55.783C77.815 55.783 82.7915 59.5153 87.8548 55.7251C90.5745 53.6998 90.3141 48.6944 89.475 46.5533C87.305 47.0452 85.4533 47.9421 83.9199 48.9548C85.8584 47.2188 87.5654 45.9457 87.5654 45.9168L89.7644 45.2803L94.0464 43.8047C94.1043 44.123 95.6667 51.4719 91.1531 56.4773C89.1568 58.7052 79.7535 63.6527 75.2979 55.1754L77.9018 55.5804Z" fill="#463014"/>
</g>
<path id="Vector_42" d="M68.6431 53.4682L70.8131 54.8281L89.7932 45.4538L99.4279 42.8209L97.0843 30.0325L69.0193 45.4538L64.6504 48.7521" fill="#FBA919"/>
<path id="Vector_43" d="M77.5836 47.5369C80.4191 43.5152 85.0773 41.7792 88.7807 41.4899C95.117 40.998 98.1261 43.2258 98.1261 43.2258C98.1261 43.2258 87.7391 43.6598 84.759 47.5947C79.175 54.9148 71.0448 55.4934 69.7717 53.9021C71.2762 53.9889 72.9254 53.2367 74.6903 51.5585C75.7898 50.517 76.6867 48.8099 77.5836 47.5369Z" fill="#E78724"/>
<g id="Group_9">
<path id="Vector_44" d="M78.3647 56.13C75.5582 60.3831 68.5275 57.9528 68.6433 53.4681C68.6433 53.4681 73.3593 56.0721 77.5257 51.2692C79.9561 48.4627 87.739 40.7665 98.2996 43.3127C91.0085 44.9329 81.3448 51.5875 78.3647 56.13Z" fill="#463014"/>
<path id="Vector_45" d="M99.2833 68.1372C98.6178 68.5133 96.2453 70.9726 96.2453 74.6471C96.2453 76.4988 96.4189 85.7574 97.3448 91.3993C95.9849 92.2962 95.0302 92.4698 93.6414 93.3957C92.947 86.8568 92.4551 77.3668 92.6866 73.5187C92.947 69.1498 95.2906 66.2276 97.4605 64.9835L99.5726 63.8262C103.276 61.8298 107.124 59.7466 107.124 56.1879C107.124 53.4103 106.054 52.5423 104.896 51.6164L104.781 51.5296C104.028 50.9221 103.16 50.2277 102.668 49.0703C101.28 45.9456 101.048 38.0179 102.668 35.9926C103.479 34.98 105.62 31.6237 105.012 29.338C104.781 28.47 104.231 27.8335 103.334 27.3706C102.408 26.8787 101.135 26.6473 99.5726 26.6473C96.5057 26.6473 93.0917 27.5731 91.3557 28.1518C85.0772 30.1482 77.4968 35.8769 75.3268 37.5839C75.2689 37.6418 75.24 37.6707 75.211 37.6707L73.8223 38.6255L74.6903 37.1789C74.7481 37.0921 80.2454 28.0361 90.0826 24.7377C91.9922 24.1012 95.7535 23.0017 99.4569 23.0017C101.656 23.0017 103.508 23.3778 105.012 24.1301C106.806 25.056 108.021 26.5315 108.542 28.3832C109.786 32.9257 105.735 38.0179 105.591 38.1626C105.128 39.0017 104.925 45.1065 105.996 47.5658C106.14 47.913 106.545 48.2313 107.066 48.6653C107.24 48.8099 107.413 48.9257 107.616 49.0703C109.149 50.2277 111.464 51.9926 111.464 56.0143C111.464 61.5405 105.851 64.5495 101.366 66.9509C100.614 67.4139 99.9198 67.79 99.2833 68.1372Z" fill="#463014"/>
<path id="Vector_46" d="M92.5999 24.998C91.7029 23.4935 89.4172 20.5712 84.1804 18.0251C78.307 15.1608 71.5366 13.7141 64.0141 13.7141H63.9851C56.4625 13.7141 49.6633 15.1608 43.8188 18.0251C38.553 20.6002 36.2962 23.4935 35.3993 24.998L35.0232 25.5188L39.5078 26.5314L39.6525 26.3578L39.7393 26.1842C39.7971 25.8949 40.4047 24.2747 45.4391 21.8443C50.7917 19.2403 57.0412 17.9094 64.0141 17.9094C70.9869 17.9094 77.2364 19.2403 82.589 21.8443C87.5944 24.3036 88.202 25.8949 88.2888 26.1842L88.3467 26.3289L88.4914 26.5025L93.0049 25.4898L92.5999 24.998Z" fill="#463014"/>
<path id="Vector_47" d="M98.4732 25.6345C100.875 23.6381 99.0808 21.7864 99.2833 19.5007C99.3991 18.2855 99.4859 17.1571 99.8909 16.5206C102.119 13.0197 107.327 11.9492 107.385 11.9492L109.844 11.4573L108.224 9.54774C108.021 9.31627 101.338 2.95102 91.0085 6.27831C83.7752 8.62188 78.4516 16.4917 78.249 16.8389L81.8656 18.5459C81.9235 18.488 86.1477 11.0523 92.3394 9.05588C97.3448 7.43563 101.974 8.96908 103.942 9.98173C101.829 10.8208 99.0808 12.3542 97.4316 14.9582C96.6504 16.2023 96.5058 17.7358 96.39 19.2403C96.2164 21.2367 96.0718 23.1173 94.5962 24.3325L98.4732 25.6345Z" fill="#463014"/>
<path id="Vector_48" d="M93.8441 24.5062L94.3649 24.0722C95.7247 22.9438 95.8694 21.15 96.014 19.2115C96.1587 17.678 96.2744 16.0578 97.1135 14.7558C98.6469 12.3544 101.048 10.8498 103.016 9.95292C101.83 9.46106 99.6017 8.7088 96.8531 8.7088C95.3197 8.7088 93.8441 8.94026 92.4263 9.40319C86.6687 11.2549 82.6181 17.9674 82.1551 18.7486L81.9815 19.0089L77.6995 16.9836L77.9309 16.6364C77.9888 16.5496 83.3703 8.3616 90.8929 5.93123C92.9182 5.26577 94.9435 4.94751 96.911 4.94751C104.173 4.94751 108.455 9.25853 108.484 9.31639L110.509 11.6889L107.443 12.3254C107.385 12.3254 102.293 13.3959 100.18 16.7232C99.8332 17.273 99.7464 18.3724 99.6307 19.5297C99.5728 20.2241 99.7175 20.8896 99.8621 21.5551C100.18 22.9728 100.499 24.4194 98.7048 25.9239L98.5601 26.0397L93.8441 24.5062Z" fill="#463014"/>
<path id="Vector_49" d="M88.8964 21.8443C88.8964 21.8443 89.8801 17.5912 92.5709 15.4502C96.3611 12.4122 101.019 14.0324 101.048 14.0614L101.714 11.9782C101.482 11.8914 96.1875 10.2422 91.2978 13.6563C86.3792 17.0993 85.8005 20.253 85.7427 20.6002L88.8964 21.8443Z" fill="#463014"/>
<path id="Vector_50" d="M85.3377 20.8317L85.3666 20.5424C85.4245 20.1952 86.0321 16.8968 91.0664 13.367C93.1496 11.9204 95.6378 11.1392 98.2418 11.1392C100.238 11.1392 101.656 11.5732 101.801 11.631L102.148 11.7468L101.251 14.5243L100.904 14.4086C100.759 14.3507 99.6017 13.9746 98.0103 13.9746C95.985 13.9746 94.2201 14.5822 92.7445 15.7395C90.1695 17.7938 89.2147 21.9022 89.2147 21.9312L89.1279 22.3362L85.3377 20.8317ZM100.817 13.5985L101.28 12.2097C100.759 12.065 99.6885 11.8625 98.2997 11.8625C95.7825 11.8625 93.4968 12.5569 91.5293 13.9457C87.3919 16.8679 86.4082 19.4719 86.1767 20.3688L88.665 21.3525C88.9832 20.1952 90.0538 16.9836 92.3684 15.1608C93.9597 13.9167 95.9272 13.2513 98.0971 13.2513C99.3123 13.2513 100.296 13.4538 100.817 13.5985ZM72.8386 111.797C70.958 109.801 69.8585 107.631 69.5692 106.965C69.4245 106.589 69.2509 105.866 69.8007 105.287C70.2347 104.853 70.9869 104.622 72.0285 104.622H79.3775C80.7373 104.622 81.4317 105.027 81.75 105.345C82.2129 105.808 82.2997 106.473 81.9815 107.312C81.1135 109.54 79.146 111.334 78.5674 111.855C77.8151 112.52 76.7156 112.897 75.6162 112.897C74.4878 112.925 73.5041 112.52 72.8386 111.797Z" fill="#463014"/>
</g>
<path id="Vector_51" d="M63.9851 42.5025C61.4969 42.5025 58.2854 42.4446 55.855 40.6797C55.855 40.6797 59.0376 46.2348 63.9851 46.2348C68.9327 46.2348 72.1153 40.6797 72.1153 40.6797C69.7139 42.4157 66.4734 42.5025 63.9851 42.5025Z" fill="#E78724"/>
<path id="Vector_52" d="M70.8131 42.4736C68.3249 43.9781 66.097 44.4989 63.9849 44.5568C61.8728 44.4989 59.645 43.9781 57.1567 42.4736C57.1567 42.4736 60.7734 46.9004 63.956 46.9293H64.0139C67.1965 46.9004 70.8131 42.4736 70.8131 42.4736ZM79.3194 123.197L79.0301 119.58C90.719 118.683 94.3935 107.486 94.4224 106.3H98.0391C98.0391 109.048 93.1783 122.126 79.3194 123.197Z" fill="#463014"/>
<path id="Vector_53" d="M83.2255 99.7321C83.4569 98.488 83.457 97.3017 83.1966 96.1155C84.2381 95.3343 86.1477 95.0449 87.5654 94.582C88.7228 93.8587 94.654 95.3343 98.965 90.1263C104.347 83.6164 103.218 79.7104 103.218 79.7104C104.607 81.2439 105.938 80.6652 108.05 87.8117C110.162 94.9581 107.066 99.9635 101.28 104.969C98.56 107.341 94.683 108.325 91.3846 108.672C92.484 107.544 89.475 107.457 87.4208 106.676C87.5944 104.998 87.305 103.378 86.0609 102.076C85.3087 101.294 84.3249 100.803 83.3412 100.426C83.2834 100.311 83.2255 100.166 83.1966 100.05C83.1676 99.9925 83.1965 99.8768 83.2255 99.7321Z" fill="white"/>
<path id="Vector_54" d="M87.3918 106.676C87.5075 106.329 87.5943 105.953 87.6811 105.605C87.7679 105.2 88.2597 104.101 87.6521 105.374C87.7968 105.056 87.9126 104.709 87.9704 104.361C97.3158 104.361 105.475 97.9382 103.884 84.4265C105.099 82.8062 106.835 87.6959 106.835 87.6959C106.835 87.6959 111.522 101.294 99.4279 106.56C95.4062 108.325 91.8474 109.569 91.0084 109.077C89.2435 109.425 87.6811 108.209 87.0735 107.399C87.2182 107.168 87.305 106.936 87.3918 106.676Z" fill="#C9C9C9"/>
<g id="Group_10">
<path id="Vector_55" d="M83.3702 97.7936C83.3702 96.6652 83.1098 95.5368 82.5601 94.4374C82.5311 94.3506 82.4733 94.2927 82.4443 94.2059C86.032 94.177 90.1984 93.8298 93.7282 92.4121C97.6052 90.8497 102.466 85.5549 103.305 79.3054C103.305 79.3054 110.625 84.9473 108.455 97.0124C106.43 108.354 96.9398 112.029 86.1478 112.665C86.1478 112.578 87.3629 110.061 86.9868 108.528C93.1206 108.962 100.007 106.589 103.305 101.15C106.343 96.1444 105.475 87.6381 104.231 86.394C101.193 95.9998 90.2562 97.9383 83.3702 97.7936Z" fill="#463014"/>
<path id="Vector_56" d="M87.7391 100.629C86.4372 99.2401 84.0646 97.562 78.5963 97.562H49.374C43.9056 97.562 41.5331 99.2401 40.2311 100.629C38.3505 102.654 38.0612 105.49 39.3632 109.019C42.8351 118.423 47.6959 128 63.9851 128H64.043C80.3323 128 85.193 118.423 88.665 109.019C89.938 105.49 89.6487 102.654 87.7391 100.629ZM85.222 108.354C83.5728 113.07 79.146 124.528 63.9851 124.528C48.8532 124.499 44.3975 113.07 42.7483 108.354C41.8225 105.721 41.9093 103.783 42.9508 102.596C43.6742 101.786 45.3233 100.803 49.1136 100.803H78.7988C82.5891 100.803 84.2382 101.786 84.9616 102.596C86.061 103.812 86.1189 105.75 85.222 108.354Z" fill="#463014"/>
<path id="Vector_57" d="M82.2419 90.9075C84.1804 96.6073 88.1731 101.237 88.1731 101.237C88.1731 101.237 82.7048 100.976 82.4155 100.021C82.184 99.2981 77.4679 88.2746 75.6741 75.3416C77.3522 78.1481 82.0972 90.4157 82.2419 90.9075Z" fill="#463014"/>
</g>
</g>
</g>
</g>
<defs>
<clipPath id="clip0_364_680">
<rect width="128" height="128" fill="white"/>
</clipPath>
</defs>
</svg>
