<svg width="128" height="128" viewBox="0 0 128 128" fill="none" xmlns="http://www.w3.org/2000/svg">
<g id="SkillItemImg" clip-path="url(#clip0_364_739)">
<g id="joomla-icon 1" clip-path="url(#clip1_364_739)">
<path id="Vector" d="M22.87 64.4259L20.48 62.0399C12.8 54.3599 10.58 43.6079 13.312 33.8799C5.632 32.1699 0 25.3439 0 17.1519C0 7.76594 7.68 0.0859375 17.066 0.0859375C25.6 0.0859375 32.6 6.22994 33.96 14.4199C43.176 12.1999 53.246 14.7599 60.414 21.9299L61.438 22.9539L48.808 35.5839L47.784 34.5599C43.688 30.4639 37.032 30.4639 32.936 34.5599C28.84 38.6559 28.84 45.3119 32.936 49.4079L61.27 77.7399L48.64 90.3699L35.328 77.0579L22.87 64.4259Z" fill="#7AC143"/>
<path id="Vector_2" d="M37.0339 50.4319L65.3659 22.0999C72.8739 14.5919 83.7999 12.1999 93.3539 14.9339C94.5479 6.57391 101.714 0.253906 110.25 0.253906C119.636 0.253906 127.316 7.93391 127.316 17.3199C127.316 26.0239 120.83 33.1919 112.468 34.2159C115.198 43.7759 112.808 54.5259 105.3 62.0359L104.276 63.0599L91.9879 50.4299L93.0119 49.4059C97.1079 45.3099 97.1079 38.6539 93.0119 34.5579C88.9159 30.4619 82.2599 30.4619 78.1639 34.5579L49.8339 62.8899L37.0339 50.4319Z" fill="#F9A541"/>
<path id="Vector_3" d="M93.866 114.09C84.138 116.99 73.216 114.77 65.536 107.09L64.512 106.066L77.142 93.436L78.166 94.46C82.262 98.556 88.918 98.556 93.014 94.46C97.11 90.364 97.11 83.708 93.014 79.612L64.68 51.286L77.31 38.656L105.81 67.156C112.978 74.324 115.538 84.564 113.32 93.95C121.68 95.144 128 102.31 128 110.846C128 120.232 120.32 127.912 110.934 127.912C102.4 127.742 95.404 121.768 93.868 114.088L93.866 114.09Z" fill="#F44321"/>
<path id="Vector_4" d="M88.92 78.5921L60.586 106.92C53.246 114.26 43.006 116.648 33.792 114.43C32.086 122.11 25.258 127.742 17.066 127.742C7.68 127.744 0 120.064 0 110.68C0 102.66 5.632 95.8321 13.14 94.1261C10.75 84.5661 13.14 74.3261 20.48 66.9901L21.504 65.9661L34.134 78.5961L33.11 79.6201C29.014 83.7161 29.014 90.3721 33.11 94.4681C37.206 98.5641 43.862 98.5641 47.958 94.4681L76.288 66.1381L88.92 78.5921Z" fill="#5091CD"/>
</g>
</g>
<defs>
<clipPath id="clip0_364_739">
<rect width="128" height="128" fill="white"/>
</clipPath>
<clipPath id="clip1_364_739">
<rect width="128" height="128" fill="white"/>
</clipPath>
</defs>
</svg>
