<svg width="128" height="128" viewBox="0 0 128 128" fill="none" xmlns="http://www.w3.org/2000/svg">
<g id="SkillItemImg" clip-path="url(#clip0_364_672)">
<g id="nodejs-icon 1">
<path id="Vector" d="M58.624 1.70795C61.824 -0.104051 65.904 -0.112051 69.024 1.70795L116.8 28.6399C119.788 30.3199 121.788 33.652 121.76 37.096V91.0959C121.78 94.6839 119.584 98.0879 116.432 99.7359L68.912 126.544C67.2867 127.442 65.4505 127.889 63.5942 127.837C61.7379 127.786 59.9292 127.239 58.356 126.252L44.096 118.012C43.124 117.432 42.032 116.972 41.344 116.032C41.952 115.216 43.032 115.112 43.912 114.752C45.896 114.12 47.712 113.152 49.536 112.128C49.996 111.808 50.56 111.928 51 112.216L63.16 119.248C64.028 119.748 64.908 119.088 65.652 118.668L112.312 92.3359C112.888 92.0559 113.208 91.4479 113.16 90.8159V37.3359C113.224 36.6159 112.812 35.9599 112.16 35.6679L64.76 8.97595C64.4869 8.78702 64.1628 8.68548 63.8307 8.68476C63.4985 8.68405 63.174 8.78419 62.9 8.97195L15.568 35.72C14.928 36.012 14.488 36.66 14.568 37.38V90.8599C14.512 91.4919 14.848 92.0879 15.428 92.3599L28.076 99.4999C30.452 100.78 33.368 101.5 35.984 100.56C37.1288 100.129 38.1143 99.3574 38.8085 98.3501C39.5027 97.3428 39.8724 96.1473 39.868 94.924L39.88 41.764C39.824 40.976 40.568 40.3239 41.332 40.4039H47.412C48.212 40.3839 48.84 41.2319 48.732 42.0239L48.72 95.5199C48.724 100.272 46.772 105.44 42.376 107.772C36.96 110.572 30.264 109.984 24.912 107.292L11.312 99.7719C8.11203 98.1719 5.96403 94.716 5.98403 91.132V37.132C5.99733 35.3769 6.47983 33.6573 7.38149 32.1514C8.28316 30.6456 9.57118 29.4084 11.112 28.5679L58.624 1.70795ZM72.4 39.1399C79.308 38.7399 86.704 38.8759 92.92 42.2799C97.732 44.8879 100.4 50.36 100.488 55.712C100.352 56.432 99.6 56.8319 98.912 56.7799C96.912 56.7759 94.904 56.808 92.896 56.768C92.044 56.8 91.552 56.016 91.444 55.264C90.868 52.704 89.472 50.172 87.064 48.936C83.368 47.084 79.08 47.176 75.048 47.216C72.104 47.376 68.94 47.6279 66.448 49.3559C64.528 50.6679 63.952 53.356 64.636 55.444C65.276 56.976 67.048 57.468 68.492 57.924C76.82 60.1 85.64 59.9239 93.812 62.7519C97.192 63.9199 100.5 66.1919 101.66 69.7319C103.172 74.4759 102.512 80.1479 99.14 83.9559C96.404 87.0919 92.42 88.7559 88.44 89.7239C83.148 90.9039 77.66 90.9319 72.288 90.4039C67.236 89.8279 61.98 88.4999 58.08 85.0599C54.744 82.1639 53.12 77.6519 53.28 73.2999C53.32 72.5639 54.052 72.0519 54.76 72.1119H60.76C61.568 72.0559 62.16 72.7519 62.2 73.5119C62.572 75.9119 63.488 78.5119 65.616 79.9119C69.72 82.5599 74.868 82.376 79.564 82.452C83.456 82.28 87.824 82.2279 91.004 79.6519C92.684 78.1839 93.176 75.7319 92.724 73.6199C92.232 71.8359 90.324 71.0079 88.724 70.4199C80.504 67.8199 71.584 68.7639 63.444 65.8199C60.14 64.6519 56.944 62.444 55.676 59.048C53.904 54.248 54.716 48.2999 58.448 44.6199C62.048 40.9599 67.328 39.5479 72.328 39.0439L72.4 39.1399Z" fill="#8CC84B"/>
</g>
</g>
<defs>
<clipPath id="clip0_364_672">
<rect width="128" height="128" fill="white"/>
</clipPath>
</defs>
</svg>
