<svg width="128" height="128" viewBox="0 0 128 128" fill="none" xmlns="http://www.w3.org/2000/svg">
<g id="SkillItemImg">
<g id="371394 1" clip-path="url(#clip0_362_561)">
<g id="Group">
<path id="Vector" d="M88.6905 83.997C93.4142 83.5364 96.9976 79.6977 96.8347 75.0914C96.6719 70.485 92.5997 66.7999 87.7132 66.7999H87.3874C82.3379 66.9535 78.4287 70.9457 78.5916 75.7056C78.7545 78.0087 79.7318 80.0048 81.1977 81.3867C75.6596 91.6742 67.1896 99.198 54.4845 105.493C45.8516 109.793 36.8929 111.328 27.9342 110.253C20.6044 109.332 14.9034 106.261 11.3199 101.194C6.10759 93.6703 5.61893 85.5324 10.0168 77.3946C13.1117 71.5598 17.9982 67.2606 21.093 65.1109C20.4415 63.1149 19.4642 59.7369 18.9755 57.2801C-4.64285 73.4024 -2.19957 95.2058 4.96739 105.493C10.3426 113.171 21.2559 117.93 33.3094 117.93C36.5672 117.93 39.8249 117.623 43.0826 116.856C63.9319 113.017 79.7318 101.348 88.6905 83.997ZM117.358 64.9574C104.979 51.2919 86.7358 43.7682 65.8865 43.7682H63.2804C61.8144 41.0044 58.7196 39.1618 55.299 39.1618H54.9732C49.9238 39.3154 46.0145 43.3075 46.1774 48.0674C46.3403 52.6738 50.4124 56.3589 55.299 56.3589H55.6247C59.2082 56.2053 62.303 54.0557 63.6061 51.1383H66.5381C78.9174 51.1383 90.6451 54.5163 101.233 61.1188C109.377 66.1858 115.241 72.7882 118.499 80.7725C121.268 87.2214 121.105 93.5168 118.173 98.8909C113.612 107.029 105.956 111.482 95.8574 111.482C89.342 111.482 83.1524 109.639 79.8947 108.257C78.1029 109.793 74.8452 112.249 72.5648 113.785C79.5689 116.856 86.7359 118.545 93.577 118.545C109.214 118.545 120.779 110.407 125.177 102.269C129.9 93.3632 129.575 78.0087 117.358 64.9574ZM34.6125 86.6073C34.7754 91.2136 38.8476 94.8987 43.7341 94.8987H44.0599C49.1093 94.7452 53.0186 90.753 52.8557 85.9931C52.6928 81.3867 48.6207 77.7016 43.7341 77.7016H43.4083C43.0826 77.7016 42.5939 77.7016 42.2681 77.8552C35.5898 67.4141 32.8208 56.0518 33.7981 43.7682C34.4496 34.5555 37.7074 26.5711 43.4083 19.9687C48.132 14.2875 57.2536 11.5237 63.4432 11.3702C80.7091 11.0631 88.0389 31.331 88.5276 39.4689C90.6451 39.9296 94.2286 41.0044 96.6719 41.7721C94.7172 16.8978 78.4287 4 62.7917 4C48.132 4 34.6125 13.9804 29.2373 28.7208C21.7446 48.3745 26.6311 67.2606 35.7527 82.1545C34.9383 83.2293 34.4496 84.9183 34.6125 86.6073Z" fill="#764ABC"/>
</g>
</g>
</g>
<defs>
<clipPath id="clip0_362_561">
<rect width="128" height="115" fill="white" transform="translate(0 4)"/>
</clipPath>
</defs>
</svg>
