<svg width="128" height="128" viewBox="0 0 128 128" fill="none" xmlns="http://www.w3.org/2000/svg">
<g id="SkillItemImg" clip-path="url(#clip0_364_1318)">
<g id="tilda_logo_white 1" clip-path="url(#clip1_364_1318)">
<g id="Group">
<path id="Vector" d="M67.1147 56.7892V101.163H58.8374V53.6746L67.1147 56.7892Z" fill="white"/>
<path id="Vector_2" d="M34.0481 52.6507C34.0481 41.3014 40.2348 35.1147 47.4881 35.1147C54.7414 35.1147 55.7654 36.1387 64.0001 40.2774C72.2348 44.4161 74.3254 45.4401 78.4641 45.4401C82.6028 45.4401 84.6508 42.3254 84.6508 36.1387H91.8614C92.8854 48.5121 85.6748 53.6747 78.4214 53.6747C71.1681 53.6747 69.1201 52.6507 61.9094 48.5121C54.6988 44.3734 52.6081 43.3494 48.4694 43.3494C44.3308 43.3494 42.2828 46.4641 41.2588 53.6747L34.0481 52.6507Z" fill="white"/>
<path id="Vector_3" d="M64 128C28.7147 128 0 99.2853 0 64C0 28.7147 28.7147 0 64 0C99.2853 0 128 28.7147 128 64C128 99.2853 99.2853 128 64 128ZM64 4.13867C30.976 4.13867 4.13867 30.976 4.13867 64C4.13867 97.024 30.976 123.861 64 123.861C97.024 123.861 123.861 97.024 123.861 64C123.861 30.976 97.024 4.13867 64 4.13867Z" fill="white"/>
</g>
</g>
</g>
<defs>
<clipPath id="clip0_364_1318">
<rect width="128" height="128" fill="white"/>
</clipPath>
<clipPath id="clip1_364_1318">
<rect width="128" height="128" fill="white"/>
</clipPath>
</defs>
</svg>
