<svg width="128" height="128" viewBox="0 0 128 128" fill="none" xmlns="http://www.w3.org/2000/svg">
<g id="SkillItemImg" clip-path="url(#clip0_364_735)">
<g id="1c_bitrix_logo 1" clip-path="url(#clip1_364_735)">
<g id="layer1">
<path id="path821" d="M51.6473 127.262C40.4516 124.947 30.0046 119.783 21.8032 112.51C0.748356 93.839 -5.75874 64.5074 5.36408 38.4087C8.09556 31.9996 12.5362 25.4952 18.0383 19.8444L22.889 14.8626L23.2312 44.0211C23.5586 71.931 23.6324 73.3369 24.9547 76.854C27.5999 83.8901 30.4357 88.37 35.3177 93.2245C47.9285 105.765 66.4262 108.894 82.1508 101.148C96.9309 93.8675 106.249 78.0365 105.166 62.0456C104.439 51.3044 100.821 43.428 93.0101 35.5803C87.104 29.6463 80.1553 25.7701 72.5901 24.1896C64.893 22.5816 65.2623 22.3466 65.2623 28.8518V34.4679L69.4821 35.2442C85.824 38.2508 96.6321 54.2738 93.2258 70.4443C92.1379 75.609 89.7113 80.1696 85.816 84.3707C79.8962 90.755 71.5676 93.8067 64.2953 93.7926C52.2705 93.7695 42.2295 86.9467 37.3629 76.8572C37.3629 76.8572 36.0881 73.9733 35.6784 72.1912C33.2691 61.7108 34.8091 39.649 34.8091 39.649L34.6225 7.39085L36.5298 6.40609C37.5787 5.86447 38.5848 5.42133 38.7654 5.42133C38.946 5.42133 39.1753 20.2375 39.2749 38.3461C39.2749 38.3461 36.9589 62.0841 39.821 71.1808C40.2339 72.4933 41.0179 74.7382 41.0179 74.7382C43.5268 79.8419 47.5479 84.3314 52.7727 86.8025C56.7388 88.6783 58.7356 89.5272 64.6032 89.5272C68.4369 89.5272 71.8331 88.3189 75.741 86.5243C80.3477 84.4088 85.6322 78.7999 87.5851 73.6788C92.9655 59.5693 85.4737 44.3892 71.0407 40.1564C65.1421 38.4265 65.2623 38.3312 65.2623 44.7355V50.3296L68.0938 51.0858C78.2999 53.8113 81.4141 67.4705 73.4021 74.489C70.5713 76.9687 68.0205 78.0648 63.5585 78.0648C58.7907 78.0648 54.214 75.1833 51.8612 70.7637C50.4479 68.1089 50.3286 65.5907 50.3286 64.4374C50.3286 53.7839 50.0974 34.6239 50.0974 34.6239L49.9065 1.75774L51.3718 1.39435C52.1777 1.19449 55.435 0.699947 58.6101 0.29537C69.3786 -1.07673 85.3098 2.44201 96.0127 8.55646C110.604 16.8926 121.645 31.2128 126.242 47.7647C127.824 53.4582 128 55.1136 128 64.2724C128 73.3903 127.82 75.1006 126.272 80.6695C120.02 103.166 104.115 119.247 81.3732 126.068C76.5871 127.503 74.3449 127.777 65.8995 127.957C59.0841 128.102 54.6669 127.886 51.6473 127.262Z" fill="#C60C30"/>
</g>
</g>
</g>
<defs>
<clipPath id="clip0_364_735">
<rect width="128" height="128" fill="white"/>
</clipPath>
<clipPath id="clip1_364_735">
<rect width="128" height="128" fill="white"/>
</clipPath>
</defs>
</svg>
