<svg width="128" height="128" viewBox="0 0 128 128" fill="none" xmlns="http://www.w3.org/2000/svg">
<g id="SkillItemImg" clip-path="url(#clip0_364_642)">
<g id="gatsbyjs-icon 1" clip-path="url(#clip1_364_642)">
<path id="Vector" d="M114.286 64.0001H82.2861V73.1401H104.226C101.026 86.8541 90.9661 98.2801 77.7121 102.854L25.1401 50.2861C30.6261 34.2861 46.1681 22.8581 64.0001 22.8581C77.7141 22.8581 90.0601 29.7181 97.8281 40.2301L104.688 34.2901C95.5401 21.9401 80.9141 13.7141 64.0001 13.7141C40.2281 13.7141 20.1141 30.6281 15.0861 53.0281L75.4261 113.368C97.3661 107.882 114.286 87.7681 114.286 63.9961V64.0001ZM13.7141 64.4601C13.7141 77.2601 18.7421 89.6001 28.3421 99.2001C37.9421 108.8 50.7421 113.828 63.0821 113.828L13.7141 64.4601Z" fill="white"/>
<path id="Vector_2" d="M64 0C28.8 0 0 28.8 0 64C0 99.2 28.8 128 64 128C99.2 128 128 99.2 128 64C128 28.8 99.2 0 64 0ZM28.34 99.66C18.74 90.06 13.712 77.26 13.712 64.92L63.54 114.286C50.74 113.826 37.94 109.258 28.34 99.658V99.66ZM74.968 112.92L15.086 53.028C20.114 30.628 40.228 13.714 64 13.714C80.914 13.714 95.54 21.942 104.686 34.286L97.826 40.226C90.06 29.714 77.714 22.86 64 22.86C46.172 22.86 31.086 34.288 25.14 50.288L77.714 102.86C90.974 98.288 101.028 86.86 104.228 73.146H82.288V64H114.288C114.288 87.772 97.374 107.886 74.974 112.914L74.968 112.92Z" fill="#663399"/>
</g>
</g>
<defs>
<clipPath id="clip0_364_642">
<rect width="128" height="128" fill="white"/>
</clipPath>
<clipPath id="clip1_364_642">
<rect width="128" height="128" fill="white"/>
</clipPath>
</defs>
</svg>
