<svg width="128" height="128" viewBox="0 0 128 128" fill="none" xmlns="http://www.w3.org/2000/svg">
<g id="SkillItemImg" clip-path="url(#clip0_364_727)">
<g id="drupal-icon 1">
<path id="path2" d="M91.8678 23.8004C85.3341 19.7281 79.1671 18.1271 73.003 14.0577C69.1789 11.4693 63.878 5.3023 59.4362 0C58.5743 8.50709 55.9845 11.9602 53.0252 14.4272C46.7355 19.36 42.7887 20.841 37.3637 23.8018C32.8005 26.1433 8.01416 40.9401 8.01416 72.7539C8.01416 104.572 34.7739 128 64.4916 128C94.2136 128 119.986 106.42 119.986 73.7413C119.986 41.0629 95.816 26.2661 91.8678 23.8004ZM92.583 116.395C91.9651 117.013 86.2919 120.957 79.634 121.575C72.9733 122.193 63.9725 122.562 58.5461 117.63C57.6843 116.766 57.9311 115.533 58.5461 115.041C59.1639 114.546 59.6576 114.176 60.3968 114.176C61.1359 114.176 61.0146 114.176 61.3842 114.423C63.8484 116.395 67.5483 117.999 75.4404 117.999C83.3353 117.999 88.8831 115.779 91.3473 113.93C92.4602 113.066 92.9511 113.807 93.0738 114.301C93.198 114.793 93.4448 115.532 92.583 116.395ZM71 105.173C72.3583 103.94 74.5786 101.968 76.6732 101.103C78.7679 100.242 79.8809 100.364 81.8528 100.364C83.8248 100.364 85.9209 100.486 87.4034 101.474C88.8831 102.459 89.7463 104.679 90.2386 105.913C90.7323 107.146 90.2386 107.884 89.254 108.378C88.3908 108.873 88.2667 108.625 87.4034 107.024C86.5401 105.418 85.7982 103.816 81.4833 103.816C77.1655 103.816 75.8114 105.297 73.7139 107.024C71.6178 108.75 70.8787 109.366 70.1395 108.378C69.399 107.393 69.6444 106.406 71 105.173ZM103.681 106.16C99.2422 105.791 90.3613 91.9785 84.6881 91.7316C77.5379 91.4848 61.9978 106.653 49.7908 106.653C42.3938 106.653 40.1721 105.544 37.7065 103.94C34.0066 101.35 32.1573 97.4035 32.2801 91.9785C32.4056 82.3599 41.4064 73.3577 52.7501 73.2335C67.1788 73.1136 77.1669 87.5409 84.444 87.4167C90.6096 87.294 102.448 75.2097 108.243 75.2097C114.409 75.2097 116.138 81.6221 116.138 85.4448C116.138 89.2674 114.902 96.1721 111.943 100.487C108.982 104.803 107.133 106.406 103.681 106.16Z" fill="#0073BA"/>
</g>
</g>
<defs>
<clipPath id="clip0_364_727">
<rect width="128" height="128" fill="white"/>
</clipPath>
</defs>
</svg>
