<svg width="128" height="128" viewBox="0 0 128 128" fill="none" xmlns="http://www.w3.org/2000/svg">
<g id="SkillItemImg" clip-path="url(#clip0_364_1302)">
<g id="lesscss-icon 1" clip-path="url(#clip1_364_1302)">
<g id="Group">
<path id="Vector" d="M64 128C99.3462 128 128 99.3462 128 64C128 28.6538 99.3462 0 64 0C28.6538 0 0 28.6538 0 64C0 99.3462 28.6538 128 64 128Z" fill="#214674"/>
<path id="Vector_2" d="M78.464 63.2319C83.584 65.0239 86.272 68.0959 86.272 72.5759C86.272 75.5199 85.248 77.6959 83.072 79.4879C80.896 81.1519 77.952 82.1759 73.984 82.1759C70.272 82.1759 66.816 81.1519 63.616 79.4879C63.232 79.2319 62.976 78.8479 62.976 78.3359C63.131 77.4555 63.3888 76.5963 63.744 75.7759L64.768 73.7279C65.152 73.2159 65.664 73.0879 66.304 73.3439C69.12 74.6239 71.424 75.3919 73.6 75.3919C74.624 75.3919 75.52 75.2639 76.16 74.8799C76.8 74.4959 77.056 73.9839 77.056 73.4719C77.056 72.3199 76.16 71.4239 74.368 70.9119L71.168 69.7599C66.304 67.9679 63.872 65.1519 63.872 61.0559C63.872 58.1119 64.896 55.8079 66.944 54.1439C68.992 52.4799 71.68 50.9439 75.136 50.9439C76.8 50.9439 78.72 51.1999 80.768 51.7119C82.56 52.0959 83.968 52.9919 85.248 53.7599C85.632 54.0159 85.888 54.3999 85.888 54.9119C85.888 55.8079 85.632 56.7039 85.248 57.7279C84.864 58.6239 84.48 59.3919 83.968 59.9039C83.584 60.2879 83.072 60.4159 82.688 60.1599C79.744 58.8799 77.312 58.2399 75.264 58.2399C74.496 58.2399 73.856 58.3679 73.472 58.7519C73.088 59.1359 72.832 59.5199 72.832 60.0319C72.832 60.9279 73.6 61.6959 75.008 62.2079L78.464 63.2319ZM102.272 67.8399C100.608 69.2479 99.712 71.2959 99.712 74.1119V84.2239C99.712 87.5519 98.688 90.1119 96.384 91.9039C94.08 93.6959 91.392 94.4639 88.32 94.5919H86.528V90.3679C86.528 89.8559 86.784 89.4719 87.296 89.3439C88.448 88.9599 88.96 88.4479 89.472 87.9359C90.624 86.9119 91.52 85.1199 91.52 82.8159V74.6239C91.52 71.8079 91.776 69.6319 92.8 68.0959C93.568 66.9439 94.848 65.9199 96.64 64.8959C97.408 64.5119 97.408 63.3599 96.64 62.8479C94.464 61.5679 93.056 60.0319 92.16 58.1119C91.52 56.7039 91.52 54.7839 91.52 52.3519V44.9279C91.52 42.4959 90.752 40.7039 89.728 39.8079C89.1103 39.154 88.3056 38.7069 87.424 38.5279C86.912 38.3999 86.656 37.8879 86.656 37.3759V34.6879C86.656 34.0479 87.168 33.5359 87.808 33.5359H91.264C93.184 33.5359 94.848 34.5599 96.256 35.7119C97.792 36.9919 98.944 38.5279 99.584 40.7039C99.968 41.8559 99.968 43.0079 99.968 44.1599V52.7359C99.968 55.8079 100.864 58.1119 102.4 59.5199C103.168 60.2879 104.192 60.9279 105.856 61.5679C106.368 61.6959 106.624 62.2079 106.624 62.5919V64.7679C106.624 65.2799 106.368 65.6639 105.856 65.9199C104.064 66.4319 103.04 67.0719 102.272 67.8399ZM39.424 33.5359H37.76C35.84 33.5359 34.176 34.5599 32.768 35.7119C31.232 36.9919 29.824 38.5279 29.44 40.7039C29.184 41.9839 29.312 43.0079 29.312 44.1599V52.7359C29.312 55.8079 28.16 57.9839 26.624 59.5199C25.856 60.2879 24.32 60.9279 22.528 61.5679C22.016 61.8239 21.76 62.2079 21.76 62.7199V64.8959C21.76 65.4079 22.016 65.7919 22.528 66.0479C24.064 66.5599 25.472 67.1999 26.368 67.9679C28.032 69.3759 29.184 71.4239 29.184 74.2399V84.3519C29.184 87.6799 29.952 90.2399 32.256 92.0319C34.56 93.8239 37.248 94.5919 40.32 94.7199H41.216C41.856 94.7199 42.368 94.2079 42.368 93.5679V90.4959C42.368 89.9839 42.112 89.5999 41.6 89.4719C40.448 89.0879 39.68 88.5759 39.168 88.0639C38.016 87.0399 37.376 85.2479 37.376 82.9439V74.7519C37.376 71.9359 36.864 69.7599 35.84 68.2239C35.072 67.0719 33.792 66.0479 32 65.0239C31.232 64.6399 31.232 63.4879 32 62.9759C34.176 61.6959 35.584 60.1599 36.48 58.2399C37.12 56.8319 37.376 54.9119 37.376 52.4799V45.0559C37.376 42.6239 37.888 40.8319 38.912 39.9359C39.424 39.4239 40.32 39.0399 41.6 38.6559H42.752C43.392 38.6559 43.904 38.1439 43.904 37.5039V34.8159C43.904 34.1759 43.392 33.6639 42.752 33.6639L39.424 33.5359ZM60.16 74.3679H58.624C56.96 74.3679 56.32 73.4719 56.32 71.6799V38.5279C56.32 36.4799 55.68 35.0719 55.04 34.3039C54.272 33.5359 52.992 33.5359 51.2 33.5359H48.384C47.744 33.5359 47.232 34.0479 47.232 34.6879V73.3439C47.232 76.1599 47.872 78.0799 49.024 79.4879C50.176 80.7679 51.968 81.4079 54.656 81.4079C56.32 81.4079 58.112 81.2799 60.032 81.0239C60.544 80.8959 60.928 80.5119 61.056 79.9999V78.4639C60.8 76.9279 60.544 75.6479 60.16 74.3679Z" fill="#F6F6F6"/>
</g>
</g>
</g>
<defs>
<clipPath id="clip0_364_1302">
<rect width="128" height="128" fill="white"/>
</clipPath>
<clipPath id="clip1_364_1302">
<rect width="128" height="128" fill="white"/>
</clipPath>
</defs>
</svg>
