<svg width="128" height="128" viewBox="0 0 128 128" fill="none" xmlns="http://www.w3.org/2000/svg">
<g id="SkillItemImg" clip-path="url(#clip0_364_1041)">
<g id="gitlab-icon 1">
<path id="Vector" fill-rule="evenodd" clip-rule="evenodd" d="M63.9999 122.954L87.5679 50.3999H40.4319L63.9999 122.954Z" fill="#E24329"/>
<path id="Vector_2" fill-rule="evenodd" clip-rule="evenodd" d="M63.9999 122.954L40.4319 50.3999H7.3999L63.9999 122.954Z" fill="#FC6D26"/>
<path id="Vector_3" fill-rule="evenodd" clip-rule="evenodd" d="M7.39997 50.3999L0.239965 72.4599C-0.0785718 73.4399 -0.0786891 74.4957 0.23963 75.4758C0.55795 76.4559 1.17837 77.3101 2.01197 77.9159L64 122.954L7.39997 50.3999Z" fill="#FCA326"/>
<path id="Vector_4" fill-rule="evenodd" clip-rule="evenodd" d="M7.3999 50.3999H40.4299L26.2359 6.7319C25.5059 4.4839 22.3259 4.4839 21.5959 6.7319L7.3999 50.3999Z" fill="#E24329"/>
<path id="Vector_5" fill-rule="evenodd" clip-rule="evenodd" d="M64 122.954L87.568 50.3999H120.6L64 122.954Z" fill="#FC6D26"/>
<path id="Vector_6" fill-rule="evenodd" clip-rule="evenodd" d="M120.6 50.3999L127.76 72.4399C128.079 73.4199 128.079 74.4757 127.76 75.4558C127.442 76.4359 126.822 77.2901 125.988 77.8959L64 122.954L120.6 50.3999Z" fill="#FCA326"/>
<path id="Vector_7" fill-rule="evenodd" clip-rule="evenodd" d="M120.6 50.3999H87.5681L101.764 6.71188C102.494 4.46388 105.674 4.46388 106.404 6.71188L120.6 50.3999Z" fill="#E24329"/>
</g>
</g>
<defs>
<clipPath id="clip0_364_1041">
<rect width="128" height="128" fill="white"/>
</clipPath>
</defs>
</svg>
